<?xml version="1.0" encoding="UTF-8" standalone="no"?>
<svg
   xmlns:dc="http://purl.org/dc/elements/1.1/"
   xmlns:cc="http://creativecommons.org/ns#"
   xmlns:rdf="http://www.w3.org/1999/02/22-rdf-syntax-ns#"
   xmlns:svg="http://www.w3.org/2000/svg"
   xmlns="http://www.w3.org/2000/svg"
   viewBox="0 0 816 1056"
   height="1056"
   width="816"
   xml:space="preserve"
   id="svg2"
   version="1.1"><metadata
     id="metadata8"><rdf:RDF><cc:Work
         rdf:about=""><dc:format>image/svg+xml</dc:format><dc:type
           rdf:resource="http://purl.org/dc/dcmitype/StillImage" /></cc:Work></rdf:RDF></metadata><defs
     id="defs6" /><g
     transform="matrix(1.3333333,0,0,-1.3333333,0,1056)"
     id="g10"><text
       id="text14"
       style="font-variant:normal;font-weight:normal;font-size:24.78709984px;font-family:CMBX12;-inkscape-font-specification:CMBX12;writing-mode:lr-tb;fill:#000000;fill-opacity:1;fill-rule:nonzero;stroke:none"
       transform="matrix(1,0,0,-1,207.771,738.787)"><tspan
         id="tspan12"
         y="0"
         x="0 26.450314 40.006378 54.729916 70.221855 82.945076 99.986206 126.43652 139.99258 151.38226 162.22661 169.97258 185.46452">ManuelMartins</tspan></text>
<text
       id="text18"
       style="font-variant:normal;font-weight:normal;font-size:10.90909958px;font-family:CMR10;-inkscape-font-specification:CMR10;writing-mode:lr-tb;fill:#000000;fill-opacity:1;fill-rule:nonzero;stroke:none"
       transform="matrix(1,0,0,-1,126.727,716.271)"><tspan
         id="tspan16"
         y="0"
         x="0 9.0905533 14.545103 20.300745 26.361839 31.209845 34.240391 37.270939 41.513489 44.544037 49.998589 55.453136 60.907688 63.938236 69.999329 74.847336 80.605156 89.090256 94.544807 103.63536 109.08991 112.12046 115.15101 118.18156 123.02956 128.4841">manuel.tiago.dev@gmail.com</tspan></text>
<g
       transform="translate(126.727,712.755)"
       id="g20"><path
         id="path22"
         style="fill:none;stroke:#000000;stroke-width:0.398;stroke-linecap:butt;stroke-linejoin:miter;stroke-miterlimit:10;stroke-dasharray:none;stroke-opacity:1"
         d="M 0,0 H 137.576" /></g><text
       id="text26"
       style="font-variant:normal;font-weight:normal;font-size:10.90909958px;font-family:CMR10;-inkscape-font-specification:CMR10;writing-mode:lr-tb;fill:#000000;fill-opacity:1;fill-rule:nonzero;stroke:none"
       transform="matrix(1,0,0,-1,271.576,716.271)"><tspan
         id="tspan24"
         y="0"
         x="0 5.4545498 8.4850979 12.727647 18.483288 24.544384 30.60548 33.636028 38.484032 43.938583 53.029137 58.483685 67.574242 73.028786 78.784431 84.845528 89.693527 92.724075 96.360077 102.42117 107.26918 113.027 118.48155">github.com/manuel-dev04</tspan></text>
<g
       transform="translate(271.576,712.149)"
       id="g28"><path
         id="path30"
         style="fill:none;stroke:#000000;stroke-width:0.398;stroke-linecap:butt;stroke-linejoin:miter;stroke-miterlimit:10;stroke-dasharray:none;stroke-opacity:1"
         d="M 0,0 H 123.94" /></g><text
       id="text34"
       style="font-variant:normal;font-weight:normal;font-size:10.90909958px;font-family:CMR10;-inkscape-font-specification:CMR10;writing-mode:lr-tb;fill:#000000;fill-opacity:1;fill-rule:nonzero;stroke:none"
       transform="matrix(1,0,0,-1,402.788,716.271)"><tspan
         id="tspan32"
         y="0"
         x="0 9.0905533 14.545103 20.300745 26.361839 31.209845 34.240391 39.088398 44.8484 50.909496 55.7575 60.060051 63.090599 67.938599 73.39315">manuelcodes.com</tspan></text>
<g
       transform="translate(402.788,714.877)"
       id="g36"><path
         id="path38"
         style="fill:none;stroke:#000000;stroke-width:0.398;stroke-linecap:butt;stroke-linejoin:miter;stroke-miterlimit:10;stroke-dasharray:none;stroke-opacity:1"
         d="M 0,0 H 82.485" /></g><text
       id="text42"
       style="font-variant:normal;font-weight:normal;font-size:11.9552002px;font-family:CMCSC10;-inkscape-font-specification:CMCSC10;writing-mode:lr-tb;fill:#000000;fill-opacity:1;fill-rule:nonzero;stroke:none"
       transform="matrix(1,0,0,-1,36,674.39)"><tspan
         id="tspan40"
         y="0"
         x="0 12.869773 20.468498 27.667919 39.785709 48.652882 55.985004 62.653618 69.322227 76.521652 80.134514 86.803123 94.135246 101.20197">WorkExperience</tspan></text>
<g
       transform="translate(36,670.006)"
       id="g44"><path
         id="path46"
         style="fill:none;stroke:#000000;stroke-width:0.398;stroke-linecap:butt;stroke-linejoin:miter;stroke-miterlimit:10;stroke-dasharray:none;stroke-opacity:1"
         d="M 0,0 H 540" /></g><text
       id="text50"
       style="font-variant:normal;font-weight:normal;font-size:10.90909958px;font-family:CMBX10;-inkscape-font-specification:CMBX10;writing-mode:lr-tb;fill:#000000;fill-opacity:1;fill-rule:nonzero;stroke:none"
       transform="matrix(1,0,0,-1,46.8,646.531)"><tspan
         id="tspan48"
         y="0"
         x="0 4.7574587 11.727283 18.697107 24.969839 36.892395 42.641491 48.913132">InnoWave</tspan></text>
<text
       id="text54"
       style="font-variant:normal;font-weight:normal;font-size:10.90909958px;font-family:CMR10;-inkscape-font-specification:CMR10;writing-mode:lr-tb;fill:#000000;fill-opacity:1;fill-rule:nonzero;stroke:none"
       transform="matrix(1,0,0,-1,465.297,646.531)"><tspan
         id="tspan52"
         y="0"
         x="0 5.6061864 11.667282 14.69783 24.088385 29.542934 34.997482 40.452034 49.550224 58.637505 64.698601 69.5466 75.607697 83.481888 88.93644 94.390991 99.845535">July2024–Sep.2024</tspan></text>
<text
       id="text58"
       style="font-variant:normal;font-weight:normal;font-size:9.96259975px;font-family:CMTI10;-inkscape-font-specification:CMTI10;writing-mode:lr-tb;fill:#000000;fill-opacity:1;fill-rule:nonzero;stroke:none"
       transform="matrix(1,0,0,-1,46.8,632.982)"><tspan
         id="tspan56"
         y="0"
         x="0 5.6009736 10.692859 13.748388 17.057964 23.677114 28.768999 32.462135 40.611542 47.369175 52.970146 57.552944 60.608475 66.20945 70.284149 74.866943 82.624825 86.4664 92.067375 95.376953 99.959747 104.16097 451.07901 457.32755 460.38309 464.45679 468.53149 473.62338 479.22433 485.8465 492.60413 497.69598 501.89722 505.20679 510.55374 515.13654 520.22839">SoftwareEngineerInternLisbon,Portugal</tspan></text>
<text
       id="text62"
       style="font-variant:normal;font-weight:normal;font-size:5.9776001px;font-family:CMSY6;-inkscape-font-specification:CMSY6;writing-mode:lr-tb;fill:#000000;fill-opacity:1;fill-rule:nonzero;stroke:none"
       transform="matrix(1,0,0,-1,61.526,619.758)"><tspan
         id="tspan60"
         y="0"
         x="0">•</tspan></text>
<text
       id="text66"
       style="font-variant:normal;font-weight:normal;font-size:9.96259975px;font-family:CMR10;-inkscape-font-specification:CMR10;writing-mode:lr-tb;fill:#000000;fill-opacity:1;fill-rule:nonzero;stroke:none"
       transform="matrix(1,0,0,-1,70.8,618.456)"><tspan
         id="tspan64"
         y="0"
         x="0 7.1949897 12.17629 17.432558 21.307013 25.209364 27.976973 33.512196 39.047413 42.921871 47.349251 56.202015 60.076469 68.385277 72.259735 77.794952 85.539879 89.137375 94.393646 98.268097 102.69548 105.46309 108.2307 110.99831 115.97961 120.40699 125.66325 132.86522 140.47565 145.7359 150.16328 155.6985 164.00034 168.42772 173.68399 180.87599 188.20946 192.63684 197.61813 203.15335 207.58073 214.80063 218.67508 222.27258 229.88301 237.21648 244.41844 249.95366 253.85602 259.38525 262.42984 266.85721 271.28458 275.15903 281.25415 284.02176 289.27805 293.1525 297.57986 302.56119 306.46353 311.44482 315.31927 318.08688 323.6221">ContributedtotheIntelligentDocumentReader(IDR)project,integrating</tspan></text>
<text
       id="text70"
       style="font-variant:normal;font-weight:normal;font-size:9.96259975px;font-family:CMBX10;-inkscape-font-specification:CMBX10;writing-mode:lr-tb;fill:#000000;fill-opacity:1;fill-rule:nonzero;stroke:none"
       transform="matrix(1,0,0,-1,402.86,618.456)"><tspan
         id="tspan68"
         y="0"
         x="0 9.0081825 16.839783 24.809862 28.628527 38.172699 46.834183 54.665783">GPT-4API</tspan></text>
<text
       id="text76"
       style="font-variant:normal;font-weight:normal;font-size:9.96259975px;font-family:CMR10;-inkscape-font-specification:CMR10;writing-mode:lr-tb;fill:#000000;fill-opacity:1;fill-rule:nonzero;stroke:none"
       transform="matrix(1,0,0,-1,465.196,618.456)"><tspan
         id="tspan72"
         y="0"
         x="0 3.8744552 12.173301 17.1546 22.689821 26.564276 31.545576 39.847412 44.828712 48.703167 56.458054 61.993275 67.243568 71.670944 77.206161 85.508003 89.945343 95.201607">toautomatedocument</tspan><tspan
         id="tspan74"
         y="11.955"
         x="-394.396 -388.86078 -384.95844 -379.69818 -375.27078 -370.84341 -366.91415 -362.98492 -360.21732 -354.6821 -349.70078 -343.69534 -340.92773 -335.39249 -330.96512 -327.06277 -322.63541 -317.65408 -313.72485 -310.95724 -305.422 -297.21283 -291.67761 -286.41736 -281.98999 -276.45474 -268.15292 -263.72556 -258.46927 -251.37689 -245.84167 -241.93933 -236.67908 -232.25169 -227.82431 -223.89507 -219.96582 -217.19821 -211.66299 -203.45381 -199.52455 -193.71039 -189.283 -184.85562 -176.10248 -170.84622">processing,increasingdocumentprocessingspeedby</tspan></text>
<text
       id="text80"
       style="font-variant:normal;font-weight:normal;font-size:9.96259975px;font-family:CMBX10;-inkscape-font-specification:CMBX10;writing-mode:lr-tb;fill:#000000;fill-opacity:1;fill-rule:nonzero;stroke:none"
       transform="matrix(1,0,0,-1,302.975,606.501)"><tspan
         id="tspan78"
         y="0"
         x="0 5.7284951 11.45699">85%</tspan></text>
<text
       id="text84"
       style="font-variant:normal;font-weight:normal;font-size:9.96259975px;font-family:CMR10;-inkscape-font-specification:CMR10;writing-mode:lr-tb;fill:#000000;fill-opacity:1;fill-rule:nonzero;stroke:none"
       transform="matrix(1,0,0,-1,327.203,606.501)"><tspan
         id="tspan82"
         y="0"
         x="0 4.9812999 10.516521 19.279623 23.707003 29.242224 34.223522 39.748783 42.516392 45.284 50.819221 59.028404 63.455784 71.757622 76.184998 78.952606 83.37999 88.636253 95.738594 101.27381 106.25511 111.79034 117.32555 120.09316 122.86078 128.396 136.59521 141.57652 147.84897 150.61658 155.87285 160.85216 165.83345 168.60106 173.02844 177.45583 184.61296 189.59425 195.12947 203.88261 208.31 213.56825 219.38243 223.80981 229.34503 233.27428 237.70166 241.63091">andenablingefcienthandlingofinvoicesandexpenses.</tspan></text>
<text
       id="text88"
       style="font-variant:normal;font-weight:normal;font-size:5.9776001px;font-family:CMSY6;-inkscape-font-specification:CMSY6;writing-mode:lr-tb;fill:#000000;fill-opacity:1;fill-rule:nonzero;stroke:none"
       transform="matrix(1,0,0,-1,61.526,593.619)"><tspan
         id="tspan86"
         y="0"
         x="0">•</tspan></text>
<text
       id="text92"
       style="font-variant:normal;font-weight:normal;font-size:9.96259975px;font-family:CMR10;-inkscape-font-specification:CMR10;writing-mode:lr-tb;fill:#000000;fill-opacity:1;fill-rule:nonzero;stroke:none"
       transform="matrix(1,0,0,-1,70.8,592.553)"><tspan
         id="tspan90"
         y="0"
         x="0 3.5974948 11.899329 17.434549 20.20216 24.629539 32.931374 37.358753 42.615021 46.489475 50.916855 59.779587 62.824154 66.726509 71.707809 76.964073 80.838531 85.265907 90.801132 99.653893 102.69846 107.12585 112.10715 115.9816 121.51682 125.41917 129.84656 137.09335 142.62857 146.55782 149.32542 154.86064">Implementedfrontendfeaturesusing</tspan></text>
<text
       id="text96"
       style="font-variant:normal;font-weight:normal;font-size:9.96259975px;font-family:CMBX10;-inkscape-font-specification:CMBX10;writing-mode:lr-tb;fill:#000000;fill-opacity:1;fill-rule:nonzero;stroke:none"
       transform="matrix(1,0,0,-1,234.104,592.553)"><tspan
         id="tspan94"
         y="0"
         x="0 8.5927429 13.844029 19.413122 24.505007">React</tspan></text>
<text
       id="text100"
       style="font-variant:normal;font-weight:normal;font-size:9.96259975px;font-family:CMR10;-inkscape-font-specification:CMR10;writing-mode:lr-tb;fill:#000000;fill-opacity:1;fill-rule:nonzero;stroke:none"
       transform="matrix(1,0,0,-1,263.065,592.553)"><tspan
         id="tspan98"
         y="0"
         x="0">,</tspan></text>
<text
       id="text104"
       style="font-variant:normal;font-weight:normal;font-size:9.96259975px;font-family:CMBX10;-inkscape-font-specification:CMBX10;writing-mode:lr-tb;fill:#000000;fill-opacity:1;fill-rule:nonzero;stroke:none"
       transform="matrix(1,0,0,-1,269.153,592.553)"><tspan
         id="tspan102"
         y="0"
         x="0 8.9663401 14.217627 20.263927 24.719204 27.901258 31.402115">Next.js</tspan></text>
<text
       id="text108"
       style="font-variant:normal;font-weight:normal;font-size:9.96259975px;font-family:CMR10;-inkscape-font-specification:CMR10;writing-mode:lr-tb;fill:#000000;fill-opacity:1;fill-rule:nonzero;stroke:none"
       transform="matrix(1,0,0,-1,305.075,592.553)"><tspan
         id="tspan106"
         y="0"
         x="0">,</tspan></text>
<text
       id="text112"
       style="font-variant:normal;font-weight:normal;font-size:9.96259975px;font-family:CMBX10;-inkscape-font-specification:CMBX10;writing-mode:lr-tb;fill:#000000;fill-opacity:1;fill-rule:nonzero;stroke:none"
       transform="matrix(1,0,0,-1,311.163,592.553)"><tspan
         id="tspan110"
         y="0"
         x="0 7.6512766 13.697578 20.381487 25.632774 31.997879 37.089764 41.808052 44.990105 51.355209">TypeScript</tspan></text>
<text
       id="text116"
       style="font-variant:normal;font-weight:normal;font-size:9.96259975px;font-family:CMR10;-inkscape-font-specification:CMR10;writing-mode:lr-tb;fill:#000000;fill-opacity:1;fill-rule:nonzero;stroke:none"
       transform="matrix(1,0,0,-1,366.975,592.553)"><tspan
         id="tspan114"
         y="0"
         x="0 6.085156 11.066456 16.601677">,and</tspan></text>
<text
       id="text120"
       style="font-variant:normal;font-weight:normal;font-size:9.96259975px;font-family:CMBX10;-inkscape-font-specification:CMBX10;writing-mode:lr-tb;fill:#000000;fill-opacity:1;fill-rule:nonzero;stroke:none"
       transform="matrix(1,0,0,-1,392.435,592.553)"><tspan
         id="tspan118"
         y="0"
         x="0 7.0136704 12.582764 15.764818 18.946873 27.221807 30.403862 36.768967 46.959713 55.234646 61.599751">TailwindCSS</tspan></text>
<text
       id="text126"
       style="font-variant:normal;font-weight:normal;font-size:9.96259975px;font-family:CMR10;-inkscape-font-specification:CMR10;writing-mode:lr-tb;fill:#000000;fill-opacity:1;fill-rule:nonzero;stroke:none"
       transform="matrix(1,0,0,-1,463.716,592.553)"><tspan
         id="tspan122"
         y="0"
         x="0 3.8744552 12.173301 14.940911 23.242746 28.777966 32.680317 37.382664 42.371933 50.116859 55.652081 59.581329 64.008705">toimproveuser</tspan><tspan
         id="tspan124"
         y="11.955"
         x="-392.91599 -388.48862 -383.23035 -377.4162 -372.9888 -369.08646 -366.31885 -361.89148 -356.35623 -351.92886 -344.18393 -339.20264 -333.66742 -324.81467 -320.88541 -317.01096 -313.10861 -308.68121 -303.69992 -295.39807 -292.63046 -289.86285 -284.32764 -276.57275 -272.6983 -267.16309 -259.41815 -253.88293 -248.62268 -244.1953 -238.66008 -230.35825 -225.93086 -220.67461 -213.4826 -205.18077 -200.1895 -194.66425 -189.68294 -184.70164 -180.2643 -171.96246 -167.5351 -162.27882 -155.08682 -152.31921 -147.06294 -143.18849 -138.76111 -134.85876 -131.81419 -126.83289 -122.40551 -117.97813">experienceandstreamlinethedocumentmanagementinterface.</tspan></text>
<text
       id="text130"
       style="font-variant:normal;font-weight:normal;font-size:5.9776001px;font-family:CMSY6;-inkscape-font-specification:CMSY6;writing-mode:lr-tb;fill:#000000;fill-opacity:1;fill-rule:nonzero;stroke:none"
       transform="matrix(1,0,0,-1,61.526,567.716)"><tspan
         id="tspan128"
         y="0"
         x="0">•</tspan></text>
<text
       id="text134"
       style="font-variant:normal;font-weight:normal;font-size:9.96259975px;font-family:CMR10;-inkscape-font-specification:CMR10;writing-mode:lr-tb;fill:#000000;fill-opacity:1;fill-rule:nonzero;stroke:none"
       transform="matrix(1,0,0,-1,70.8,566.65)"><tspan
         id="tspan132"
         y="0"
         x="0 9.4126644 14.393965 18.296314 23.275623 27.703001 36.555767 41.537067 50.389835 54.26429 59.799511 67.554398 73.089615 78.070915 82.219345 87.198654 91.62603 97.161255 106.01402 113.21897 115.97662 119.85107">Workedonthebackendwith</tspan></text>
<text
       id="text138"
       style="font-variant:normal;font-weight:normal;font-size:9.96259975px;font-family:CMBX10;-inkscape-font-specification:CMBX10;writing-mode:lr-tb;fill:#000000;fill-opacity:1;fill-rule:nonzero;stroke:none"
       transform="matrix(1,0,0,-1,199.512,566.65)"><tspan
         id="tspan136"
         y="0"
         x="0 8.9663401 15.013638 21.378744 26.63003 29.812084 33.312943">Node.js</tspan></text>
<text
       id="text142"
       style="font-variant:normal;font-weight:normal;font-size:9.96259975px;font-family:CMR10;-inkscape-font-specification:CMR10;writing-mode:lr-tb;fill:#000000;fill-opacity:1;fill-rule:nonzero;stroke:none"
       transform="matrix(1,0,0,-1,237.343,566.65)"><tspan
         id="tspan140"
         y="0"
         x="0">,</tspan></text>
<text
       id="text146"
       style="font-variant:normal;font-weight:normal;font-size:9.96259975px;font-family:CMBX10;-inkscape-font-specification:CMBX10;writing-mode:lr-tb;fill:#000000;fill-opacity:1;fill-rule:nonzero;stroke:none"
       transform="matrix(1,0,0,-1,243.431,566.65)"><tspan
         id="tspan144"
         y="0"
         x="0 6.2525277 11.821621 16.340656 20.795931 29.457417 37.289017">FastAPI</tspan></text>
<text
       id="text150"
       style="font-variant:normal;font-weight:normal;font-size:9.96259975px;font-family:CMR10;-inkscape-font-specification:CMR10;writing-mode:lr-tb;fill:#000000;fill-opacity:1;fill-rule:nonzero;stroke:none"
       transform="matrix(1,0,0,-1,285.068,566.65)"><tspan
         id="tspan148"
         y="0"
         x="0 6.085156 11.066456 16.601677">,and</tspan></text>
<text
       id="text154"
       style="font-variant:normal;font-weight:normal;font-size:9.96259975px;font-family:CMBX10;-inkscape-font-specification:CMBX10;writing-mode:lr-tb;fill:#000000;fill-opacity:1;fill-rule:nonzero;stroke:none"
       transform="matrix(1,0,0,-1,310.528,566.65)"><tspan
         id="tspan152"
         y="0"
         x="0 8.6614847 13.753369 20.118475 24.836761">Azure</tspan></text>
<text
       id="text160"
       style="font-variant:normal;font-weight:normal;font-size:9.96259975px;font-family:CMR10;-inkscape-font-specification:CMR10;writing-mode:lr-tb;fill:#000000;fill-opacity:1;fill-rule:nonzero;stroke:none"
       transform="matrix(1,0,0,-1,343.937,566.65)"><tspan
         id="tspan156"
         y="0"
         x="0 3.8744552 12.173301 16.600681 21.85894 25.733397 30.160776 35.695995 44.558723 50.093945 55.344234 59.771614 65.306839 73.608673 78.046013 83.302277 90.494278 96.029503 101.0108 104.91315 108.8424 111.61001 117.14523 125.44408 129.87146 134.85275 140.38799 145.36928 150.9045 153.6721 156.43971 159.20734 163.08179 165.8494 170.27678 177.53354 182.51483 188.05005">toextenddocumentparsingcapabilitiesand</tspan><tspan
         id="tspan158"
         y="11.955"
         x="-273.13699 -270.36938 -262.06757 -256.53235 -253.76472 -249.33734 -241.03551 -236.60812 -231.35187 -224.1499 -218.61469 -214.1873 -203.67476 -200.63019 -196.20282 -191.22151 -187.34706 -181.81184 -177.90948 -173.4821 -166.23531 -163.19075 -158.20944 -150.97958 -145.99829 -140.47302 -136.59857 -131.61726 -123.30547 -118.32417 -114.44971 -110.02234 -101.16957 -96.742195 -93.974586 -88.993286 -85.064034 -81.134781 -78.367172 -72.831955 -68.404572 -63.423275 -59.54882 -56.781208 -51.799908 -42.947144 -37.965843 -32.430622 -23.577854 -19.140512 -13.882253 -10.007797 -6.1154099 -1.1341097 3.3032322 7.1776876 9.9452972 14.926598 23.779364 28.760664 35.12278 40.658001 46.193222 51.174522 56.709743 61.137123 63.904732 68.886032 74.971191 80.506409 85.766663 90.194038 95.729263 104.0311 108.45847 113.71474 117.5892 121.51845">implementnewfeaturesforautomatedclassifcationandextractionoffnancialdocuments.</tspan></text>
<text
       id="text164"
       style="font-variant:normal;font-weight:normal;font-size:10.90909958px;font-family:CMBX10;-inkscape-font-specification:CMBX10;writing-mode:lr-tb;fill:#000000;fill-opacity:1;fill-rule:nonzero;stroke:none"
       transform="matrix(1,0,0,-1,46.8,531.183)"><tspan
         id="tspan162"
         y="0"
         x="0 8.4370975 15.058922 22.028746 28.126932 31.96039 38.233124 45.202946">Vodafone</tspan></text>
<text
       id="text168"
       style="font-variant:normal;font-weight:normal;font-size:10.90909958px;font-family:CMR10;-inkscape-font-specification:CMR10;writing-mode:lr-tb;fill:#000000;fill-opacity:1;fill-rule:nonzero;stroke:none"
       transform="matrix(1,0,0,-1,465.297,531.183)"><tspan
         id="tspan166"
         y="0"
         x="0 5.6061864 11.667282 14.69783 24.088385 29.542934 34.997482 40.452034 49.550224 58.637505 64.698601 69.5466 75.607697 83.481888 88.93644 94.390991 99.845535">July2023–Sep.2023</tspan></text>
<text
       id="text172"
       style="font-variant:normal;font-weight:normal;font-size:9.96259975px;font-family:CMTI10;-inkscape-font-specification:CMTI10;writing-mode:lr-tb;fill:#000000;fill-opacity:1;fill-rule:nonzero;stroke:none"
       transform="matrix(1,0,0,-1,46.8,517.634)"><tspan
         id="tspan170"
         y="0"
         x="0 5.6009736 10.692859 13.748388 17.057964 23.677114 28.768999 32.462135 40.611542 47.369175 52.970146 57.552944 60.608475 66.20945 70.284149 74.866943 82.624825 86.4664 92.067375 95.376953 99.959747 104.16097 451.07901 457.32755 460.38309 464.45679 468.53149 473.62338 479.22433 485.8465 492.60413 497.69598 501.89722 505.20679 510.55374 515.13654 520.22839">SoftwareEngineerInternLisbon,Portugal</tspan></text>
<text
       id="text176"
       style="font-variant:normal;font-weight:normal;font-size:5.9776001px;font-family:CMSY6;-inkscape-font-specification:CMSY6;writing-mode:lr-tb;fill:#000000;fill-opacity:1;fill-rule:nonzero;stroke:none"
       transform="matrix(1,0,0,-1,61.526,504.964)"><tspan
         id="tspan174"
         y="0"
         x="0">•</tspan></text>
<text
       id="text180"
       style="font-variant:normal;font-weight:normal;font-size:9.96259975px;font-family:CMR10;-inkscape-font-specification:CMR10;writing-mode:lr-tb;fill:#000000;fill-opacity:1;fill-rule:nonzero;stroke:none"
       transform="matrix(1,0,0,-1,70.8,503.662)"><tspan
         id="tspan178"
         y="0"
         x="0 7.6104302 12.037809 17.017117 21.444496 24.212107 29.193407 35.00758 39.434959 48.287727 53.269028 58.804245 62.678703 67.660004 75.961838 80.943138 84.817589 89.244972 98.107697 103.64292 108.62422 112.49867 120.79752 126.33274 130.23509 135.49535 139.92273 144.3501 148.27936 152.2086 154.97621 160.51143 168.81027 172.73953 177.16692 181.06926 183.83687 189.37209 193.24655 200.49335 203.26096">Developedautomateddataprocessingscriptsin</tspan></text>
<text
       id="text184"
       style="font-variant:normal;font-weight:normal;font-size:9.96259975px;font-family:CMBX10;-inkscape-font-specification:CMBX10;writing-mode:lr-tb;fill:#000000;fill-opacity:1;fill-rule:nonzero;stroke:none"
       transform="matrix(1,0,0,-1,282.921,503.662)"><tspan
         id="tspan182"
         y="0"
         x="0 7.8315997 13.877902 18.333176 24.698282 30.426777">Python</tspan></text>
<text
       id="text188"
       style="font-variant:normal;font-weight:normal;font-size:9.96259975px;font-family:CMR10;-inkscape-font-specification:CMR10;writing-mode:lr-tb;fill:#000000;fill-opacity:1;fill-rule:nonzero;stroke:none"
       transform="matrix(1,0,0,-1,323.034,503.662)"><tspan
         id="tspan186"
         y="0"
         x="0 4.9812999 10.516521">and</tspan></text>
<text
       id="text192"
       style="font-variant:normal;font-weight:normal;font-size:9.96259975px;font-family:CMBX10;-inkscape-font-specification:CMBX10;writing-mode:lr-tb;fill:#000000;fill-opacity:1;fill-rule:nonzero;stroke:none"
       transform="matrix(1,0,0,-1,342.406,503.662)"><tspan
         id="tspan190"
         y="0"
         x="0 10.87617 14.058225 19.15011 23.868397 29.596891 34.115929 39.844421 43.34528 51.61623 59.129028 64.548683 72.504814 77.756104 86.290062 94.440468">MicrosoftPowerBI</tspan></text>
<text
       id="text200"
       style="font-variant:normal;font-weight:normal;font-size:9.96259975px;font-family:CMR10;-inkscape-font-specification:CMR10;writing-mode:lr-tb;fill:#000000;fill-opacity:1;fill-rule:nonzero;stroke:none"
       transform="matrix(1,0,0,-1,444.51,503.662)"><tspan
         id="tspan194"
         y="0"
         x="0 4.9812999 12.228095 17.763315 22.744616 26.646967 33.84893 38.830231 45.192345 49.066803 54.60202 62.346947 69.818893 80.756836 89.889549 94.87085 100.40607 103.17368 105.94129">aspartoftheNDMobile</tspan><tspan
         id="tspan196"
         y="11.955"
         x="-373.70999 -366.09958 -361.67218 -356.13696 -353.36935 -348.66702 -343.40875 -335.1069 -330.67953 -325.42328 -318.22131 -314.34686 -309.91946 -304.93817 -296.63635 -290.55118 -287.78357 -282.24835 -277.82098 -272.5647 -268.69025 -265.92264 -262.87808 -257.61981 -254.8522 -249.31697 -241.01813 -235.48291 -231.05553 -228.28792 -223.57561 -218.31735 -211.07056 -206.08925 -200.55403 -191.70126 -187.2739 -182.29259 -178.36334 -174.48889 -171.16835 -167.23911 -162.52679 -157.26852 -154.50092 -148.9657 -140.66685 -135.68555 -130.15033 -124.33616 -119.35486 -115.45251 -111.57806 -106.04283 -100.50761 -97.740005 -93.865547 -91.107903 -86.670555 -79.423759 -75.549309 -70.014084 -66.111732 -61.130436 -55.595215 -50.613914 -41.76115 -37.858799 -33.431419 -28.450119 -25.682508 -22.361975 -18.48752 -15.719909 -7.4180746 0.33681327 5.862071 10.843371 14.782583 20.038851 25.843061 30.824362 35.80566 39.708012 45.243233 49.172482 55.267601 59.19685 61.964462 66.945763 72.48098 75.248589 80.783813 85.211189 90.19249 95.448761 99.323212 102.09083">Deploymentteam,identifyingdelaysandcost-savingopportunitiesthroughreal-timedashboards,signifcantly</tspan><tspan
         id="tspan198"
         y="23.91"
         x="-373.70999 -369.80765 -365.38028 -359.84506 -354.30981 -349.88245 -347.11484 -341.57962 -333.28076 -329.40631 -323.87109 -316.11621 -312.24176 -309.47415 -301.1723 -293.4274 -289.52502 -285.09766 -279.83939 -274.30417 -271.53656 -267.63422 -263.20685 -254.35406 -250.47961 -242.17081 -237.1895 -231.66425 -226.68295 -223.91533 -218.65707 -214.22969 -206.47481 -202.04742 -197.62006 -194.85243 -188.76729 -184.89282 -180.19048 -173.26448 -168.8371 -164.93475 -161.61421 -157.71187 -153.28448 -150.51688 -145.53558 -141.66112 -137.23373 -128.38098 -122.84576 -117.86446 -113.99 -105.69115 -102.64658 -98.744232 -93.762932 -82.133591 -77.706207 -72.447952 -68.573494 -64.146118 -58.610893 -54.681644 -51.914036 -46.934727 -39.189804 -33.654583 -28.673283 -24.798826 -19.817526 -15.888277 -11.460897 -7.5864425 -3.6571932">reducingthetimerequiredtoanalyzecelltower-relateddatafromextensivedatasets.</tspan></text>
<text
       id="text204"
       style="font-variant:normal;font-weight:normal;font-size:5.9776001px;font-family:CMSY6;-inkscape-font-specification:CMSY6;writing-mode:lr-tb;fill:#000000;fill-opacity:1;fill-rule:nonzero;stroke:none"
       transform="matrix(1,0,0,-1,61.526,466.87)"><tspan
         id="tspan202"
         y="0"
         x="0">•</tspan></text>
<text
       id="text212"
       style="font-variant:normal;font-weight:normal;font-size:9.96259975px;font-family:CMR10;-inkscape-font-specification:CMR10;writing-mode:lr-tb;fill:#000000;fill-opacity:1;fill-rule:nonzero;stroke:none"
       transform="matrix(1,0,0,-1,70.8,465.804)"><tspan
         id="tspan206"
         y="0"
         x="0 7.1949897 12.17629 14.9439 17.71151 22.69281 28.506983 33.488285 37.390633 42.371933 46.246387 50.673767 59.526535 66.721527 69.489136 73.363586 82.216354 87.197655 91.072113 96.60733 101.03471 108.26457 112.69195 118.22717 123.20847 125.97608 131.51131 135.93867 140.36606 144.26842 147.03603 152.57124 160.87009 164.74454 169.17192 174.15323 182.45506 189.70186 193.57631 201.88512 205.81436 209.68881 213.59117 218.01855 222.99985 231.30168 234.06929 236.8369 242.37213 250.11705 255.65227 260.63358 264.50803 272.80688 275.57449 280.8407 284.7052 289.14255 294.12384 298.02618 303.00751 306.88196 309.63959 314.62091 323.48364 326.25125 331.50751 335.38196 343.68082 351.98962 356.41699 360.84439 366.10065 369.9751 373.87744 378.85873 381.62637 384.39398 388.82135 393.24872 402.1015 406.00385 410.43121 416.24539 421.22668 425.12906 429.00351 431.77112 437.30634 445.60519 449.53442 454.79269 458.72195 462.59641 467.02377 475.32562">Collaboratedwithotherengineeringteamstostreamlinedataintegrationintoacentralizedreportingsystem,</tspan><tspan
         id="tspan208"
         y="11.955"
         x="0 4.4273796 9.9625998 15.497821 20.47912 26.014341 30.441721 33.209332 38.744553 47.043396 52.578617 56.480968 62.020172 65.064743 69.492126 73.919502 81.111504 89.413338 94.394638 99.929863 102.69747 106.57192 111.55322 115.45557 118.22318 123.75841 132.05725 137.03856 142.57378 151.43651 156.4178 159.18541 164.71066 167.47829 173.0135 181.32231 184.08992 192.94269 196.81714 202.35236 210.09729 214.02654 221.22153 223.98914 227.03371 234.23567 238.11012 242.01248 246.99377 252.52899 256.45825 259.22586 263.10031 265.86792 270.84921 279.702 283.57645 291.87527 296.8566 308.00174 310.76935 316.30457 319.34915 323.24155 328.22284 332.16205 336.0365 339.92889 345.46411 349.89148 353.76596 359.30118 363.20352 370.9584 373.72601 382.5788 389.22385 394.4841 400.00934 404.99066 408.03522 413.01651 418.55173 426.30664 432.80823 437.78952 441.69186 445.56631 451.10153 456.08286 461.06415 463.83176 466.59937">enhancingprojectmonitoringandaidingintheswifttransitionto5GinfrastructureinVodafonePortugal’s</tspan><tspan
         id="tspan210"
         y="23.91"
         x="0 5.5352206 9.9625998 13.558103 20.47414 25.455439 29.35779 34.616051">network.</tspan></text>
<text
       id="text216"
       style="font-variant:normal;font-weight:normal;font-size:11.9552002px;font-family:CMCSC10;-inkscape-font-specification:CMCSC10;writing-mode:lr-tb;fill:#000000;fill-opacity:1;fill-rule:nonzero;stroke:none"
       transform="matrix(1,0,0,-1,36,404.035)"><tspan
         id="tspan214"
         y="0"
         x="0 8.8671722 16.331999 23.664124 30.730841 37.261967 44.328686 47.941547 55.540272">Education</tspan></text>
<g
       transform="translate(36,399.651)"
       id="g218"><path
         id="path220"
         style="fill:none;stroke:#000000;stroke-width:0.398;stroke-linecap:butt;stroke-linejoin:miter;stroke-miterlimit:10;stroke-dasharray:none;stroke-opacity:1"
         d="M 0,0 H 540" /></g><text
       id="text224"
       style="font-variant:normal;font-weight:normal;font-size:10.90909958px;font-family:CMBX10;-inkscape-font-specification:CMBX10;writing-mode:lr-tb;fill:#000000;fill-opacity:1;fill-rule:nonzero;stroke:none"
       transform="matrix(1,0,0,-1,46.8,376.176)"><tspan
         id="tspan222"
         y="0"
         x="0 4.7574587 11.727283 16.67565 21.554199 25.038567 29.917116 36.88694 41.765488 52.216408 59.18623 66.156052 73.474968 79.225159 84.391708 87.876076 94.148804 103.50445 111.96991 112.23173 117.98192 123.55756 130.52737 134.01175 139.58739 150.0383 154.91685 159.67432 166.64413 175.37141 180.24997 187.91252 197.5638 204.53363 208.01799 214.30054 220.05074 225.21729 230.16565 233.65001 238.17947 248.97839 255.25113 263.26276 270.80859 274.29297 279.24133 286.56024 292.83298">InstitutoSuperiorT´ecnico(IST),UniversityofLisbon</tspan></text>
<text
       id="text228"
       style="font-variant:normal;font-weight:normal;font-size:10.90909958px;font-family:CMR10;-inkscape-font-specification:CMR10;writing-mode:lr-tb;fill:#000000;fill-opacity:1;fill-rule:nonzero;stroke:none"
       transform="matrix(1,0,0,-1,460.297,376.176)"><tspan
         id="tspan226"
         y="0"
         x="0 5.4545498 10.9091 16.363649 25.45093 34.549118 40.00367 45.458221 50.912769 60.00005 64.242599 69.090607 74.848427 81.214973 86.062981 90.910988 95.153534 100.00154 106.06264">2022–2025(expected)</tspan></text>
<text
       id="text232"
       style="font-variant:normal;font-weight:normal;font-size:9.96259975px;font-family:CMTI10;-inkscape-font-specification:CMTI10;writing-mode:lr-tb;fill:#000000;fill-opacity:1;fill-rule:nonzero;stroke:none"
       transform="matrix(1,0,0,-1,46.8,362.627)"><tspan
         id="tspan230"
         y="0"
         x="0 7.0126743 12.104559 16.687355 21.77924 26.362036 28.908476 34.000362 38.201591 41.257118 48.897438 56.419201 60.493904 65.076698 68.759872 72.834579 80.983986 84.039513 93.2071 100.33633 105.42822 113.57563 118.66752 124.01444 127.32402 131.90681 139.66469 145.26567 149.84846 152.90399 157.48679 163.08777 167.16246 175.31187 180.40376 186.00473 194.66322 201.42085 207.02184 211.60463 214.66016 220.26112 224.33583 228.91862 233.11986 236.17538 241.77637 451.08063 457.32916 460.3847 464.4584 468.53311 473.625 479.22595 485.83813 492.59576 497.68765 501.88889 505.19846 510.54538 515.12817 520.22009">Bachelor’sDegreeinComputerScienceandEngineeringLisbon,Portugal</tspan></text>
<text
       id="text236"
       style="font-variant:normal;font-weight:normal;font-size:5.9776001px;font-family:CMSY6;-inkscape-font-specification:CMSY6;writing-mode:lr-tb;fill:#000000;fill-opacity:1;fill-rule:nonzero;stroke:none"
       transform="matrix(1,0,0,-1,61.526,349.957)"><tspan
         id="tspan234"
         y="0"
         x="0">•</tspan></text>
<text
       id="text242"
       style="font-variant:normal;font-weight:normal;font-size:9.96259975px;font-family:CMR10;-inkscape-font-specification:CMR10;writing-mode:lr-tb;fill:#000000;fill-opacity:1;fill-rule:nonzero;stroke:none"
       transform="matrix(1,0,0,-1,70.8,348.654)"><tspan
         id="tspan238"
         y="0"
         x="0 7.1949897 12.73021 16.632561 20.53491 23.302521 27.7299 33.265121 36.03273 41.567951 53.187332 60.382324 63.149933 67.024391 75.877151 84.185959 92.487801 98.017036 101.06161 106.04291 113.27277 116.31734 121.56763 125.99501 131.53023 138.78699 143.7683 152.62105 160.093 162.86061 167.84192 172.82321 176.72557 179.49318 183.36763 188.90285 197.20468 204.45148 215.52789 223.13834 228.11963 231.99408 240.29294 245.82816 249.70261 253.60495 259.14017 263.56757 267.44202 272.97723 276.87958 281.30698 285.23621 291.32138 298.7933 302.69568 306.57013 309.33774 314.87296 319.30032 322.06793 327.04926 333.14435 336.74185 341.99814 345.87259 350.29996 353.06757 355.83517 358.60278 363.58408 368.01147 373.54669 377.97406 382.40146 388.4866 396.09705 401.07834 404.95279 409.93408 415.4693 420.45062 424.37985 428.80725 432.73648 438.8316 446.58051 454.31946 460.2731 466.35828 475.491 480.47229 484.63068 490.16589 492.9335 498.46872">CurriculumwithamajorfocusonAlgorithms&amp;DataStructures,ArtifcialIntelligence,Databases,OOP,Machine</tspan><tspan
         id="tspan240"
         y="11.955"
         x="0 6.226625 10.654004 15.635304 19.537655 25.072876 27.840487 33.375706 38.357006 44.442162 51.914112 56.341492 59.936993 66.862991 71.844292 75.746643 81.004906 84.934151 91.01931 98.214302 103.1956 111.49744 117.03265 119.80026 122.56788 126.99525 130.8976 134.82686 140.91202 145.89331 151.42853 160.29126 167.90169 170.6693 174.59856 178.47301 182.37535 185.14296 190.67819 196.21341 200.08786 204.51524 213.36801 218.90323 224.16148 228.09074 231.96519 236.39258 244.69441 248.62366">Learning,Networks,Compilers,andDistributedSystems.</tspan></text>
<text
       id="text246"
       style="font-variant:normal;font-weight:normal;font-size:5.9776001px;font-family:CMSY6;-inkscape-font-specification:CMSY6;writing-mode:lr-tb;fill:#000000;fill-opacity:1;fill-rule:nonzero;stroke:none"
       transform="matrix(1,0,0,-1,61.526,323.817)"><tspan
         id="tspan244"
         y="0"
         x="0">•</tspan></text>
<text
       id="text250"
       style="font-variant:normal;font-weight:normal;font-size:9.96259975px;font-family:CMR10;-inkscape-font-specification:CMR10;writing-mode:lr-tb;fill:#000000;fill-opacity:1;fill-rule:nonzero;stroke:none"
       transform="matrix(1,0,0,-1,70.8,322.752)"><tspan
         id="tspan248"
         y="0"
         x="0 6.226625 11.207925 16.743145 21.724445 27.259666 32.240967 37.222267 41.649647 45.578896 52.769901 57.889679 62.60199 67.302345 72.283646 78.368797 85.149345 90.407608 94.282059 99.817284 104.79858 110.3338 116.42892 123.62391 129.70906 136.90405 144.65297 152.40187 158.48703 163.60681 168.30916 173.01949 178.00078 183.536 187.96338 191.86572 194.63333 200.16856 204.04301 210.12817 217.46164 222.99686 226.92612 230.80057 236.88573">Languages:Java,Python,C,C++,JavaScript,Rust,R</tspan></text>
<text
       id="text254"
       style="font-variant:normal;font-weight:normal;font-size:11.9552002px;font-family:CMCSC10;-inkscape-font-specification:CMCSC10;writing-mode:lr-tb;fill:#000000;fill-opacity:1;fill-rule:nonzero;stroke:none"
       transform="matrix(1,0,0,-1,36,284.893)"><tspan
         id="tspan252"
         y="0"
         x="0 8.8671722 15.803579 23.402304 28.476091 35.144703 42.211422 49.278137">Projects</tspan></text>
<g
       transform="translate(36,280.509)"
       id="g256"><path
         id="path258"
         style="fill:none;stroke:#000000;stroke-width:0.398;stroke-linecap:butt;stroke-linejoin:miter;stroke-miterlimit:10;stroke-dasharray:none;stroke-opacity:1"
         d="M 0,0 H 540" /></g><text
       id="text262"
       style="font-variant:normal;font-weight:normal;font-size:9.96259975px;font-family:CMBX10;-inkscape-font-specification:CMBX10;writing-mode:lr-tb;fill:#000000;fill-opacity:1;fill-rule:nonzero;stroke:none"
       transform="matrix(1,0,0,-1,46.8,255.041)"><tspan
         id="tspan260"
         y="0"
         x="0 6.3651052 12.73021 17.448498 22.699783 28.268877 34.633984 39.153019 45.518124 50.769409 56.020695 64.291649 75.167816 80.736908 87.102013 90.284073 96.649178 103.01428 106.19633 111.76543 116.2207 119.40276 125.13125 135.32199 142.33566 148.38297 154.11147">SpreadsheetManipulationTool</tspan></text>
<text
       id="text266"
       style="font-variant:normal;font-weight:normal;font-size:9.96259975px;font-family:CMTI10;-inkscape-font-specification:CMTI10;writing-mode:lr-tb;fill:#000000;fill-opacity:1;fill-rule:nonzero;stroke:none"
       transform="matrix(1,0,0,-1,210.734,255.041)"><tspan
         id="tspan264"
         y="0"
         x="0 5.2303648 10.322249 14.905046">Java</tspan></text>
<text
       id="text270"
       style="font-variant:normal;font-weight:normal;font-size:10.90909958px;font-family:CMR10;-inkscape-font-specification:CMR10;writing-mode:lr-tb;fill:#000000;fill-opacity:1;fill-rule:nonzero;stroke:none"
       transform="matrix(1,0,0,-1,522.388,255.041)"><tspan
         id="tspan268"
         y="0"
         x="0 8.1818247 14.242921 18.516016 26.390203 31.844753 37.299305 42.753853">Apr.2024</tspan></text>
<text
       id="text274"
       style="font-variant:normal;font-weight:normal;font-size:5.9776001px;font-family:CMSY6;-inkscape-font-specification:CMSY6;writing-mode:lr-tb;fill:#000000;fill-opacity:1;fill-rule:nonzero;stroke:none"
       transform="matrix(1,0,0,-1,61.526,242.378)"><tspan
         id="tspan272"
         y="0"
         x="0">•</tspan></text>
<text
       id="text280"
       style="font-variant:normal;font-weight:normal;font-size:9.96259975px;font-family:CMR10;-inkscape-font-specification:CMR10;writing-mode:lr-tb;fill:#000000;fill-opacity:1;fill-rule:nonzero;stroke:none"
       transform="matrix(1,0,0,-1,70.8,241.076)"><tspan
         id="tspan276"
         y="0"
         x="0 7.6104302 12.037809 17.017117 21.444496 24.212107 29.193407 35.00758 39.434959 48.287727 56.596535 61.716316 66.418663 71.119019 76.100319 79.420853 84.95607 89.93737 93.866623 98.293999 107.15673 111.08598 116.6212 120.52355 124.95093 129.93224 135.46745 139.3967 144.93192 149.3593 153.78668 160.97868 164.85313 170.11339 175.09468 181.17984 188.37483 191.14244 195.01689 203.86966 209.40489 214.66315 220.19836 225.17967 233.48151 236.24911 244.004 248.43138 252.85876 255.62637 261.71152 265.61386 270.04126 273.08582 277.51321 281.41556 285.84293 291.37814 295.80554 298.57315 304.10837 312.4072 317.38852 322.92374 331.78647 336.76776 342.30298 347.00333 351.98465 357.51987 361.94724 366.3746 375.22739 378.27194 383.25327 387.15561 395.18845 400.72366 403.49127 411.79013 415.71936 421.25461 426.78983 432.60397 437.5853 441.48764 445.36209 451.44724 455.34961 459.77698 465.31219 468.0798 470.84741 475.27481 480.2561 484.13055 486.89816 492.43338">DevelopedaJava-basedspreadsheettoolwithdynamiccellreferencingandadvancedformulasupport,replicating</tspan><tspan
         id="tspan278"
         y="11.955"
         x="0 4.4273796 9.408679 13.311029 21.055956 27.8365 33.094761 37.522141 41.94952 48.04464 51.089211 56.624428 62.159649 66.587029 70.461487 73.229095 78.210396 83.745613 88.726913 91.494522 94.262138 98.136589 100.89424 105.33158 112.57838 115.62295 120.60425 127.82414 132.25153 137.23282 145.53465 151.06987 153.83749 158.26486 166.85063 172.38585 177.36716 181.24161 189.54045 194.52176 200.05698 205.03828 207.80589 213.06415 216.99339 219.761 223.69026">coreExcelfunctionalitiesforcomplexdataanalysis.</tspan></text>
<text
       id="text284"
       style="font-variant:normal;font-weight:normal;font-size:5.9776001px;font-family:CMSY6;-inkscape-font-specification:CMSY6;writing-mode:lr-tb;fill:#000000;fill-opacity:1;fill-rule:nonzero;stroke:none"
       transform="matrix(1,0,0,-1,61.526,216.238)"><tspan
         id="tspan282"
         y="0"
         x="0">•</tspan></text>
<text
       id="text290"
       style="font-variant:normal;font-weight:normal;font-size:9.96259975px;font-family:CMR10;-inkscape-font-specification:CMR10;writing-mode:lr-tb;fill:#000000;fill-opacity:1;fill-rule:nonzero;stroke:none"
       transform="matrix(1,0,0,-1,70.8,215.173)"><tspan
         id="tspan286"
         y="0"
         x="0 6.7805457 12.315766 17.297066 20.064676 25.599897 30.027277 34.454655 38.357006 42.784386 51.637154 56.616459 61.043839 69.629608 74.056984 79.038284 87.340118 93.154297 98.135597 103.67081 108.0982 113.35446 117.22892 124.47572 127.24332 130.01094 134.99023 142.74513 146.61958 152.1548 159.89973 165.43495 170.41624 174.3186 178.24785 181.01546 186.55067 194.84953 199.2769 204.81213 209.79343 212.56104 218.09625 225.85115 230.83244 236.36766 245.22043 248.265 253.24631 257.14865 265.17154 270.70676 273.47437 281.77322 287.30844 291.21078 296.47104 300.89841 305.32581 309.25504 313.1843 318.16559 322.06793 328.16306 333.68832 338.12567 346.42749 351.40878 356.94403 360.87326 364.74771 368.65009 373.63138 377.50583 380.27344 385.79871 394.10751 398.53488 403.79315 409.60733 414.0347 417.93704 421.81149 424.5791 428.50836 436.2533 439.0209 447.87366 452.99344 457.6958 462.4061 467.38742 473.47256 479.00778 483.98907 487.86356">Engineeredkeycomponentsliketheparsingengineandformulaprocessor,demonstratingexpertiseinJava,data</tspan><tspan
         id="tspan288"
         y="11.955"
         x="0 3.9292495 7.8037047 11.706055 17.241276 21.668655 25.54311 31.078331 34.980682 39.408062 43.337311 49.422466 54.403767 59.938988 68.801712 73.783012 76.550629 81.531929 86.513229 90.415573 93.173225 97.047676 102.5829 114.21224 119.19354 124.72876 128.60323 131.37083 139.67267 142.44028 146.86766 151.84895 155.7234 158.49101 163.47232 169.00754">structures,andalgorithmoptimization.</tspan></text>
<text
       id="text294"
       style="font-variant:normal;font-weight:normal;font-size:9.96259975px;font-family:CMBX10;-inkscape-font-specification:CMBX10;writing-mode:lr-tb;fill:#000000;fill-opacity:1;fill-rule:nonzero;stroke:none"
       transform="matrix(1,0,0,-1,46.8,177.731)"><tspan
         id="tspan292"
         y="0"
         x="0 7.5127969 13.08189 17.537165 27.717945 38.594116 44.163208 50.528316 56.097408 61.825905 67.077187 76.624352 81.875633 87.921936 96.20285 102.56796 108.61426 113.13329 117.58857 122.83985">PathManagementSystem</tspan></text>
<text
       id="text298"
       style="font-variant:normal;font-weight:normal;font-size:9.96259975px;font-family:CMTI10;-inkscape-font-specification:CMTI10;writing-mode:lr-tb;fill:#000000;fill-opacity:1;fill-rule:nonzero;stroke:none"
       transform="matrix(1,0,0,-1,185.827,177.731)"><tspan
         id="tspan296"
         y="0"
         x="0">C</tspan></text>
<text
       id="text302"
       style="font-variant:normal;font-weight:normal;font-size:10.90909958px;font-family:CMR10;-inkscape-font-specification:CMR10;writing-mode:lr-tb;fill:#000000;fill-opacity:1;fill-rule:nonzero;stroke:none"
       transform="matrix(1,0,0,-1,522.388,177.731)"><tspan
         id="tspan300"
         y="0"
         x="0 8.1818247 14.242921 18.516016 26.390203 31.844753 37.299305 42.753853">Apr.2024</tspan></text>
<text
       id="text306"
       style="font-variant:normal;font-weight:normal;font-size:5.9776001px;font-family:CMSY6;-inkscape-font-specification:CMSY6;writing-mode:lr-tb;fill:#000000;fill-opacity:1;fill-rule:nonzero;stroke:none"
       transform="matrix(1,0,0,-1,61.526,165.068)"><tspan
         id="tspan304"
         y="0"
         x="0">•</tspan></text>
<text
       id="text312"
       style="font-variant:normal;font-weight:normal;font-size:9.96259975px;font-family:CMR10;-inkscape-font-specification:CMR10;writing-mode:lr-tb;fill:#000000;fill-opacity:1;fill-rule:nonzero;stroke:none"
       transform="matrix(1,0,0,-1,70.8,163.766)"><tspan
         id="tspan308"
         y="0"
         x="0 7.1949897 11.097341 15.524719 20.50602 24.380474 28.807854 37.660622 45.969429 52.471024 57.45232 61.326778 70.179543 79.312256 84.293556 89.828781 94.810081 99.791382 104.21876 112.52059 116.94798 122.20424 129.4062 134.94142 140.19969 144.12894 148.00339 152.43077 164.05016 166.81776 175.67053 186.19302 193.38802 196.15562 200.03008 208.88284 212.81209 216.68655 221.66785 227.20306 230.52361 235.5049 241.04013 246.57535 249.89587 254.32326 259.30457 264.83978 270.375 274.80237 279.22977 283.10422 285.87183 290.85312 299.7059 303.63513 309.17035 314.7056 320.51974 325.50107 329.40341 333.27786 339.36301 343.79041 349.32562 354.30692 359.84213 362.60974 365.37735 370.91257 379.22137 383.64877 391.95059 396.37799 399.1456 403.57297 408.82922 416.02124 419.92358 424.90488 430.44012 434.31458 442.06946 446.49683 450.39917 454.82657 459.80786 463.68231 466.44992 471.43121 476.96646">CreatedaPathManagementSysteminCwithstop-and-connectionsupport,enablingefcientroutecreation,</tspan><tspan
         id="tspan310"
         y="11.955"
         x="0 8.3018341 13.562087 19.097307 21.864918 27.400139 31.827518 36.808819 40.683273 43.450882 48.432182 53.967403 60.052559 65.033859 70.569084 79.421844 87.723679 92.704979 98.240204 103.2215 108.2028 112.63018 120.93201 125.3594 130.62563 137.81763 140.8622 145.84349 153.0634 158.04469 163.57991 167.45438 170.22198 178.52382 181.29143 185.71881 190.14618 198.99895 202.8734 206.77576 211.75705 217.29228 221.22153 227.03571 232.017 235.91934 239.79381 244.7751 248.64957 251.41718 256.39847 265.25125 270.78647 273.55408 278.53537 284.07059 289.6058 292.37341 297.90863 306.21744 311.75266 315.68192 318.44952 323.98474 332.2836 337.81882 342.80011 346.67456 354.97342 358.90268 362.77713 366.67947 372.21469 376.64206 380.51654 386.05176 389.9541 394.38147 401.62827 406.60956 412.14481 421.00751 425.98883 428.75644 433.73773 438.71902 442.62137 445.38898 449.26346 454.79868 463.10049 467.02975">modifcation,andmanagementforoptimizedtransportationplanningusingdatastructuresandalgorithms.</tspan></text>
<text
       id="text316"
       style="font-variant:normal;font-weight:normal;font-size:11.9552002px;font-family:CMCSC10;-inkscape-font-specification:CMCSC10;writing-mode:lr-tb;fill:#000000;fill-opacity:1;fill-rule:nonzero;stroke:none"
       transform="matrix(1,0,0,-1,36,113.952)"><tspan
         id="tspan314"
         y="0"
         x="0 9.3979826 16.066593 23.133312 30.465437 37.797562 41.410423 48.477142 55.809265 66.464935 73.77076 81.369484 84.982346 91.11895 97.255554">TechnicalSkills</tspan></text>
<g
       transform="translate(36,109.568)"
       id="g318"><path
         id="path320"
         style="fill:none;stroke:#000000;stroke-width:0.398;stroke-linecap:butt;stroke-linejoin:miter;stroke-miterlimit:10;stroke-dasharray:none;stroke-opacity:1"
         d="M 0,0 H 540" /></g><text
       id="text324"
       style="font-variant:normal;font-weight:normal;font-size:9.96259975px;font-family:CMBX10;-inkscape-font-specification:CMBX10;writing-mode:lr-tb;fill:#000000;fill-opacity:1;fill-rule:nonzero;stroke:none"
       transform="matrix(1,0,0,-1,46.8,86.112)"><tspan
         id="tspan322"
         y="0"
         x="0 6.8911304 12.460224 18.825329 24.553823 30.918928 36.488022 42.216518 47.467804">Languages</tspan></text>
<text
       id="text328"
       style="font-variant:normal;font-weight:normal;font-size:9.96259975px;font-family:CMR10;-inkscape-font-specification:CMR10;writing-mode:lr-tb;fill:#000000;fill-opacity:1;fill-rule:nonzero;stroke:none"
       transform="matrix(1,0,0,-1,98.786,86.112)"><tspan
         id="tspan326"
         y="0"
         x="0 7.1910048 12.310785 17.023094 21.72345 26.70475 32.789906 39.57045 44.828712 48.703167 54.238388 59.219688 64.754906 70.850029 78.045013 84.130173 91.325165 99.074074 106.82298 112.90814 120.10313 128.40497 134.50008 140.03531 147.78421 154.01083 160.09599 165.21577 169.91812 174.62843 179.60974 185.13499 189.57234 193.46472 196.23233 201.76756 205.64201 211.73714 218.65317 223.91142 229.7256 234.15298 239.6882 244.11559 248.01793 250.78554 256.32077 260.19522 266.28036 273.75232 280.94733 290.08002 296.30664 301.28796 308.48294 314.01816">:Java,Python,C,C++,C#,SQL,JavaScript,TypeScript,HTML/CSS</tspan></text>
<text
       id="text332"
       style="font-variant:normal;font-weight:normal;font-size:9.96259975px;font-family:CMBX10;-inkscape-font-specification:CMBX10;writing-mode:lr-tb;fill:#000000;fill-opacity:1;fill-rule:nonzero;stroke:none"
       transform="matrix(1,0,0,-1,46.8,74.157)"><tspan
         id="tspan330"
         y="0"
         x="0 6.2525277 10.970815 16.539909 26.087069 31.338354 39.294487 45.022984 49.741268 55.787571">Frameworks</tspan></text>
<text
       id="text336"
       style="font-variant:normal;font-weight:normal;font-size:9.96259975px;font-family:CMR10;-inkscape-font-specification:CMR10;writing-mode:lr-tb;fill:#000000;fill-opacity:1;fill-rule:nonzero;stroke:none"
       transform="matrix(1,0,0,-1,107.109,74.157)"><tspan
         id="tspan334"
         y="0"
         x="0 7.1910048 14.662954 19.090334 24.348595 28.223049 30.99066 34.035229 37.964481 44.059597 51.39307 55.820446 60.801746 65.229126 69.103584 71.871193 74.915764 78.845009 84.930168 91.298264 96.279564 99.047173 101.81478 109.00977 111.77738 117.31261 126.16537 133.36037 138.89558 144.4308 150.51596 156.19264 161.17395 165.1032 168.97765 176.4496 183.23015">:Next.js,React.js,TailwindCSS,FastAPI</tspan></text>
<text
       id="text340"
       style="font-variant:normal;font-weight:normal;font-size:9.96259975px;font-family:CMBX10;-inkscape-font-specification:CMBX10;writing-mode:lr-tb;fill:#000000;fill-opacity:1;fill-rule:nonzero;stroke:none"
       transform="matrix(1,0,0,-1,46.8,62.202)"><tspan
         id="tspan338"
         y="0"
         x="0 8.7860165 14.037303 19.764803 25.016088 28.198143 33.92664 40.610546 45.861832 54.395798 61.41943 67.456764 73.185257 76.377274">DeveloperTools</tspan></text>
<text
       id="text344"
       style="font-variant:normal;font-weight:normal;font-size:9.96259975px;font-family:CMR10;-inkscape-font-specification:CMR10;writing-mode:lr-tb;fill:#000000;fill-opacity:1;fill-rule:nonzero;stroke:none"
       transform="matrix(1,0,0,-1,127.692,62.202)"><tspan
         id="tspan342"
         y="0"
         x="0 7.1910048 15.008657 17.776268 21.650723 27.74584 35.35627 40.60656 44.76495 49.744259 54.171638 58.073986 64.159142 71.631096 80.49382 87.688812 92.939102 98.474327 102.9017 108.99682 112.59431 117.85059 121.72504 126.15242 128.92003 131.68764 134.45525 139.57503 145.66019 152.16377 154.93138 159.91267 168.21452">:Git,Docker,VSCode,IntelliJ,Figma</tspan></text>
<text
       id="text348"
       style="font-variant:normal;font-weight:normal;font-size:9.96259975px;font-family:CMBX10;-inkscape-font-specification:CMBX10;writing-mode:lr-tb;fill:#000000;fill-opacity:1;fill-rule:nonzero;stroke:none"
       transform="matrix(1,0,0,-1,46.8,50.247)"><tspan
         id="tspan346"
         y="0"
         x="0 7.0136704 12.264956 17.038038 23.403143 29.76825 35.496742 38.678799 44.407291 50.135788 53.317844 58.56913">Technologies</tspan></text>
<text
       id="text352"
       style="font-variant:normal;font-weight:normal;font-size:9.96259975px;font-family:CMR10;-inkscape-font-specification:CMR10;writing-mode:lr-tb;fill:#000000;fill-opacity:1;fill-rule:nonzero;stroke:none"
       transform="matrix(1,0,0,-1,109.89,50.247)"><tspan
         id="tspan350"
         y="0"
         x="0 7.1910048 14.662954 19.923208 25.458427 29.885807 32.653419 35.697987 39.627239 45.722355 53.540009 60.320553 67.515541 70.836075 79.134926 86.606873 93.387421 96.984917 103.07007 110.54202 114.9694 120.50462 124.40697 132.16187 139.77229 144.19966 149.45793 157.20683 162.74207 166.67131 172.75647 181.88918 184.65678 189.08417 192.98653 197.96782 201.89706 206.87837 209.92294 217.11494 223.61653 228.32884 235.24489 239.67226 246.89215 253.94867">:Node.js,GPT-4API,AzureDevOps,MicrosoftPowerBI</tspan></text>
</g></svg>