<svg xmlns="http://www.w3.org/2000/svg" xmlns:xlink="http://www.w3.org/1999/xlink" version="1.1" width="612pt" height="792pt" viewBox="0 0 612 792">
<defs>
<clipPath id="clip_0">
<path transform="matrix(1,0,0,-1,0,792)" d="M.00000912 0H612V792H.00000912Z" fill-rule="evenodd"/>
</clipPath>
<clipPath id="clip_1">
<path transform="matrix(1,0,0,-1,0,792)" d="M.00000912 0H612V792H.00000912Z" fill-rule="evenodd"/>
</clipPath>
<clipPath id="clip_2">
<path transform="matrix(1,0,0,-1,0,792)" d="M.00000912 0H612V792H.00000912Z" fill-rule="evenodd"/>
</clipPath>
<clipPath id="clip_3">
<path transform="matrix(1,0,0,-1,0,792)" d="M.00000912 0H612V792H.00000912Z" fill-rule="evenodd"/>
</clipPath>
<clipPath id="clip_4">
<path transform="matrix(1,0,0,-1,0,792)" d="M.00000912 0H612V792H.00000912Z" fill-rule="evenodd"/>
</clipPath>
<clipPath id="clip_5">
<path transform="matrix(1,0,0,-1,0,792)" d="M.00000912 0H612V792H.00000912Z" fill-rule="evenodd"/>
</clipPath>
<clipPath id="clip_6">
<path transform="matrix(1,0,0,-1,0,792)" d="M.00000912 0H612V792H.00000912Z" fill-rule="evenodd"/>
</clipPath>
<clipPath id="clip_7">
<path transform="matrix(1,0,0,-1,0,792)" d="M.00000912 0H612V792H.00000912Z" fill-rule="evenodd"/>
</clipPath>
<clipPath id="clip_8">
<path transform="matrix(1,0,0,-1,0,792)" d="M.00000912 0H612V792H.00000912Z" fill-rule="evenodd"/>
</clipPath>
<clipPath id="clip_9">
<path transform="matrix(1,0,0,-1,0,792)" d="M.00000912 0H612V792H.00000912Z" fill-rule="evenodd"/>
</clipPath>
<clipPath id="clip_10">
<path transform="matrix(1,0,0,-1,0,792)" d="M.00000912 0H612V792H.00000912Z" fill-rule="evenodd"/>
</clipPath>
<clipPath id="clip_11">
<path transform="matrix(1,0,0,-1,0,792)" d="M.00000912 0H612V792H.00000912Z" fill-rule="evenodd"/>
</clipPath>
<clipPath id="clip_12">
<path transform="matrix(1,0,0,-1,0,792)" d="M.00000912 0H612V792H.00000912Z" fill-rule="evenodd"/>
</clipPath>
<clipPath id="clip_13">
<path transform="matrix(1,0,0,-1,0,792)" d="M.00000912 0H612V792H.00000912Z" fill-rule="evenodd"/>
</clipPath>
<clipPath id="clip_14">
<path transform="matrix(1,0,0,-1,0,792)" d="M.00000912 0H612V792H.00000912Z" fill-rule="evenodd"/>
</clipPath>
<clipPath id="clip_15">
<path transform="matrix(1,0,0,-1,0,792)" d="M.00000912 0H612V792H.00000912Z" fill-rule="evenodd"/>
</clipPath>
<clipPath id="clip_16">
<path transform="matrix(1,0,0,-1,0,792)" d="M.00000912 0H612V792H.00000912Z" fill-rule="evenodd"/>
</clipPath>
<clipPath id="clip_17">
<path transform="matrix(1,0,0,-1,0,792)" d="M.00000912 0H612V792H.00000912Z" fill-rule="evenodd"/>
</clipPath>
<clipPath id="clip_18">
<path transform="matrix(1,0,0,-1,0,792)" d="M.00000912 0H612V792H.00000912Z" fill-rule="evenodd"/>
</clipPath>
<clipPath id="clip_19">
<path transform="matrix(1,0,0,-1,0,792)" d="M.00000912 0H612V792H.00000912Z" fill-rule="evenodd"/>
</clipPath>
<clipPath id="clip_20">
<path transform="matrix(1,0,0,-1,0,792)" d="M.00000912 0H612V792H.00000912Z" fill-rule="evenodd"/>
</clipPath>
<clipPath id="clip_21">
<path transform="matrix(1,0,0,-1,0,792)" d="M.00000912 0H612V792H.00000912Z" fill-rule="evenodd"/>
</clipPath>
<clipPath id="clip_22">
<path transform="matrix(1,0,0,-1,0,792)" d="M.00000912 0H612V792H.00000912Z" fill-rule="evenodd"/>
</clipPath>
<clipPath id="clip_23">
<path transform="matrix(1,0,0,-1,0,792)" d="M.00000912 0H612V792H.00000912Z" fill-rule="evenodd"/>
</clipPath>
<clipPath id="clip_24">
<path transform="matrix(1,0,0,-1,0,792)" d="M.00000912 0H612V792H.00000912Z" fill-rule="evenodd"/>
</clipPath>
<clipPath id="clip_25">
<path transform="matrix(1,0,0,-1,0,792)" d="M.00000912 0H612V792H.00000912Z" fill-rule="evenodd"/>
</clipPath>
<clipPath id="clip_26">
<path transform="matrix(1,0,0,-1,0,792)" d="M.00000912 0H612V792H.00000912Z" fill-rule="evenodd"/>
</clipPath>
<clipPath id="clip_27">
<path transform="matrix(1,0,0,-1,0,792)" d="M.00000912 0H612V792H.00000912Z" fill-rule="evenodd"/>
</clipPath>
<clipPath id="clip_28">
<path transform="matrix(1,0,0,-1,0,792)" d="M.00000912 0H612V792H.00000912Z" fill-rule="evenodd"/>
</clipPath>
<clipPath id="clip_29">
<path transform="matrix(1,0,0,-1,0,792)" d="M.00000912 0H612V792H.00000912Z" fill-rule="evenodd"/>
</clipPath>
<clipPath id="clip_30">
<path transform="matrix(1,0,0,-1,0,792)" d="M.00000912 0H612V792H.00000912Z" fill-rule="evenodd"/>
</clipPath>
<clipPath id="clip_31">
<path transform="matrix(1,0,0,-1,0,792)" d="M.00000912 0H612V792H.00000912Z" fill-rule="evenodd"/>
</clipPath>
<clipPath id="clip_32">
<path transform="matrix(1,0,0,-1,0,792)" d="M.00000912 0H612V792H.00000912Z" fill-rule="evenodd"/>
</clipPath>
<clipPath id="clip_33">
<path transform="matrix(1,0,0,-1,0,792)" d="M.00000912 0H612V792H.00000912Z" fill-rule="evenodd"/>
</clipPath>
<clipPath id="clip_34">
<path transform="matrix(1,0,0,-1,0,792)" d="M.00000912 0H612V792H.00000912Z" fill-rule="evenodd"/>
</clipPath>
<clipPath id="clip_35">
<path transform="matrix(1,0,0,-1,0,792)" d="M.00000912 0H612V792H.00000912Z" fill-rule="evenodd"/>
</clipPath>
<clipPath id="clip_36">
<path transform="matrix(1,0,0,-1,0,792)" d="M.00000912 0H612V792H.00000912Z" fill-rule="evenodd"/>
</clipPath>
<clipPath id="clip_37">
<path transform="matrix(1,0,0,-1,0,792)" d="M.00000912 0H612V792H.00000912Z" fill-rule="evenodd"/>
</clipPath>
<clipPath id="clip_38">
<path transform="matrix(1,0,0,-1,0,792)" d="M.00000912 0H612V792H.00000912Z" fill-rule="evenodd"/>
</clipPath>
<clipPath id="clip_39">
<path transform="matrix(1,0,0,-1,0,792)" d="M.00000912 0H612V792H.00000912Z" fill-rule="evenodd"/>
</clipPath>
<clipPath id="clip_40">
<path transform="matrix(1,0,0,-1,0,792)" d="M.00000912 0H612V792H.00000912Z" fill-rule="evenodd"/>
</clipPath>
<clipPath id="clip_41">
<path transform="matrix(1,0,0,-1,0,792)" d="M.00000912 0H612V792H.00000912Z" fill-rule="evenodd"/>
</clipPath>
<clipPath id="clip_42">
<path transform="matrix(1,0,0,-1,0,792)" d="M.00000912 0H612V792H.00000912Z" fill-rule="evenodd"/>
</clipPath>
<clipPath id="clip_43">
<path transform="matrix(1,0,0,-1,0,792)" d="M.00000912 0H612V792H.00000912Z" fill-rule="evenodd"/>
</clipPath>
<clipPath id="clip_44">
<path transform="matrix(1,0,0,-1,0,792)" d="M.00000912 0H612V792H.00000912Z" fill-rule="evenodd"/>
</clipPath>
<clipPath id="clip_45">
<path transform="matrix(1,0,0,-1,0,792)" d="M.00000912 0H612V792H.00000912Z" fill-rule="evenodd"/>
</clipPath>
<clipPath id="clip_46">
<path transform="matrix(1,0,0,-1,0,792)" d="M.00000912 0H612V792H.00000912Z" fill-rule="evenodd"/>
</clipPath>
<clipPath id="clip_47">
<path transform="matrix(1,0,0,-1,0,792)" d="M.00000912 0H612V792H.00000912Z" fill-rule="evenodd"/>
</clipPath>
<clipPath id="clip_48">
<path transform="matrix(1,0,0,-1,0,792)" d="M.00000912 0H612V792H.00000912Z" fill-rule="evenodd"/>
</clipPath>
<clipPath id="clip_49">
<path transform="matrix(1,0,0,-1,0,792)" d="M.00000912 0H612V792H.00000912Z" fill-rule="evenodd"/>
</clipPath>
<clipPath id="clip_50">
<path transform="matrix(1,0,0,-1,0,792)" d="M.00000912 0H612V792H.00000912Z" fill-rule="evenodd"/>
</clipPath>
<clipPath id="clip_51">
<path transform="matrix(1,0,0,-1,0,792)" d="M.00000912 0H612V792H.00000912Z" fill-rule="evenodd"/>
</clipPath>
<clipPath id="clip_52">
<path transform="matrix(1,0,0,-1,0,792)" d="M.00000912 0H612V792H.00000912Z" fill-rule="evenodd"/>
</clipPath>
<clipPath id="clip_53">
<path transform="matrix(1,0,0,-1,0,792)" d="M.00000912 0H612V792H.00000912Z" fill-rule="evenodd"/>
</clipPath>
<clipPath id="clip_54">
<path transform="matrix(1,0,0,-1,0,792)" d="M.00000912 0H612V792H.00000912Z" fill-rule="evenodd"/>
</clipPath>
<clipPath id="clip_55">
<path transform="matrix(1,0,0,-1,0,792)" d="M.00000912 0H612V792H.00000912Z" fill-rule="evenodd"/>
</clipPath>
<clipPath id="clip_56">
<path transform="matrix(1,0,0,-1,0,792)" d="M.00000912 0H612V792H.00000912Z" fill-rule="evenodd"/>
</clipPath>
<clipPath id="clip_57">
<path transform="matrix(1,0,0,-1,0,792)" d="M.00000912 0H612V792H.00000912Z" fill-rule="evenodd"/>
</clipPath>
<clipPath id="clip_58">
<path transform="matrix(1,0,0,-1,0,792)" d="M.00000912 0H612V792H.00000912Z" fill-rule="evenodd"/>
</clipPath>
<clipPath id="clip_59">
<path transform="matrix(1,0,0,-1,0,792)" d="M.00000912 0H612V792H.00000912Z" fill-rule="evenodd"/>
</clipPath>
<clipPath id="clip_60">
<path transform="matrix(1,0,0,-1,0,792)" d="M.00000912 0H612V792H.00000912Z" fill-rule="evenodd"/>
</clipPath>
<clipPath id="clip_61">
<path transform="matrix(1,0,0,-1,0,792)" d="M.00000912 0H612V792H.00000912Z" fill-rule="evenodd"/>
</clipPath>
<clipPath id="clip_62">
<path transform="matrix(1,0,0,-1,0,792)" d="M.00000912 0H612V792H.00000912Z" fill-rule="evenodd"/>
</clipPath>
<clipPath id="clip_63">
<path transform="matrix(1,0,0,-1,0,792)" d="M.00000912 0H612V792H.00000912Z" fill-rule="evenodd"/>
</clipPath>
<clipPath id="clip_64">
<path transform="matrix(1,0,0,-1,0,792)" d="M.00000912 0H612V792H.00000912Z" fill-rule="evenodd"/>
</clipPath>
<clipPath id="clip_65">
<path transform="matrix(1,0,0,-1,0,792)" d="M.00000912 0H612V792H.00000912Z" fill-rule="evenodd"/>
</clipPath>
<clipPath id="clip_66">
<path transform="matrix(1,0,0,-1,0,792)" d="M.00000912 0H612V792H.00000912Z" fill-rule="evenodd"/>
</clipPath>
<clipPath id="clip_67">
<path transform="matrix(1,0,0,-1,0,792)" d="M.00000912 0H612V792H.00000912Z" fill-rule="evenodd"/>
</clipPath>
<clipPath id="clip_68">
<path transform="matrix(1,0,0,-1,0,792)" d="M.00000912 0H612V792H.00000912Z" fill-rule="evenodd"/>
</clipPath>
<clipPath id="clip_69">
<path transform="matrix(1,0,0,-1,0,792)" d="M.00000912 0H612V792H.00000912Z" fill-rule="evenodd"/>
</clipPath>
<clipPath id="clip_70">
<path transform="matrix(1,0,0,-1,0,792)" d="M.00000912 0H612V792H.00000912Z" fill-rule="evenodd"/>
</clipPath>
<clipPath id="clip_71">
<path transform="matrix(1,0,0,-1,0,792)" d="M.00000912 0H612V792H.00000912Z" fill-rule="evenodd"/>
</clipPath>
<clipPath id="clip_72">
<path transform="matrix(1,0,0,-1,0,792)" d="M.00000912 0H612V792H.00000912Z" fill-rule="evenodd"/>
</clipPath>
<clipPath id="clip_73">
<path transform="matrix(1,0,0,-1,0,792)" d="M.00000912 0H612V792H.00000912Z" fill-rule="evenodd"/>
</clipPath>
<clipPath id="clip_74">
<path transform="matrix(1,0,0,-1,0,792)" d="M.00000912 0H612V792H.00000912Z" fill-rule="evenodd"/>
</clipPath>
<clipPath id="clip_75">
<path transform="matrix(1,0,0,-1,0,792)" d="M.00000912 0H612V792H.00000912Z" fill-rule="evenodd"/>
</clipPath>
<clipPath id="clip_76">
<path transform="matrix(1,0,0,-1,0,792)" d="M.00000912 0H612V792H.00000912Z" fill-rule="evenodd"/>
</clipPath>
<clipPath id="clip_77">
<path transform="matrix(1,0,0,-1,0,792)" d="M.00000912 0H612V792H.00000912Z" fill-rule="evenodd"/>
</clipPath>
<clipPath id="clip_78">
<path transform="matrix(1,0,0,-1,0,792)" d="M.00000912 0H612V792H.00000912Z" fill-rule="evenodd"/>
</clipPath>
<clipPath id="clip_79">
<path transform="matrix(1,0,0,-1,0,792)" d="M.00000912 0H612V792H.00000912Z" fill-rule="evenodd"/>
</clipPath>
<clipPath id="clip_80">
<path transform="matrix(1,0,0,-1,0,792)" d="M.00000912 0H612V792H.00000912Z" fill-rule="evenodd"/>
</clipPath>
<clipPath id="clip_81">
<path transform="matrix(1,0,0,-1,0,792)" d="M.00000912 0H612V792H.00000912Z" fill-rule="evenodd"/>
</clipPath>
<clipPath id="clip_82">
<path transform="matrix(1,0,0,-1,0,792)" d="M.00000912 0H612V792H.00000912Z" fill-rule="evenodd"/>
</clipPath>
<clipPath id="clip_83">
<path transform="matrix(1,0,0,-1,0,792)" d="M.00000912 0H612V792H.00000912Z" fill-rule="evenodd"/>
</clipPath>
<clipPath id="clip_84">
<path transform="matrix(1,0,0,-1,0,792)" d="M.00000912 0H612V792H.00000912Z" fill-rule="evenodd"/>
</clipPath>
<clipPath id="clip_85">
<path transform="matrix(1,0,0,-1,0,792)" d="M.00000912 0H612V792H.00000912Z" fill-rule="evenodd"/>
</clipPath>
<clipPath id="clip_86">
<path transform="matrix(1,0,0,-1,0,792)" d="M.00000912 0H612V792H.00000912Z" fill-rule="evenodd"/>
</clipPath>
<clipPath id="clip_87">
<path transform="matrix(1,0,0,-1,0,792)" d="M.00000912 0H612V792H.00000912Z" fill-rule="evenodd"/>
</clipPath>
<clipPath id="clip_88">
<path transform="matrix(1,0,0,-1,0,792)" d="M.00000912 0H612V792H.00000912Z" fill-rule="evenodd"/>
</clipPath>
<clipPath id="clip_89">
<path transform="matrix(1,0,0,-1,0,792)" d="M.00000912 0H612V792H.00000912Z" fill-rule="evenodd"/>
</clipPath>
<clipPath id="clip_90">
<path transform="matrix(1,0,0,-1,0,792)" d="M.00000912 0H612V792H.00000912Z" fill-rule="evenodd"/>
</clipPath>
<clipPath id="clip_91">
<path transform="matrix(1,0,0,-1,0,792)" d="M.00000912 0H612V792H.00000912Z" fill-rule="evenodd"/>
</clipPath>
<clipPath id="clip_92">
<path transform="matrix(1,0,0,-1,0,792)" d="M.00000912 0H612V792H.00000912Z" fill-rule="evenodd"/>
</clipPath>
<clipPath id="clip_93">
<path transform="matrix(1,0,0,-1,0,792)" d="M.00000912 0H612V792H.00000912Z" fill-rule="evenodd"/>
</clipPath>
<clipPath id="clip_94">
<path transform="matrix(1,0,0,-1,0,792)" d="M.00000912 0H612V792H.00000912Z" fill-rule="evenodd"/>
</clipPath>
<clipPath id="clip_95">
<path transform="matrix(1,0,0,-1,0,792)" d="M.00000912 0H612V792H.00000912Z" fill-rule="evenodd"/>
</clipPath>
<clipPath id="clip_96">
<path transform="matrix(1,0,0,-1,0,792)" d="M.00000912 0H612V792H.00000912Z" fill-rule="evenodd"/>
</clipPath>
<clipPath id="clip_97">
<path transform="matrix(1,0,0,-1,0,792)" d="M.00000912 0H612V792H.00000912Z" fill-rule="evenodd"/>
</clipPath>
<clipPath id="clip_98">
<path transform="matrix(1,0,0,-1,0,792)" d="M.00000912 0H612V792H.00000912Z" fill-rule="evenodd"/>
</clipPath>
<clipPath id="clip_99">
<path transform="matrix(1,0,0,-1,0,792)" d="M.00000912 0H612V792H.00000912Z" fill-rule="evenodd"/>
</clipPath>
<clipPath id="clip_100">
<path transform="matrix(1,0,0,-1,0,792)" d="M.00000912 0H612V792H.00000912Z" fill-rule="evenodd"/>
</clipPath>
<clipPath id="clip_101">
<path transform="matrix(1,0,0,-1,0,792)" d="M.00000912 0H612V792H.00000912Z" fill-rule="evenodd"/>
</clipPath>
<clipPath id="clip_102">
<path transform="matrix(1,0,0,-1,0,792)" d="M.00000912 0H612V792H.00000912Z" fill-rule="evenodd"/>
</clipPath>
<clipPath id="clip_103">
<path transform="matrix(1,0,0,-1,0,792)" d="M.00000912 0H612V792H.00000912Z" fill-rule="evenodd"/>
</clipPath>
<clipPath id="clip_104">
<path transform="matrix(1,0,0,-1,0,792)" d="M.00000912 0H612V792H.00000912Z" fill-rule="evenodd"/>
</clipPath>
<clipPath id="clip_105">
<path transform="matrix(1,0,0,-1,0,792)" d="M.00000912 0H612V792H.00000912Z" fill-rule="evenodd"/>
</clipPath>
<clipPath id="clip_106">
<path transform="matrix(1,0,0,-1,0,792)" d="M.00000912 0H612V792H.00000912Z" fill-rule="evenodd"/>
</clipPath>
<clipPath id="clip_107">
<path transform="matrix(1,0,0,-1,0,792)" d="M.00000912 0H612V792H.00000912Z" fill-rule="evenodd"/>
</clipPath>
<clipPath id="clip_108">
<path transform="matrix(1,0,0,-1,0,792)" d="M.00000912 0H612V792H.00000912Z" fill-rule="evenodd"/>
</clipPath>
<clipPath id="clip_109">
<path transform="matrix(1,0,0,-1,0,792)" d="M.00000912 0H612V792H.00000912Z" fill-rule="evenodd"/>
</clipPath>
<clipPath id="clip_110">
<path transform="matrix(1,0,0,-1,0,792)" d="M.00000912 0H612V792H.00000912Z" fill-rule="evenodd"/>
</clipPath>
<clipPath id="clip_111">
<path transform="matrix(1,0,0,-1,0,792)" d="M.00000912 0H612V792H.00000912Z" fill-rule="evenodd"/>
</clipPath>
<clipPath id="clip_112">
<path transform="matrix(1,0,0,-1,0,792)" d="M.00000912 0H612V792H.00000912Z" fill-rule="evenodd"/>
</clipPath>
<clipPath id="clip_113">
<path transform="matrix(1,0,0,-1,0,792)" d="M.00000912 0H612V792H.00000912Z" fill-rule="evenodd"/>
</clipPath>
<clipPath id="clip_114">
<path transform="matrix(1,0,0,-1,0,792)" d="M.00000912 0H612V792H.00000912Z" fill-rule="evenodd"/>
</clipPath>
<clipPath id="clip_115">
<path transform="matrix(1,0,0,-1,0,792)" d="M.00000912 0H612V792H.00000912Z" fill-rule="evenodd"/>
</clipPath>
<clipPath id="clip_116">
<path transform="matrix(1,0,0,-1,0,792)" d="M.00000912 0H612V792H.00000912Z" fill-rule="evenodd"/>
</clipPath>
<clipPath id="clip_117">
<path transform="matrix(1,0,0,-1,0,792)" d="M.00000912 0H612V792H.00000912Z" fill-rule="evenodd"/>
</clipPath>
<clipPath id="clip_118">
<path transform="matrix(1,0,0,-1,0,792)" d="M.00000912 0H612V792H.00000912Z" fill-rule="evenodd"/>
</clipPath>
<clipPath id="clip_119">
<path transform="matrix(1,0,0,-1,0,792)" d="M.00000912 0H612V792H.00000912Z" fill-rule="evenodd"/>
</clipPath>
<clipPath id="clip_120">
<path transform="matrix(1,0,0,-1,0,792)" d="M.00000912 0H612V792H.00000912Z" fill-rule="evenodd"/>
</clipPath>
<clipPath id="clip_121">
<path transform="matrix(1,0,0,-1,0,792)" d="M.00000912 0H612V792H.00000912Z" fill-rule="evenodd"/>
</clipPath>
<clipPath id="clip_122">
<path transform="matrix(1,0,0,-1,0,792)" d="M.00000912 0H612V792H.00000912Z" fill-rule="evenodd"/>
</clipPath>
<clipPath id="clip_123">
<path transform="matrix(1,0,0,-1,0,792)" d="M.00000912 0H612V792H.00000912Z" fill-rule="evenodd"/>
</clipPath>
<clipPath id="clip_124">
<path transform="matrix(1,0,0,-1,0,792)" d="M.00000912 0H612V792H.00000912Z" fill-rule="evenodd"/>
</clipPath>
<clipPath id="clip_125">
<path transform="matrix(1,0,0,-1,0,792)" d="M.00000912 0H612V792H.00000912Z" fill-rule="evenodd"/>
</clipPath>
<clipPath id="clip_126">
<path transform="matrix(1,0,0,-1,0,792)" d="M.00000912 0H612V792H.00000912Z" fill-rule="evenodd"/>
</clipPath>
<clipPath id="clip_127">
<path transform="matrix(1,0,0,-1,0,792)" d="M.00000912 0H612V792H.00000912Z" fill-rule="evenodd"/>
</clipPath>
<clipPath id="clip_128">
<path transform="matrix(1,0,0,-1,0,792)" d="M.00000912 0H612V792H.00000912Z" fill-rule="evenodd"/>
</clipPath>
<clipPath id="clip_129">
<path transform="matrix(1,0,0,-1,0,792)" d="M.00000912 0H612V792H.00000912Z" fill-rule="evenodd"/>
</clipPath>
<clipPath id="clip_130">
<path transform="matrix(1,0,0,-1,0,792)" d="M.00000912 0H612V792H.00000912Z" fill-rule="evenodd"/>
</clipPath>
<clipPath id="clip_131">
<path transform="matrix(1,0,0,-1,0,792)" d="M.00000912 0H612V792H.00000912Z" fill-rule="evenodd"/>
</clipPath>
<clipPath id="clip_132">
<path transform="matrix(1,0,0,-1,0,792)" d="M.00000912 0H612V792H.00000912Z" fill-rule="evenodd"/>
</clipPath>
<clipPath id="clip_133">
<path transform="matrix(1,0,0,-1,0,792)" d="M.00000912 0H612V792H.00000912Z" fill-rule="evenodd"/>
</clipPath>
<clipPath id="clip_134">
<path transform="matrix(1,0,0,-1,0,792)" d="M.00000912 0H612V792H.00000912Z" fill-rule="evenodd"/>
</clipPath>
<clipPath id="clip_135">
<path transform="matrix(1,0,0,-1,0,792)" d="M.00000912 0H612V792H.00000912Z" fill-rule="evenodd"/>
</clipPath>
<clipPath id="clip_136">
<path transform="matrix(1,0,0,-1,0,792)" d="M.00000912 0H612V792H.00000912Z" fill-rule="evenodd"/>
</clipPath>
<clipPath id="clip_137">
<path transform="matrix(1,0,0,-1,0,792)" d="M.00000912 0H612V792H.00000912Z" fill-rule="evenodd"/>
</clipPath>
<clipPath id="clip_138">
<path transform="matrix(1,0,0,-1,0,792)" d="M.00000912 0H612V792H.00000912Z" fill-rule="evenodd"/>
</clipPath>
<clipPath id="clip_139">
<path transform="matrix(1,0,0,-1,0,792)" d="M.00000912 0H612V792H.00000912Z" fill-rule="evenodd"/>
</clipPath>
<clipPath id="clip_140">
<path transform="matrix(1,0,0,-1,0,792)" d="M.00000912 0H612V792H.00000912Z" fill-rule="evenodd"/>
</clipPath>
<clipPath id="clip_141">
<path transform="matrix(1,0,0,-1,0,792)" d="M.00000912 0H612V792H.00000912Z" fill-rule="evenodd"/>
</clipPath>
<clipPath id="clip_142">
<path transform="matrix(1,0,0,-1,0,792)" d="M.00000912 0H612V792H.00000912Z" fill-rule="evenodd"/>
</clipPath>
<clipPath id="clip_143">
<path transform="matrix(1,0,0,-1,0,792)" d="M.00000912 0H612V792H.00000912Z" fill-rule="evenodd"/>
</clipPath>
<clipPath id="clip_144">
<path transform="matrix(1,0,0,-1,0,792)" d="M.00000912 0H612V792H.00000912Z" fill-rule="evenodd"/>
</clipPath>
<clipPath id="clip_145">
<path transform="matrix(1,0,0,-1,0,792)" d="M.00000912 0H612V792H.00000912Z" fill-rule="evenodd"/>
</clipPath>
<clipPath id="clip_146">
<path transform="matrix(1,0,0,-1,0,792)" d="M.00000912 0H612V792H.00000912Z" fill-rule="evenodd"/>
</clipPath>
<clipPath id="clip_147">
<path transform="matrix(1,0,0,-1,0,792)" d="M.00000912 0H612V792H.00000912Z" fill-rule="evenodd"/>
</clipPath>
<clipPath id="clip_148">
<path transform="matrix(1,0,0,-1,0,792)" d="M.00000912 0H612V792H.00000912Z" fill-rule="evenodd"/>
</clipPath>
<clipPath id="clip_149">
<path transform="matrix(1,0,0,-1,0,792)" d="M.00000912 0H612V792H.00000912Z" fill-rule="evenodd"/>
</clipPath>
<clipPath id="clip_150">
<path transform="matrix(1,0,0,-1,0,792)" d="M.00000912 0H612V792H.00000912Z" fill-rule="evenodd"/>
</clipPath>
<clipPath id="clip_151">
<path transform="matrix(1,0,0,-1,0,792)" d="M.00000912 0H612V792H.00000912Z" fill-rule="evenodd"/>
</clipPath>
<clipPath id="clip_152">
<path transform="matrix(1,0,0,-1,0,792)" d="M.00000912 0H612V792H.00000912Z" fill-rule="evenodd"/>
</clipPath>
<clipPath id="clip_153">
<path transform="matrix(1,0,0,-1,0,792)" d="M.00000912 0H612V792H.00000912Z" fill-rule="evenodd"/>
</clipPath>
<clipPath id="clip_154">
<path transform="matrix(1,0,0,-1,0,792)" d="M.00000912 0H612V792H.00000912Z" fill-rule="evenodd"/>
</clipPath>
<clipPath id="clip_155">
<path transform="matrix(1,0,0,-1,0,792)" d="M.00000912 0H612V792H.00000912Z" fill-rule="evenodd"/>
</clipPath>
<clipPath id="clip_156">
<path transform="matrix(1,0,0,-1,0,792)" d="M.00000912 0H612V792H.00000912Z" fill-rule="evenodd"/>
</clipPath>
<clipPath id="clip_157">
<path transform="matrix(1,0,0,-1,0,792)" d="M.00000912 0H612V792H.00000912Z" fill-rule="evenodd"/>
</clipPath>
<clipPath id="clip_158">
<path transform="matrix(1,0,0,-1,0,792)" d="M.00000912 0H612V792H.00000912Z" fill-rule="evenodd"/>
</clipPath>
<clipPath id="clip_159">
<path transform="matrix(1,0,0,-1,0,792)" d="M.00000912 0H612V792H.00000912Z" fill-rule="evenodd"/>
</clipPath>
<clipPath id="clip_160">
<path transform="matrix(1,0,0,-1,0,792)" d="M.00000912 0H612V792H.00000912Z" fill-rule="evenodd"/>
</clipPath>
<clipPath id="clip_161">
<path transform="matrix(1,0,0,-1,0,792)" d="M.00000912 0H612V792H.00000912Z" fill-rule="evenodd"/>
</clipPath>
<clipPath id="clip_162">
<path transform="matrix(1,0,0,-1,0,792)" d="M.00000912 0H612V792H.00000912Z" fill-rule="evenodd"/>
</clipPath>
<clipPath id="clip_163">
<path transform="matrix(1,0,0,-1,0,792)" d="M.00000912 0H612V792H.00000912Z" fill-rule="evenodd"/>
</clipPath>
<clipPath id="clip_164">
<path transform="matrix(1,0,0,-1,0,792)" d="M.00000912 0H612V792H.00000912Z" fill-rule="evenodd"/>
</clipPath>
<clipPath id="clip_165">
<path transform="matrix(1,0,0,-1,0,792)" d="M.00000912 0H612V792H.00000912Z" fill-rule="evenodd"/>
</clipPath>
<clipPath id="clip_166">
<path transform="matrix(1,0,0,-1,0,792)" d="M.00000912 0H612V792H.00000912Z" fill-rule="evenodd"/>
</clipPath>
<clipPath id="clip_167">
<path transform="matrix(1,0,0,-1,0,792)" d="M.00000912 0H612V792H.00000912Z" fill-rule="evenodd"/>
</clipPath>
<clipPath id="clip_168">
<path transform="matrix(1,0,0,-1,0,792)" d="M.00000912 0H612V792H.00000912Z" fill-rule="evenodd"/>
</clipPath>
<clipPath id="clip_169">
<path transform="matrix(1,0,0,-1,0,792)" d="M.00000912 0H612V792H.00000912Z" fill-rule="evenodd"/>
</clipPath>
<clipPath id="clip_170">
<path transform="matrix(1,0,0,-1,0,792)" d="M.00000912 0H612V792H.00000912Z" fill-rule="evenodd"/>
</clipPath>
<clipPath id="clip_171">
<path transform="matrix(1,0,0,-1,0,792)" d="M.00000912 0H612V792H.00000912Z" fill-rule="evenodd"/>
</clipPath>
<clipPath id="clip_172">
<path transform="matrix(1,0,0,-1,0,792)" d="M.00000912 0H612V792H.00000912Z" fill-rule="evenodd"/>
</clipPath>
<clipPath id="clip_173">
<path transform="matrix(1,0,0,-1,0,792)" d="M.00000912 0H612V792H.00000912Z" fill-rule="evenodd"/>
</clipPath>
<clipPath id="clip_174">
<path transform="matrix(1,0,0,-1,0,792)" d="M.00000912 0H612V792H.00000912Z" fill-rule="evenodd"/>
</clipPath>
<clipPath id="clip_175">
<path transform="matrix(1,0,0,-1,0,792)" d="M.00000912 0H612V792H.00000912Z" fill-rule="evenodd"/>
</clipPath>
<clipPath id="clip_176">
<path transform="matrix(1,0,0,-1,0,792)" d="M.00000912 0H612V792H.00000912Z" fill-rule="evenodd"/>
</clipPath>
<clipPath id="clip_177">
<path transform="matrix(1,0,0,-1,0,792)" d="M.00000912 0H612V792H.00000912Z" fill-rule="evenodd"/>
</clipPath>
<clipPath id="clip_178">
<path transform="matrix(1,0,0,-1,0,792)" d="M.00000912 0H612V792H.00000912Z" fill-rule="evenodd"/>
</clipPath>
<clipPath id="clip_179">
<path transform="matrix(1,0,0,-1,0,792)" d="M.00000912 0H612V792H.00000912Z" fill-rule="evenodd"/>
</clipPath>
<clipPath id="clip_180">
<path transform="matrix(1,0,0,-1,0,792)" d="M.00000912 0H612V792H.00000912Z" fill-rule="evenodd"/>
</clipPath>
<clipPath id="clip_181">
<path transform="matrix(1,0,0,-1,0,792)" d="M.00000912 0H612V792H.00000912Z" fill-rule="evenodd"/>
</clipPath>
<clipPath id="clip_182">
<path transform="matrix(1,0,0,-1,0,792)" d="M.00000912 0H612V792H.00000912Z" fill-rule="evenodd"/>
</clipPath>
<clipPath id="clip_183">
<path transform="matrix(1,0,0,-1,0,792)" d="M.00000912 0H612V792H.00000912Z" fill-rule="evenodd"/>
</clipPath>
<clipPath id="clip_184">
<path transform="matrix(1,0,0,-1,0,792)" d="M.00000912 0H612V792H.00000912Z" fill-rule="evenodd"/>
</clipPath>
<clipPath id="clip_185">
<path transform="matrix(1,0,0,-1,0,792)" d="M.00000912 0H612V792H.00000912Z" fill-rule="evenodd"/>
</clipPath>
<clipPath id="clip_186">
<path transform="matrix(1,0,0,-1,0,792)" d="M.00000912 0H612V792H.00000912Z" fill-rule="evenodd"/>
</clipPath>
<clipPath id="clip_187">
<path transform="matrix(1,0,0,-1,0,792)" d="M.00000912 0H612V792H.00000912Z" fill-rule="evenodd"/>
</clipPath>
<clipPath id="clip_188">
<path transform="matrix(1,0,0,-1,0,792)" d="M.00000912 0H612V792H.00000912Z" fill-rule="evenodd"/>
</clipPath>
<clipPath id="clip_189">
<path transform="matrix(1,0,0,-1,0,792)" d="M.00000912 0H612V792H.00000912Z" fill-rule="evenodd"/>
</clipPath>
<clipPath id="clip_190">
<path transform="matrix(1,0,0,-1,0,792)" d="M.00000912 0H612V792H.00000912Z" fill-rule="evenodd"/>
</clipPath>
<clipPath id="clip_191">
<path transform="matrix(1,0,0,-1,0,792)" d="M.00000912 0H612V792H.00000912Z" fill-rule="evenodd"/>
</clipPath>
<clipPath id="clip_192">
<path transform="matrix(1,0,0,-1,0,792)" d="M.00000912 0H612V792H.00000912Z" fill-rule="evenodd"/>
</clipPath>
<clipPath id="clip_193">
<path transform="matrix(1,0,0,-1,0,792)" d="M.00000912 0H612V792H.00000912Z" fill-rule="evenodd"/>
</clipPath>
<clipPath id="clip_194">
<path transform="matrix(1,0,0,-1,0,792)" d="M.00000912 0H612V792H.00000912Z" fill-rule="evenodd"/>
</clipPath>
<clipPath id="clip_195">
<path transform="matrix(1,0,0,-1,0,792)" d="M.00000912 0H612V792H.00000912Z" fill-rule="evenodd"/>
</clipPath>
<clipPath id="clip_196">
<path transform="matrix(1,0,0,-1,0,792)" d="M.00000912 0H612V792H.00000912Z" fill-rule="evenodd"/>
</clipPath>
<clipPath id="clip_197">
<path transform="matrix(1,0,0,-1,0,792)" d="M.00000912 0H612V792H.00000912Z" fill-rule="evenodd"/>
</clipPath>
<clipPath id="clip_198">
<path transform="matrix(1,0,0,-1,0,792)" d="M.00000912 0H612V792H.00000912Z" fill-rule="evenodd"/>
</clipPath>
<clipPath id="clip_199">
<path transform="matrix(1,0,0,-1,0,792)" d="M.00000912 0H612V792H.00000912Z" fill-rule="evenodd"/>
</clipPath>
<clipPath id="clip_200">
<path transform="matrix(1,0,0,-1,0,792)" d="M.00000912 0H612V792H.00000912Z" fill-rule="evenodd"/>
</clipPath>
<clipPath id="clip_201">
<path transform="matrix(1,0,0,-1,0,792)" d="M.00000912 0H612V792H.00000912Z" fill-rule="evenodd"/>
</clipPath>
<clipPath id="clip_202">
<path transform="matrix(1,0,0,-1,0,792)" d="M.00000912 0H612V792H.00000912Z" fill-rule="evenodd"/>
</clipPath>
<clipPath id="clip_203">
<path transform="matrix(1,0,0,-1,0,792)" d="M.00000912 0H612V792H.00000912Z" fill-rule="evenodd"/>
</clipPath>
<clipPath id="clip_204">
<path transform="matrix(1,0,0,-1,0,792)" d="M.00000912 0H612V792H.00000912Z" fill-rule="evenodd"/>
</clipPath>
<clipPath id="clip_205">
<path transform="matrix(1,0,0,-1,0,792)" d="M.00000912 0H612V792H.00000912Z" fill-rule="evenodd"/>
</clipPath>
<clipPath id="clip_206">
<path transform="matrix(1,0,0,-1,0,792)" d="M.00000912 0H612V792H.00000912Z" fill-rule="evenodd"/>
</clipPath>
<clipPath id="clip_207">
<path transform="matrix(1,0,0,-1,0,792)" d="M.00000912 0H612V792H.00000912Z" fill-rule="evenodd"/>
</clipPath>
<clipPath id="clip_208">
<path transform="matrix(1,0,0,-1,0,792)" d="M.00000912 0H612V792H.00000912Z" fill-rule="evenodd"/>
</clipPath>
<clipPath id="clip_209">
<path transform="matrix(1,0,0,-1,0,792)" d="M.00000912 0H612V792H.00000912Z" fill-rule="evenodd"/>
</clipPath>
<clipPath id="clip_210">
<path transform="matrix(1,0,0,-1,0,792)" d="M.00000912 0H612V792H.00000912Z" fill-rule="evenodd"/>
</clipPath>
<clipPath id="clip_211">
<path transform="matrix(1,0,0,-1,0,792)" d="M.00000912 0H612V792H.00000912Z" fill-rule="evenodd"/>
</clipPath>
<clipPath id="clip_212">
<path transform="matrix(1,0,0,-1,0,792)" d="M.00000912 0H612V792H.00000912Z" fill-rule="evenodd"/>
</clipPath>
<clipPath id="clip_213">
<path transform="matrix(1,0,0,-1,0,792)" d="M.00000912 0H612V792H.00000912Z" fill-rule="evenodd"/>
</clipPath>
<clipPath id="clip_214">
<path transform="matrix(1,0,0,-1,0,792)" d="M.00000912 0H612V792H.00000912Z" fill-rule="evenodd"/>
</clipPath>
<clipPath id="clip_215">
<path transform="matrix(1,0,0,-1,0,792)" d="M.00000912 0H612V792H.00000912Z" fill-rule="evenodd"/>
</clipPath>
<clipPath id="clip_216">
<path transform="matrix(1,0,0,-1,0,792)" d="M.00000912 0H612V792H.00000912Z" fill-rule="evenodd"/>
</clipPath>
<clipPath id="clip_217">
<path transform="matrix(1,0,0,-1,0,792)" d="M.00000912 0H612V792H.00000912Z" fill-rule="evenodd"/>
</clipPath>
<clipPath id="clip_218">
<path transform="matrix(1,0,0,-1,0,792)" d="M.00000912 0H612V792H.00000912Z" fill-rule="evenodd"/>
</clipPath>
<clipPath id="clip_219">
<path transform="matrix(1,0,0,-1,0,792)" d="M.00000912 0H612V792H.00000912Z" fill-rule="evenodd"/>
</clipPath>
<clipPath id="clip_220">
<path transform="matrix(1,0,0,-1,0,792)" d="M.00000912 0H612V792H.00000912Z" fill-rule="evenodd"/>
</clipPath>
<clipPath id="clip_221">
<path transform="matrix(1,0,0,-1,0,792)" d="M.00000912 0H612V792H.00000912Z" fill-rule="evenodd"/>
</clipPath>
<clipPath id="clip_222">
<path transform="matrix(1,0,0,-1,0,792)" d="M.00000912 0H612V792H.00000912Z" fill-rule="evenodd"/>
</clipPath>
<clipPath id="clip_223">
<path transform="matrix(1,0,0,-1,0,792)" d="M.00000912 0H612V792H.00000912Z" fill-rule="evenodd"/>
</clipPath>
<clipPath id="clip_224">
<path transform="matrix(1,0,0,-1,0,792)" d="M.00000912 0H612V792H.00000912Z" fill-rule="evenodd"/>
</clipPath>
<clipPath id="clip_225">
<path transform="matrix(1,0,0,-1,0,792)" d="M.00000912 0H612V792H.00000912Z" fill-rule="evenodd"/>
</clipPath>
<clipPath id="clip_226">
<path transform="matrix(1,0,0,-1,0,792)" d="M.00000912 0H612V792H.00000912Z" fill-rule="evenodd"/>
</clipPath>
<clipPath id="clip_227">
<path transform="matrix(1,0,0,-1,0,792)" d="M.00000912 0H612V792H.00000912Z" fill-rule="evenodd"/>
</clipPath>
<clipPath id="clip_228">
<path transform="matrix(1,0,0,-1,0,792)" d="M.00000912 0H612V792H.00000912Z" fill-rule="evenodd"/>
</clipPath>
<clipPath id="clip_229">
<path transform="matrix(1,0,0,-1,0,792)" d="M.00000912 0H612V792H.00000912Z" fill-rule="evenodd"/>
</clipPath>
<clipPath id="clip_230">
<path transform="matrix(1,0,0,-1,0,792)" d="M.00000912 0H612V792H.00000912Z" fill-rule="evenodd"/>
</clipPath>
<clipPath id="clip_231">
<path transform="matrix(1,0,0,-1,0,792)" d="M.00000912 0H612V792H.00000912Z" fill-rule="evenodd"/>
</clipPath>
<clipPath id="clip_232">
<path transform="matrix(1,0,0,-1,0,792)" d="M.00000912 0H612V792H.00000912Z" fill-rule="evenodd"/>
</clipPath>
<clipPath id="clip_233">
<path transform="matrix(1,0,0,-1,0,792)" d="M.00000912 0H612V792H.00000912Z" fill-rule="evenodd"/>
</clipPath>
<clipPath id="clip_234">
<path transform="matrix(1,0,0,-1,0,792)" d="M.00000912 0H612V792H.00000912Z" fill-rule="evenodd"/>
</clipPath>
<clipPath id="clip_235">
<path transform="matrix(1,0,0,-1,0,792)" d="M.00000912 0H612V792H.00000912Z" fill-rule="evenodd"/>
</clipPath>
<clipPath id="clip_236">
<path transform="matrix(1,0,0,-1,0,792)" d="M.00000912 0H612V792H.00000912Z" fill-rule="evenodd"/>
</clipPath>
<clipPath id="clip_237">
<path transform="matrix(1,0,0,-1,0,792)" d="M.00000912 0H612V792H.00000912Z" fill-rule="evenodd"/>
</clipPath>
<clipPath id="clip_238">
<path transform="matrix(1,0,0,-1,0,792)" d="M.00000912 0H612V792H.00000912Z" fill-rule="evenodd"/>
</clipPath>
<clipPath id="clip_239">
<path transform="matrix(1,0,0,-1,0,792)" d="M.00000912 0H612V792H.00000912Z" fill-rule="evenodd"/>
</clipPath>
<clipPath id="clip_240">
<path transform="matrix(1,0,0,-1,0,792)" d="M.00000912 0H612V792H.00000912Z" fill-rule="evenodd"/>
</clipPath>
<clipPath id="clip_241">
<path transform="matrix(1,0,0,-1,0,792)" d="M.00000912 0H612V792H.00000912Z" fill-rule="evenodd"/>
</clipPath>
<clipPath id="clip_242">
<path transform="matrix(1,0,0,-1,0,792)" d="M.00000912 0H612V792H.00000912Z" fill-rule="evenodd"/>
</clipPath>
<clipPath id="clip_243">
<path transform="matrix(1,0,0,-1,0,792)" d="M.00000912 0H612V792H.00000912Z" fill-rule="evenodd"/>
</clipPath>
<clipPath id="clip_244">
<path transform="matrix(1,0,0,-1,0,792)" d="M.00000912 0H612V792H.00000912Z" fill-rule="evenodd"/>
</clipPath>
<clipPath id="clip_245">
<path transform="matrix(1,0,0,-1,0,792)" d="M.00000912 0H612V792H.00000912Z" fill-rule="evenodd"/>
</clipPath>
<clipPath id="clip_246">
<path transform="matrix(1,0,0,-1,0,792)" d="M.00000912 0H612V792H.00000912Z" fill-rule="evenodd"/>
</clipPath>
<clipPath id="clip_247">
<path transform="matrix(1,0,0,-1,0,792)" d="M.00000912 0H612V792H.00000912Z" fill-rule="evenodd"/>
</clipPath>
<clipPath id="clip_248">
<path transform="matrix(1,0,0,-1,0,792)" d="M.00000912 0H612V792H.00000912Z" fill-rule="evenodd"/>
</clipPath>
<clipPath id="clip_249">
<path transform="matrix(1,0,0,-1,0,792)" d="M.00000912 0H612V792H.00000912Z" fill-rule="evenodd"/>
</clipPath>
<clipPath id="clip_250">
<path transform="matrix(1,0,0,-1,0,792)" d="M.00000912 0H612V792H.00000912Z" fill-rule="evenodd"/>
</clipPath>
<clipPath id="clip_251">
<path transform="matrix(1,0,0,-1,0,792)" d="M.00000912 0H612V792H.00000912Z" fill-rule="evenodd"/>
</clipPath>
<clipPath id="clip_252">
<path transform="matrix(1,0,0,-1,0,792)" d="M.00000912 0H612V792H.00000912Z" fill-rule="evenodd"/>
</clipPath>
<clipPath id="clip_253">
<path transform="matrix(1,0,0,-1,0,792)" d="M.00000912 0H612V792H.00000912Z" fill-rule="evenodd"/>
</clipPath>
<clipPath id="clip_254">
<path transform="matrix(1,0,0,-1,0,792)" d="M.00000912 0H612V792H.00000912Z" fill-rule="evenodd"/>
</clipPath>
<clipPath id="clip_255">
<path transform="matrix(1,0,0,-1,0,792)" d="M.00000912 0H612V792H.00000912Z" fill-rule="evenodd"/>
</clipPath>
<clipPath id="clip_256">
<path transform="matrix(1,0,0,-1,0,792)" d="M.00000912 0H612V792H.00000912Z" fill-rule="evenodd"/>
</clipPath>
<clipPath id="clip_257">
<path transform="matrix(1,0,0,-1,0,792)" d="M.00000912 0H612V792H.00000912Z" fill-rule="evenodd"/>
</clipPath>
</defs>
<g>
<g clip-path="url(#clip_0)">
<text xml:space="preserve" transform="matrix(1 0 -0 1 0 792)" font-size="10.08" font-family="Times New Roman"><tspan y="-746.86" x="54.024"> </tspan></text>
</g>
<g clip-path="url(#clip_1)">
</g>
<g clip-path="url(#clip_2)">
<text xml:space="preserve" transform="matrix(1 0 -0 1 0 792)" font-size="10.08" font-family="Times New Roman"><tspan y="-38.184" x="54.024"> </tspan></text>
</g>
<g clip-path="url(#clip_3)">
</g>
<g clip-path="url(#clip_4)">
<text xml:space="preserve" transform="matrix(1 0 -0 1 0 792)" font-size="24.96" font-family="Helvetica,Bold" font-weight="bold"><tspan y="-721.42" x="215.11 235.97657 249.85433 265.22969 280.5551 294.43287 301.37174 308.16087 329.02745 342.90519 352.61463 360.9263 367.86518 383.2405">Manuel Martins</tspan></text>
</g>
<g clip-path="url(#clip_5)">
<text xml:space="preserve" transform="matrix(1 0 -0 1 0 792)" font-size="17.04" font-family="Helvetica,Bold" font-weight="bold"><tspan y="-721.42" x="397.1"> </tspan></text>
</g>
<g clip-path="url(#clip_6)">
</g>
<g clip-path="url(#clip_7)">
<text xml:space="preserve" transform="matrix(1 0 -0 1 0 792)" font-size="11.04" font-family="Helvetica"><tspan y="-696.7" x="97.488 100.60802 103.728038 106.84805">    </tspan></text>
</g>
<g clip-path="url(#clip_8)">
<text xml:space="preserve" transform="matrix(1 0 -0 1 0 792)" font-size="11.04" font-family="Helvetica"><tspan y="-696.7" x="109.97 117.88568 125.80136 133.71704 136.83032 145.94936 151.94408 158.17064 164.16536 170.39192 172.7876 178.3076 184.30233 190.52889 196.5236 199.63689 205.15689 211.38346 220.50249">www.manuelcode.com </tspan></text>
</g>
<g clip-path="url(#clip_9)">
<text xml:space="preserve" transform="matrix(1 0 -0 1 0 792)" font-size="11.04" font-family="Helvetica"><tspan y="-696.7" x="223.51"> </tspan></text>
</g>
<g clip-path="url(#clip_10)">
<text xml:space="preserve" transform="matrix(1 0 -0 1 0 792)" font-size="11.04" font-family="Helvetica"><tspan y="-696.7" x="226.66 229.3004">| </tspan></text>
</g>
<g clip-path="url(#clip_11)">
<text xml:space="preserve" transform="matrix(1 0 -0 1 0 792)" font-size="11.04" font-family="Helvetica"><tspan y="-696.7" x="232.42"> </tspan></text>
</g>
<g clip-path="url(#clip_12)">
<text xml:space="preserve" transform="matrix(1 0 -0 1 0 792)" font-size="11.04" font-family="Helvetica"><tspan y="-696.7" x="235.54 244.65903 250.88559 256.8803 263.10688 269.33345 271.7291">manuel.</tspan></text>
</g>
<g clip-path="url(#clip_13)">
<text xml:space="preserve" transform="matrix(1 0 -0 1 0 792)" font-size="11.04" font-family="Helvetica"><tspan y="-696.7" x="274.66 280.88658 287.11314 292.39024 298.6168">dev04</tspan></text>
</g>
<g clip-path="url(#clip_14)">
<text xml:space="preserve" transform="matrix(1 0 -0 1 0 792)" font-size="11.04" font-family="Helvetica"><tspan y="-696.7" x="304.68 315.95185 322.1784 331.05458 337.28114 339.6768 342.07246 345.18574 350.70573 356.93229">@gmail.com</tspan></text>
</g>
<g clip-path="url(#clip_15)">
<text xml:space="preserve" transform="matrix(1 0 -0 1 0 792)" font-size="11.04" font-family="Helvetica"><tspan y="-696.7" x="366.14"> </tspan></text>
</g>
<g clip-path="url(#clip_16)">
<text xml:space="preserve" transform="matrix(1 0 -0 1 0 792)" font-size="11.04" font-family="Helvetica"><tspan y="-696.7" x="369.26"> </tspan></text>
</g>
<g clip-path="url(#clip_17)">
<text xml:space="preserve" transform="matrix(1 0 -0 1 0 792)" font-size="11.04" font-family="Helvetica"><tspan y="-696.7" x="372.38 375.02043">| </tspan></text>
</g>
<g clip-path="url(#clip_18)">
<text xml:space="preserve" transform="matrix(1 0 -0 1 0 792)" font-size="11.04" font-family="Helvetica"><tspan y="-696.7" x="378.14"> </tspan></text>
</g>
<g clip-path="url(#clip_19)">
<text xml:space="preserve" transform="matrix(1 0 -0 1 0 792)" font-size="11.04" font-family="Helvetica"><tspan y="-696.7" x="381.26 383.65568 386.05134 392.2779 397.555 403.78157 410.00813 412.40379 418.3985 421.51179 427.03178 433.25834 442.37739 445.49067 447.65449 453.88105">linkedin.com/in/</tspan></text>
</g>
<g clip-path="url(#clip_20)">
<text xml:space="preserve" transform="matrix(1 0 -0 1 0 792)" font-size="11.04" font-family="Helvetica"><tspan y="-696.7" x="457.13 466.24906 472.24378 478.47035 484.46507 490.69163">manuel</tspan></text>
</g>
<g clip-path="url(#clip_21)">
<text xml:space="preserve" transform="matrix(1 0 -0 1 0 792)" font-size="11.04" font-family="Helvetica"><tspan y="-696.7" x="493.15">-</tspan></text>
</g>
<g clip-path="url(#clip_22)">
<text xml:space="preserve" transform="matrix(1 0 -0 1 0 792)" font-size="11.04" font-family="Helvetica"><tspan y="-696.7" x="496.75 502.97657 508.97129">dev</tspan></text>
</g>
<g clip-path="url(#clip_23)">
<text xml:space="preserve" transform="matrix(1 0 -0 1 0 792)" font-size="11.04" font-family="Helvetica"><tspan y="-696.7" x="514.51"> </tspan></text>
</g>
<g clip-path="url(#clip_24)">
<text xml:space="preserve" transform="matrix(1 0 -0 1 0 792)" font-size="11.04" font-family="Helvetica"><tspan y="-696.7" x="517.39"> </tspan></text>
</g>
<g clip-path="url(#clip_25)">
<text xml:space="preserve" transform="matrix(1 0 -0 1 0 792)" font-size="6.96" font-family="Helvetica"><tspan y="-681.34" x="54.024"> </tspan></text>
</g>
<g clip-path="url(#clip_26)">
<text xml:space="preserve" transform="matrix(1 0 -0 1 0 792)" font-size="5.04" font-family="Helvetica"><tspan y="-674.38" x="54.024"> </tspan></text>
</g>
<g clip-path="url(#clip_27)">
<text xml:space="preserve" transform="matrix(1 0 -0 1 0 792)" font-size="13.92" font-family="Helvetica,Bold" font-weight="bold"><tspan y="-659.23" x="54.024 63.36432 73.41456 83.50656 93.5568 103.6488 112.042568 116.1072 126.93696">EDUCATION</tspan></text>
</g>
<g clip-path="url(#clip_28)">
<text xml:space="preserve" transform="matrix(1 0 -0 1 0 792)" font-size="12.96" font-family="Helvetica,Bold" font-weight="bold"><tspan y="-659.23" x="137.33"> </tspan></text>
</g>
<g clip-path="url(#clip_29)">
<path transform="matrix(1,0,0,-1,0,792)" d="M52.584 650.59H559.654V652.75H52.584Z" fill="#6c6c6c" fill-rule="evenodd"/>
</g>
<g clip-path="url(#clip_30)">
<text xml:space="preserve" transform="matrix(1 0 -0 1 0 792)" font-size="6.96" font-family="Helvetica,Bold" font-weight="bold"><tspan y="-644.11" x="54.024"> </tspan></text>
</g>
<g clip-path="url(#clip_31)">
</g>
<g clip-path="url(#clip_32)">
<text xml:space="preserve" transform="matrix(1 0 -0 1 0 792)" font-size="12" font-family="Helvetica,Bold" font-weight="bold"><tspan y="-628.51" x="54.024 57.144 64.343997 71.051998 75.119998 78.45599 82.548 89.74799 93.815998 101.243999 104.579998 112.523998 119.72399 127.15199 133.85999 138.41999 141.75598 149.20798 153.76798 157.10398 164.79598 171.50397 178.21196 185.41196 188.74796 195.25196 202.67995 206.01595 210.10794 213.22794 221.14794 228.57593">Instituto Superior T&#x00e9;cnico (IST)</tspan></text>
</g>
<g clip-path="url(#clip_33)">
<text xml:space="preserve" transform="matrix(1 0 -0 1 0 792)" font-size="11.04" font-family="Helvetica,Bold" font-weight="bold"><tspan y="-628.51" x="232.66"> </tspan></text>
</g>
<g clip-path="url(#clip_34)">
<text xml:space="preserve" transform="matrix(1 0 -0 1 0 792)" font-size="11.04" font-family="Helvetica"><tspan y="-628.51" x="496.75 502.97657 508.97129">202</tspan></text>
</g>
<g clip-path="url(#clip_35)">
<text xml:space="preserve" transform="matrix(1 0 -0 1 0 792)" font-size="11.04" font-family="Helvetica"><tspan y="-628.51" x="515.23">2</tspan></text>
</g>
<g clip-path="url(#clip_36)">
<text xml:space="preserve" transform="matrix(1 0 -0 1 0 792)" font-size="11.04" font-family="Helvetica"><tspan y="-628.51" x="521.47"> </tspan></text>
</g>
<g clip-path="url(#clip_37)">
<text xml:space="preserve" transform="matrix(1 0 -0 1 0 792)" font-size="11.04" font-family="Helvetica"><tspan y="-628.51" x="524.35">&#x2013;</tspan></text>
</g>
<g clip-path="url(#clip_38)">
<text xml:space="preserve" transform="matrix(1 0 -0 1 0 792)" font-size="11.04" font-family="Helvetica"><tspan y="-628.51" x="530.59"> </tspan></text>
</g>
<g clip-path="url(#clip_39)">
<text xml:space="preserve" transform="matrix(1 0 -0 1 0 792)" font-size="11.04" font-family="Helvetica"><tspan y="-628.51" x="533.47 539.69656 545.6913">202</tspan></text>
</g>
<g clip-path="url(#clip_40)">
<text xml:space="preserve" transform="matrix(1 0 -0 1 0 792)" font-size="11.04" font-family="Helvetica"><tspan y="-628.51" x="551.98">5</tspan></text>
</g>
<g clip-path="url(#clip_41)">
<text xml:space="preserve" transform="matrix(1 0 -0 1 0 792)" font-size="11.04" font-family="Helvetica,Bold" font-weight="bold"><tspan y="-628.51" x="558.22 561.1014 564.21469 567.32797">    </tspan></text>
</g>
<g clip-path="url(#clip_42)">
<text xml:space="preserve" transform="matrix(1 0 -0 1 0 792)" font-size="11.04" font-family="Helvetica,Bold" font-weight="bold"><tspan y="-628.51" x="570.22"> </tspan></text>
</g>
<g clip-path="url(#clip_43)">
</g>
<g clip-path="url(#clip_44)">
<text xml:space="preserve" transform="matrix(1 0 -0 1 0 792)" font-size="12" font-family="Helvetica,Italic" font-style="italic"><tspan y="-612.19" x="54.024 61.944 68.652 74.652 81.36001 88.068019 90.73202 97.40402 101.496028 104.16003 110.16003 113.496028 122.16003 128.83203 135.56403 139.40402 146.11202 152.82 156.156 158.58 165.288 168.624 177.288 183.99599 194.064 200.77199 207.47998 210.81598 217.31998 221.38799 224.72399 232.66799 238.66799 241.06798 247.77597 254.48397 260.48396 267.19197 270.52796 277.25996 283.96797 290.67597 293.79597 301.71595 308.42396 315.13197 317.53196 324.23997 330.94798 337.65599 341.72398 344.12397 350.83198">Bachelor&#x2019;s Degree in Computer Science and Engineering</tspan></text>
</g>
<g clip-path="url(#clip_45)">
<text xml:space="preserve" transform="matrix(1 0 -0 1 0 792)" font-size="11.04" font-family="Helvetica,Italic" font-style="italic"><tspan y="-612.19" x="358.22"> </tspan></text>
</g>
<g clip-path="url(#clip_46)">
<text xml:space="preserve" transform="matrix(1 0 -0 1 0 792)" font-size="11.04" font-family="Helvetica,Italic" font-style="italic"><tspan y="-612.19" x="558.22"> </tspan></text>
</g>
<g clip-path="url(#clip_47)">
</g>
<g clip-path="url(#clip_48)">
<text xml:space="preserve" transform="matrix(1 0 -0 1 0 792)" font-size="11.04" font-family="Times New Roman"><tspan y="-592.51" x="54.024">&#x25aa;</tspan></text>
</g>
<g clip-path="url(#clip_49)">
<text xml:space="preserve" transform="matrix(1 0 -0 1 0 792)" font-size="11.04" font-family="Arial"><tspan y="-592.51" x="57.864"> </tspan></text>
</g>
<g clip-path="url(#clip_50)">
<text xml:space="preserve" transform="matrix(1 0 -0 1 0 792)" font-size="11.04" font-family="Helvetica"><tspan y="-592.51" x="67.464 76.097278 79.69632 85.922878 91.917598 98.14415 101.25743">Grade: </tspan></text>
</g>
<g clip-path="url(#clip_51)">
<text xml:space="preserve" transform="matrix(1 0 -0 1 0 792)" font-size="11.04" font-family="Helvetica,Bold" font-weight="bold"><tspan y="-592.51" x="104.21 110.436557 116.66311 119.54455 125.7711">17/20</tspan></text>
</g>
<g clip-path="url(#clip_52)">
<text xml:space="preserve" transform="matrix(1 0 -0 1 0 792)" font-size="11.04" font-family="Helvetica"><tspan y="-592.51" x="131.81"> </tspan></text>
</g>
<g clip-path="url(#clip_53)">
<text xml:space="preserve" transform="matrix(1 0 -0 1 0 792)" font-size="11.04" font-family="Helvetica"><tspan y="-592.51" x="134.93 138.52902 144.04903 150.27559 153.87462 157.47365 163.46837 169.69493 172.80821">(current)</tspan></text>
</g>
<g clip-path="url(#clip_54)">
<text xml:space="preserve" transform="matrix(1 0 -0 1 0 792)" font-size="11.04" font-family="Helvetica"><tspan y="-592.51" x="176.23"> </tspan></text>
</g>
<g clip-path="url(#clip_55)">
</g>
<g clip-path="url(#clip_56)">
<text xml:space="preserve" transform="matrix(1 0 -0 1 0 792)" font-size="11.04" font-family="Times New Roman"><tspan y="-574.49" x="54.024">&#x25aa;</tspan></text>
</g>
<g clip-path="url(#clip_57)">
<text xml:space="preserve" transform="matrix(1 0 -0 1 0 792)" font-size="11.04" font-family="Arial"><tspan y="-574.49" x="57.864"> </tspan></text>
</g>
<g clip-path="url(#clip_58)">
<text xml:space="preserve" transform="matrix(1 0 -0 1 0 792)" font-size="11.04" font-family="Helvetica"><tspan y="-574.49" x="67.464 75.37968 81.60623 85.20528 88.80432 91.200008 96.72 102.946559 105.34224 111.568798 120.687839 123.80112 131.7168 134.11248 136.99391 143.22048">Curriculum with </tspan></text>
</g>
<g clip-path="url(#clip_59)">
<text xml:space="preserve" transform="matrix(1 0 -0 1 0 792)" font-size="11.04" font-family="Helvetica"><tspan y="-574.49" x="146.45 155.32616 161.55272 163.9484 170.17496 173.77399 176.65543 179.7687 185.99527 191.2724 197.49897 203.01897 205.9004 212.12697 218.12169 221.23497 228.66489 230.82874 237.0553 243.28186 246.88089 249.27657 252.158 258.38456 267.5036 273.0236 275.90504 283.33497 286.44825 294.13209 300.35865 303.47193 309.46665 312.34809 319.778 322.8913 326.49037 332.71693 338.2369 341.11836 347.3449 350.94398 357.17054 362.69053">major focus on Algorithms &#x0026; Data Structures,</tspan></text>
</g>
<g clip-path="url(#clip_60)">
<text xml:space="preserve" transform="matrix(1 0 -0 1 0 792)" font-size="11.04" font-family="Helvetica"><tspan y="-574.49" x="365.9"> </tspan></text>
</g>
<g clip-path="url(#clip_61)">
<text xml:space="preserve" transform="matrix(1 0 -0 1 0 792)" font-size="11.04" font-family="Helvetica"><tspan y="-574.49" x="369.02 376.44993 380.04899 383.16227 385.32609 388.6712 391.06687 396.58686 398.75068 404.97724 407.3729 410.48619 413.3676 419.59419 422.47563 428.70219 431.09785 433.4935 435.88917 442.11573 448.11045 454.337 459.857 465.8517">Artificial Intelligence,</tspan></text>
</g>
<g clip-path="url(#clip_62)">
<text xml:space="preserve" transform="matrix(1 0 -0 1 0 792)" font-size="11.04" font-family="Helvetica"><tspan y="-574.49" x="469.13"> </tspan></text>
</g>
<g clip-path="url(#clip_63)">
<text xml:space="preserve" transform="matrix(1 0 -0 1 0 792)" font-size="11.04" font-family="Helvetica"><tspan y="-574.49" x="472.25 479.93385 486.1604 489.04185 495.2684 501.26313 507.4897 513.0097 519.23629 524.7563 527.6377 530.751 539.1524 547.7857">Databases, OOP</tspan></text>
</g>
<g clip-path="url(#clip_64)">
<text xml:space="preserve" transform="matrix(1 0 -0 1 0 792)" font-size="11.04" font-family="Helvetica"><tspan y="-574.49" x="555.1 558.22">, </tspan></text>
</g>
<g clip-path="url(#clip_65)">
</g>
<g clip-path="url(#clip_66)">
<text xml:space="preserve" transform="matrix(1 0 -0 1 0 792)" font-size="11.04" font-family="Helvetica"><tspan y="-556.97" x="67.464 76.34016 82.56671 88.08671 94.31326 96.70895 102.9355 109.162059 112.043498 118.27005 124.26477 130.49134 134.09037 140.31693 142.7126 148.70732 154.93389 158.04717">Machine Learning, </tspan></text>
</g>
<g clip-path="url(#clip_67)">
<text xml:space="preserve" transform="matrix(1 0 -0 1 0 792)" font-size="11.04" font-family="Helvetica"><tspan y="-556.97" x="161.35 169.03386 175.26042 178.3737 186.28939 192.51595 196.11498 201.63498">Networks</tspan></text>
</g>
<g clip-path="url(#clip_68)">
<text xml:space="preserve" transform="matrix(1 0 -0 1 0 792)" font-size="11.04" font-family="Helvetica"><tspan y="-556.97" x="206.95 210.06328 213.17656 221.09224 227.3188 236.19496 242.42153 244.8172 247.21288 253.43944 257.03849">, Compilers</tspan></text>
</g>
<g clip-path="url(#clip_69)">
<text xml:space="preserve" transform="matrix(1 0 -0 1 0 792)" font-size="11.04" font-family="Helvetica"><tspan y="-556.97" x="262.66"> </tspan></text>
</g>
<g clip-path="url(#clip_70)">
<text xml:space="preserve" transform="matrix(1 0 -0 1 0 792)" font-size="11.04" font-family="Helvetica"><tspan y="-556.97" x="265.78 271.77473 278.00129 283.996 287.10929 295.02497 297.42063 302.9406 306.0539 309.65296 312.0486 318.27519 324.50175 327.38319 333.60975 339.60447 342.71775 350.14768 355.66767 361.18766 364.0691 370.29566 379.4147 384.9347">and Distributed Systems.</tspan></text>
</g>
<g clip-path="url(#clip_71)">
<text xml:space="preserve" transform="matrix(1 0 -0 1 0 792)" font-size="11.04" font-family="Helvetica,Bold" font-weight="bold"><tspan y="-556.97" x="387.98"> </tspan></text>
</g>
<g clip-path="url(#clip_72)">
</g>
<g clip-path="url(#clip_73)">
<text xml:space="preserve" transform="matrix(1 0 -0 1 0 792)" font-size="11.04" font-family="Times New Roman"><tspan y="-539.45" x="54.024">&#x25aa;</tspan></text>
</g>
<g clip-path="url(#clip_74)">
<text xml:space="preserve" transform="matrix(1 0 -0 1 0 792)" font-size="11.04" font-family="Arial"><tspan y="-539.45" x="57.864"> </tspan></text>
</g>
<g clip-path="url(#clip_75)">
<text xml:space="preserve" transform="matrix(1 0 -0 1 0 792)" font-size="11.04" font-family="Helvetica"><tspan y="-539.45" x="67.464 73.69055 79.68527 85.91183 91.90655 98.1331 104.12782 110.35438 116.58093 122.10093 124.98237">Languages: </tspan></text>
</g>
<g clip-path="url(#clip_76)">
<text xml:space="preserve" transform="matrix(1 0 -0 1 0 792)" font-size="11.04" font-family="Helvetica,Bold" font-weight="bold"><tspan y="-539.45" x="128.21 135.63993 141.63465 145.23368 151.97911 158.66934">Python</tspan></text>
</g>
<g clip-path="url(#clip_77)">
<text xml:space="preserve" transform="matrix(1 0 -0 1 0 792)" font-size="11.04" font-family="Helvetica"><tspan y="-539.45" x="165.43 168.55002">, </tspan></text>
</g>
<g clip-path="url(#clip_78)">
<text xml:space="preserve" transform="matrix(1 0 -0 1 0 792)" font-size="11.04" font-family="Helvetica,Bold" font-weight="bold"><tspan y="-539.45" x="171.67">C</tspan></text>
</g>
<g clip-path="url(#clip_79)">
<text xml:space="preserve" transform="matrix(1 0 -0 1 0 792)" font-size="11.04" font-family="Helvetica"><tspan y="-539.45" x="179.59 182.71002">, </tspan></text>
</g>
<g clip-path="url(#clip_80)">
<text xml:space="preserve" transform="matrix(1 0 -0 1 0 792)" font-size="11.04" font-family="Helvetica,Bold" font-weight="bold"><tspan y="-539.45" x="185.83 193.51386 199.96121">C++</tspan></text>
</g>
<g clip-path="url(#clip_81)">
<text xml:space="preserve" transform="matrix(1 0 -0 1 0 792)" font-size="11.04" font-family="Helvetica,Bold" font-weight="bold"><tspan y="-539.45" x="206.47 209.58329 212.69657 219.442 222.30136 229.0468 232.62375 236.22278 242.44934 246.7439 249.87926 252.7607 258.98725 265.2138 271.20854 277.4351 283.4298 289.42454 293.7191 296.62263 303.36808">, Flutter, Javascript</tspan></text>
</g>
<g clip-path="url(#clip_82)">
<text xml:space="preserve" transform="matrix(1 0 -0 1 0 792)" font-size="11.04" font-family="Helvetica,Bold" font-weight="bold"><tspan y="-539.45" x="307.08">.</tspan></text>
</g>
<g clip-path="url(#clip_83)">
<text xml:space="preserve" transform="matrix(1 0 -0 1 0 792)" font-size="11.04" font-family="Helvetica,Bold" font-weight="bold"><tspan y="-539.45" x="310.2"> </tspan></text>
</g>
<g clip-path="url(#clip_84)">
</g>
<g clip-path="url(#clip_85)">
<text xml:space="preserve" transform="matrix(1 0 -0 1 0 792)" font-size="6.96" font-family="Helvetica"><tspan y="-525.05" x="54.024"> </tspan></text>
</g>
<g clip-path="url(#clip_86)">
</g>
<g clip-path="url(#clip_87)">
<text xml:space="preserve" transform="matrix(1 0 -0 1 0 792)" font-size="12" font-family="Helvetica,Bold" font-weight="bold"><tspan y="-509.69" x="54.024 57.144 65.064 72.732 76.068 84.732 91.44001 98.14802 104.856029 111.56403 116.12403 119.46003 127.40403 134.11203 141.31203 148.74002 156.16802">IST Hacker School</tspan></text>
</g>
<g clip-path="url(#clip_88)">
<text xml:space="preserve" transform="matrix(1 0 -0 1 0 792)" font-size="11.04" font-family="Helvetica,Bold" font-weight="bold"><tspan y="-509.69" x="159.41"> </tspan></text>
</g>
<g clip-path="url(#clip_89)">
<text xml:space="preserve" transform="matrix(1 0 -0 1 0 792)" font-size="11.04" font-family="Helvetica,Bold" font-weight="bold"><tspan y="-509.69" x="162.07"> </tspan></text>
</g>
<g clip-path="url(#clip_90)">
<text xml:space="preserve" transform="matrix(1 0 -0 1 0 792)" font-size="11.04" font-family="Helvetica,Bold" font-weight="bold"><tspan y="-509.69" x="198.07"> </tspan></text>
</g>
<g clip-path="url(#clip_91)">
<text xml:space="preserve" transform="matrix(1 0 -0 1 0 792)" font-size="11.04" font-family="Helvetica,Bold" font-weight="bold"><tspan y="-509.69" x="234.1"> </tspan></text>
</g>
<g clip-path="url(#clip_92)">
<text xml:space="preserve" transform="matrix(1 0 -0 1 0 792)" font-size="11.04" font-family="Helvetica,Bold" font-weight="bold"><tspan y="-509.69" x="270.1"> </tspan></text>
</g>
<g clip-path="url(#clip_93)">
<text xml:space="preserve" transform="matrix(1 0 -0 1 0 792)" font-size="11.04" font-family="Helvetica,Bold" font-weight="bold"><tspan y="-509.69" x="306.12"> </tspan></text>
</g>
<g clip-path="url(#clip_94)">
<text xml:space="preserve" transform="matrix(1 0 -0 1 0 792)" font-size="11.04" font-family="Helvetica,Bold" font-weight="bold"><tspan y="-509.69" x="342.12"> </tspan></text>
</g>
<g clip-path="url(#clip_95)">
<text xml:space="preserve" transform="matrix(1 0 -0 1 0 792)" font-size="11.04" font-family="Helvetica,Bold" font-weight="bold"><tspan y="-509.69" x="378.14"> </tspan></text>
</g>
<g clip-path="url(#clip_96)">
<text xml:space="preserve" transform="matrix(1 0 -0 1 0 792)" font-size="11.04" font-family="Helvetica,Bold" font-weight="bold"><tspan y="-509.69" x="414.14"> </tspan></text>
</g>
<g clip-path="url(#clip_97)">
<text xml:space="preserve" transform="matrix(1 0 -0 1 0 792)" font-size="11.04" font-family="Helvetica,Bold" font-weight="bold"><tspan y="-509.69" x="450.17 453.2833 456.39659 459.50987 462.62315 465.50459 468.61787 471.73115 474.84443 477.72587 480.83915">           </tspan></text>
</g>
<g clip-path="url(#clip_98)">
<text xml:space="preserve" transform="matrix(1 0 -0 1 0 792)" font-size="11.04" font-family="Helvetica"><tspan y="-509.69" x="484.03 490.02473 496.25129 502.246 508.24073">2023 </tspan></text>
</g>
<g clip-path="url(#clip_99)">
<text xml:space="preserve" transform="matrix(1 0 -0 1 0 792)" font-size="11.04" font-family="Helvetica"><tspan y="-509.69" x="511.39">&#x2013;</tspan></text>
</g>
<g clip-path="url(#clip_100)">
<text xml:space="preserve" transform="matrix(1 0 -0 1 0 792)" font-size="11.04" font-family="Helvetica"><tspan y="-509.69" x="517.39"> </tspan></text>
</g>
<g clip-path="url(#clip_101)">
<text xml:space="preserve" transform="matrix(1 0 -0 1 0 792)" font-size="11.04" font-family="Helvetica"><tspan y="-509.69" x="520.51 527.93997 531.2961 537.52267 543.04269 549.0374 555.264">Present</tspan></text>
</g>
<g clip-path="url(#clip_102)">
<text xml:space="preserve" transform="matrix(1 0 -0 1 0 792)" font-size="11.04" font-family="Helvetica"><tspan y="-509.69" x="558.22"> </tspan></text>
</g>
<g clip-path="url(#clip_103)">
</g>
<g clip-path="url(#clip_104)">
<text xml:space="preserve" transform="matrix(1 0 -0 1 0 792)" font-size="11.04" font-family="Times New Roman"><tspan y="-490.94" x="54.024">&#x25aa;</tspan></text>
</g>
<g clip-path="url(#clip_105)">
<text xml:space="preserve" transform="matrix(1 0 -0 1 0 792)" font-size="11.04" font-family="Arial"><tspan y="-490.94" x="57.864"> </tspan></text>
</g>
<g clip-path="url(#clip_106)">
<text xml:space="preserve" transform="matrix(1 0 -0 1 0 792)" font-size="11.04" font-family="Helvetica"><tspan y="-490.94" x="67.464 76.34016 82.56671 91.68575 97.91231 104.13886 107.73791 111.81167 117.80639 121.15151">Member of </tspan></text>
</g>
<g clip-path="url(#clip_107)">
<text xml:space="preserve" transform="matrix(1 0 -0 1 0 792)" font-size="11.04" font-family="Helvetica"><tspan y="-490.94" x="125.09 128.20328 134.198 140.42456">the </tspan></text>
</g>
<g clip-path="url(#clip_108)">
<text xml:space="preserve" transform="matrix(1 0 -0 1 0 792)" font-size="11.04" font-family="Helvetica"><tspan y="-490.94" x="144.53 147.41144 154.84136 161.58679 165.62744 173.54312 179.76969 185.04682 190.56682 196.79338 200.39241 204.2233 211.65322 217.17322 223.16794 229.3945 235.62107 238.01674 240.89818 244.97194 252.88762 258.88233 265.1089 268.70796 274.9345 279.00828 281.8897 285.96348 291.48347 297.71003 301.30909 304.90815 310.90287 317.12944 320.2427 322.63838 328.15837 332.23213 340.1478 346.37437 349.97343 355.25053 359.32429 364.84428 371.07084 373.4665 375.86216 381.85688 388.08345 394.31 397.66618 403.89274 407.006 409.40168 414.92167 421.14823 423.54389 429.06388 433.13764 435.30146 441.528 445.3589 451.58546 455.6592 458.54066 464.7672 470.99378 480.11283 483.9437 490.17027 496.16499 501.68498 504.08064 507.6797 513.90628 520.1328 529.2519 535.24667 541.4732 544.3546 548.42837 551.30978 557.5363">IST Hacker School, where I currently work collaboratively in a team environment to </tspan></text>
</g>
<g clip-path="url(#clip_109)">
</g>
<g clip-path="url(#clip_110)">
<text xml:space="preserve" transform="matrix(1 0 -0 1 0 792)" font-size="11.04" font-family="Helvetica"><tspan y="-473.18" x="67.464 73.69055 79.91711 85.19422 91.42078 93.81646 100.043018 106.037738">develop </tspan></text>
</g>
<g clip-path="url(#clip_111)">
<text xml:space="preserve" transform="matrix(1 0 -0 1 0 792)" font-size="11.04" font-family="Helvetica"><tspan y="-473.18" x="109.25 118.36904 124.5956 126.99128 130.10456 132.2684 138.49497 140.89064 147.1172">multiple </tspan></text>
</g>
<g clip-path="url(#clip_112)">
<text xml:space="preserve" transform="matrix(1 0 -0 1 0 792)" font-size="11.04" font-family="Helvetica"><tspan y="-473.18" x="150.05 156.27657 159.8756 166.10216 168.49784 174.7244 180.00153 183.1148 188.63481 191.51625 194.62953 200.8561 206.3761 212.60266 217.87979 224.10636 230.10108 233.21436 239.20908 245.43564 248.54892 256.4646 262.45933 268.68589">projects focused on web </tspan></text>
</g>
<g clip-path="url(#clip_113)">
<text xml:space="preserve" transform="matrix(1 0 -0 1 0 792)" font-size="11.04" font-family="Helvetica"><tspan y="-473.18" x="271.78 278.00657 284.00129 290.22785 293.34114 299.33586 305.33058 311.3253">and app </tspan></text>
</g>
<g clip-path="url(#clip_114)">
<text xml:space="preserve" transform="matrix(1 0 -0 1 0 792)" font-size="11.04" font-family="Helvetica"><tspan y="-473.18" x="314.52 320.74656 326.9731 332.2502 338.47679 340.87245 346.86717 353.09373 362.21278 368.2075 374.43406">development</tspan></text>
</g>
<g clip-path="url(#clip_115)">
<text xml:space="preserve" transform="matrix(1 0 -0 1 0 792)" font-size="11.04" font-family="Helvetica"><tspan y="-473.18" x="377.66">.</tspan></text>
</g>
<g clip-path="url(#clip_116)">
<text xml:space="preserve" transform="matrix(1 0 -0 1 0 792)" font-size="11.04" font-family="Helvetica"><tspan y="-473.18" x="380.54"> </tspan></text>
</g>
<g clip-path="url(#clip_117)">
</g>
<g clip-path="url(#clip_118)">
<text xml:space="preserve" transform="matrix(1 0 -0 1 0 792)" font-size="11.04" font-family="Times New Roman"><tspan y="-455.42" x="54.024">&#x25aa;</tspan></text>
</g>
<g clip-path="url(#clip_119)">
<text xml:space="preserve" transform="matrix(1 0 -0 1 0 792)" font-size="11.04" font-family="Arial"><tspan y="-455.42" x="57.864"> </tspan></text>
</g>
<g clip-path="url(#clip_120)">
<text xml:space="preserve" transform="matrix(1 0 -0 1 0 792)" font-size="11.04" font-family="Helvetica"><tspan y="-455.42" x="67.464 76.097278 82.32383 84.71951 90.71423 96.94079 102.93551 105.81695 111.336948 117.5635 119.72734 125.953899 131.94861 138.17517 140.57085 146.56557 149.447 155.67357 160.9507 167.17726 173.40383 177.00286 179.39853 185.39325 191.61981 197.13982 203.13454 206.01598 208.41165 214.40637 217.28781 222.80782 228.80254 231.91582 235.0291 242.94478 249.17134 252.77037 258.76509 261.6465 267.64125 273.8678 279.1449 285.37147 287.76713 293.99369 300.22026 309.0964 315.32298 321.54954 324.43098 327.3124 333.30714 339.5337 345.05369 347.93513 350.81657 357.04313 360.64219 366.6369 372.1569 375.27018 377.66584 383.18583 389.41239 394.68949 397.57093 403.7975 409.0746 411.95603 419.8717 426.09828 428.49394 430.8896 433.52815 439.7547 445.0318 447.91325 450.3089 459.42796 465.6545 468.05018 474.27674 483.39579 489.3905 495.61708 498.73036 501.126 507.12074 513.3473 515.98587 521.50588 527.5006 530.6139 533.7272 541.6429 547.86947">Gained valuable experience in software development best practices as well as implementing softwar</tspan></text>
</g>
<g clip-path="url(#clip_121)">
<text xml:space="preserve" transform="matrix(1 0 -0 1 0 792)" font-size="11.04" font-family="Helvetica"><tspan y="-455.42" x="551.98 558.2202">e </tspan></text>
</g>
<g clip-path="url(#clip_122)">
</g>
<g clip-path="url(#clip_123)">
<text xml:space="preserve" transform="matrix(1 0 -0 1 0 792)" font-size="11.04" font-family="Helvetica"><tspan y="-437.66" x="67.464 72.98399 79.21055 81.60623 87.83279 90.94607 93.10991 99.336467 105.56302 111.083019 113.964458 117.077739 123.07246 129.29901 132.4123 135.52558 144.40174 150.6283 156.85486 159.7363 162.84958 168.8443 175.07086 180.59087 182.98654 188.98126 195.20783 200.72783 206.24784 209.12928 215.35584 221.35056 227.57712 229.9728 235.4928 238.60608 244.6008 250.82736 256.82209 259.93537 266.16194 271.43904 277.6656 281.26466 284.37794 290.37266 296.5992 302.59394 308.58866 314.10865 317.22193 323.4485 328.96849 331.36415 337.35887 343.58543 346.6987 355.81776 362.0443 364.43998 367.55326 369.71708 375.94364 378.3393 384.56587 387.67915 389.84297 396.06953 402.06425 408.2908 414.28553 420.5121 426.5068 432.73338 438.25337 441.1348 447.36137 453.35609 459.58265 462.46409 465.8092 469.16539 475.39195 484.511 490.73756 498.65324 504.8798 508.47886 513.99887 519.51889">solutions that meet business goals and user needs using multiple languages and frameworks.</tspan></text>
</g>
<g clip-path="url(#clip_124)">
<text xml:space="preserve" transform="matrix(1 0 -0 1 0 792)" font-size="11.04" font-family="Helvetica"><tspan y="-437.66" x="523.15"> </tspan></text>
</g>
<g clip-path="url(#clip_125)">
</g>
<g clip-path="url(#clip_126)">
<text xml:space="preserve" transform="matrix(1 0 -0 1 0 792)" font-size="9.12" font-family="Helvetica"><tspan y="-422.06" x="67.464"> </tspan></text>
</g>
<g clip-path="url(#clip_127)">
</g>
<g clip-path="url(#clip_128)">
<text xml:space="preserve" transform="matrix(1 0 -0 1 0 792)" font-size="13.92" font-family="Helvetica,Bold" font-weight="bold"><tspan y="-402.84" x="54.024 63.36432 73.41456 84.244319 91.92816 101.26848 111.31872 119.754238">PROJECTS</tspan></text>
</g>
<g clip-path="url(#clip_129)">
<text xml:space="preserve" transform="matrix(1 0 -0 1 0 792)" font-size="12.96" font-family="Helvetica,Bold" font-weight="bold"><tspan y="-402.84" x="129.41"> </tspan></text>
</g>
<g clip-path="url(#clip_130)">
<path transform="matrix(1,0,0,-1,0,792)" d="M52.584 393.96H559.654V396.12H52.584Z" fill="#6c6c6c" fill-rule="evenodd"/>
</g>
<g clip-path="url(#clip_131)">
<text xml:space="preserve" transform="matrix(1 0 -0 1 0 792)" font-size="6.96" font-family="Helvetica,Bold" font-weight="bold"><tspan y="-387.48" x="54.024"> </tspan></text>
</g>
<g clip-path="url(#clip_132)">
</g>
<g clip-path="url(#clip_133)">
<text xml:space="preserve" transform="matrix(1 0 -0 1 0 792)" font-size="12" font-family="Helvetica,Bold" font-weight="bold"><tspan y="-371.88" x="54.024 61.944 68.652 72.72">Path</tspan></text>
</g>
<g clip-path="url(#clip_134)">
<text xml:space="preserve" transform="matrix(1 0 -0 1 0 792)" font-size="12" font-family="Helvetica,Bold" font-weight="bold"><tspan y="-371.88" x="79.944"> </tspan></text>
</g>
<g clip-path="url(#clip_135)">
<text xml:space="preserve" transform="matrix(1 0 -0 1 0 792)" font-size="12" font-family="Helvetica,Bold" font-weight="bold"><tspan y="-371.88" x="83.304 93.144008 99.85201 107.05201 113.76002 121.18802 127.89602 138.45603 145.16402 152.36402 156.43202 159.76802 167.94002 174.42002 181.128 185.19602 191.904">Management System</tspan></text>
</g>
<g clip-path="url(#clip_136)">
<text xml:space="preserve" transform="matrix(1 0 -0 1 0 792)" font-size="11.04" font-family="Helvetica,Bold" font-weight="bold"><tspan y="-371.88" x="202.87"> </tspan></text>
</g>
<g clip-path="url(#clip_137)">
<text xml:space="preserve" transform="matrix(1 0 -0 1 0 792)" font-size="11.04" font-family="Helvetica"><tspan y="-371.88" x="513.31 520.7399 526.9665 530.56558 533.67886 539.6736 545.90017 551.8949">Apr 2024</tspan></text>
</g>
<g clip-path="url(#clip_138)">
<text xml:space="preserve" transform="matrix(1 0 -0 1 0 792)" font-size="11.04" font-family="Helvetica,Bold" font-weight="bold"><tspan y="-371.88" x="558.22 561.1014 564.21469 567.32797">    </tspan></text>
</g>
<g clip-path="url(#clip_139)">
<text xml:space="preserve" transform="matrix(1 0 -0 1 0 792)" font-size="12" font-family="Helvetica,Bold" font-weight="bold"><tspan y="-371.88" x="570.22"> </tspan></text>
</g>
<g clip-path="url(#clip_140)">
</g>
<g clip-path="url(#clip_141)">
<text xml:space="preserve" transform="matrix(1 0 -0 1 0 792)" font-size="11.04" font-family="Times New Roman"><tspan y="-351.96" x="54.024">&#x25aa;</tspan></text>
</g>
<g clip-path="url(#clip_142)">
<text xml:space="preserve" transform="matrix(1 0 -0 1 0 792)" font-size="11.04" font-family="Arial"><tspan y="-351.96" x="57.864"> </tspan></text>
</g>
<g clip-path="url(#clip_143)">
<text xml:space="preserve" transform="matrix(1 0 -0 1 0 792)" font-size="11.04" font-family="Helvetica"><tspan y="-351.96" x="67.464 74.89391 81.12047 83.51615 85.911838">Built</tspan></text>
</g>
<g clip-path="url(#clip_144)">
<text xml:space="preserve" transform="matrix(1 0 -0 1 0 792)" font-size="11.04" font-family="Helvetica"><tspan y="-351.96" x="89.064"> </tspan></text>
</g>
<g clip-path="url(#clip_145)">
<text xml:space="preserve" transform="matrix(1 0 -0 1 0 792)" font-size="11.04" font-family="Helvetica"><tspan y="-351.96" x="92.904 98.89872 102.97248 110.170558 116.39711 119.51039 125.50511 129.57888 138.45503 144.6816 150.90816 156.90288 163.12944 169.356 178.23217 184.45873 190.68529 193.56673 197.64049 204.83856 210.35857 215.87857 218.99185 225.21842 234.09458 238.16834 246.08402 248.47969 251.59297 257.58769 261.66145 268.85954 271.9728 277.96754 284.1941 288.02497 294.25154 300.24626 306.4728 310.30369 318.21937 324.44593 330.6725 336.6672 342.89378 348.41377 351.52705 353.69087 359.91743 365.91215 369.9859 377.184 383.41056 389.40528 395.63185 401.8584 405.45747 408.3389 412.41267 418.63923 424.1592 426.32304 432.5496 438.5443">a Path Management System with Stop and Connection Support using </tspan></text>
</g>
<g clip-path="url(#clip_146)">
<text xml:space="preserve" transform="matrix(1 0 -0 1 0 792)" font-size="11.04" font-family="Helvetica,Bold" font-weight="bold"><tspan y="-351.96" x="443.21">C</tspan></text>
</g>
<g clip-path="url(#clip_147)">
<text xml:space="preserve" transform="matrix(1 0 -0 1 0 792)" font-size="11.04" font-family="Helvetica"><tspan y="-351.96" x="451.13 454.01145 458.0852 464.83067 470.8033 477.02989 481.10365 486.62364 491.90074 497.42073 500.534 506.76057 515.6367 519.71047 525.7052 531.93179 537.9265 544.1531 546.54879 552.5435 558.06356">. The system enables </tspan></text>
</g>
<g clip-path="url(#clip_148)">
</g>
<g clip-path="url(#clip_149)">
<text xml:space="preserve" transform="matrix(1 0 -0 1 0 792)" font-size="11.04" font-family="Helvetica"><tspan y="-333.94" x="67.464 73.69055 79.21055 85.4371 89.03615 94.556148 97.669429 100.550868 106.77742 109.8907 115.4107 118.76686 124.993419 131.21997 134.10141 140.32798 143.44126 146.3227 152.54926 158.77582 160.93967 164.05295">users to create, edit </tspan></text>
</g>
<g clip-path="url(#clip_150)">
<text xml:space="preserve" transform="matrix(1 0 -0 1 0 792)" font-size="11.04" font-family="Helvetica"><tspan y="-333.94" x="167.35 173.34473 179.57129 185.56601 188.67929 194.67401 200.90058 203.29625 209.52281 212.40425 218.63082 221.51226 227.73882 233.96538 236.84682 243.07338 248.59339 251.70667 254.5881 260.81468 266.8094 269.92268 273.03596 275.4316 281.65818 287.17817 289.34199 295.56855 301.56327 307.78984 310.67127 316.19126 319.30455 325.5311 331.75767 337.03477 340.14805 346.14277 352.36933 358.36405 361.47734 366.9973 372.99205 379.2186 385.21333 391.43989 396.95988 400.07316 402.4688 408.46354 414.6901 420.21009 423.09153 426.2048 432.43138 436.03044 439.1437 442.257 445.61317 451.83973 458.06629 463.34339 469.56996 475.7965 479.39558 482.277 488.50358 491.61686 494.0125 500.00724 506.2338 509.11524 515.3418 517.7375 523.96408 529.9588 536.18539 538.58108 544.5758 550.80239">and delete paths that include stops and connections for transportation planning.</tspan></text>
</g>
<g clip-path="url(#clip_151)">
<text xml:space="preserve" transform="matrix(1 0 -0 1 0 792)" font-size="11.04" font-family="Helvetica"><tspan y="-333.94" x="554.38"> </tspan></text>
</g>
<g clip-path="url(#clip_152)">
</g>
<g clip-path="url(#clip_153)">
<text xml:space="preserve" transform="matrix(1 0 -0 1 0 792)" font-size="11.04" font-family="Times New Roman"><tspan y="-316.42" x="54.024">&#x25aa;</tspan></text>
</g>
<g clip-path="url(#clip_154)">
<text xml:space="preserve" transform="matrix(1 0 -0 1 0 792)" font-size="11.04" font-family="Arial"><tspan y="-316.42" x="57.864"> </tspan></text>
</g>
<g clip-path="url(#clip_155)">
<text xml:space="preserve" transform="matrix(1 0 -0 1 0 792)" font-size="11.04" font-family="Helvetica"><tspan y="-316.42" x="67.464 73.69055 76.80383 79.68527 85.91183 91.43182 94.545108 97.65839 100.539829 106.76638 109.16206 112.0435 118.27006 124.26478 130.49134 133.60462 139.12462 145.35118 154.22734 157.34062 166.45966 172.68622 178.68094 184.9075 191.13407">https://github.com/manuel</tspan></text>
</g>
<g clip-path="url(#clip_156)">
<text xml:space="preserve" transform="matrix(1 0 -0 1 0 792)" font-size="11.04" font-family="Helvetica"><tspan y="-316.42" x="193.75">-</tspan></text>
</g>
<g clip-path="url(#clip_157)">
<text xml:space="preserve" transform="matrix(1 0 -0 1 0 792)" font-size="11.04" font-family="Helvetica"><tspan y="-316.42" x="197.11 203.33657 209.56313 214.84026 221.06682 227.29338">dev04/</tspan></text>
</g>
<g clip-path="url(#clip_158)">
<text xml:space="preserve" transform="matrix(1 0 -0 1 0 792)" font-size="11.04" font-family="Helvetica"><tspan y="-316.42" x="230.26 237.68991 243.68463 246.79792">Path</tspan></text>
</g>
<g clip-path="url(#clip_159)">
<text xml:space="preserve" transform="matrix(1 0 -0 1 0 792)" font-size="11.04" font-family="Helvetica"><tspan y="-316.42" x="253.06">-</tspan></text>
</g>
<g clip-path="url(#clip_160)">
<text xml:space="preserve" transform="matrix(1 0 -0 1 0 792)" font-size="11.04" font-family="Helvetica"><tspan y="-316.42" x="256.66 265.53617 271.76274 277.9893 283.984 290.21058 296.43714">Manager</tspan></text>
</g>
<g clip-path="url(#clip_161)">
<text xml:space="preserve" transform="matrix(1 0 -0 1 0 792)" font-size="11.04" font-family="Helvetica"><tspan y="-316.42" x="299.88"> </tspan></text>
</g>
<g clip-path="url(#clip_162)">
</g>
<g clip-path="url(#clip_163)">
<text xml:space="preserve" transform="matrix(1 0 -0 1 0 792)" font-size="6.96" font-family="Helvetica"><tspan y="-302.26" x="54.024"> </tspan></text>
</g>
<g clip-path="url(#clip_164)">
</g>
<g clip-path="url(#clip_165)">
<text xml:space="preserve" transform="matrix(1 0 -0 1 0 792)" font-size="12" font-family="Helvetica,Bold" font-weight="bold"><tspan y="-286.9" x="54.024 63.864 67.2 74.423999 81.131999 87.840007 97.176 103.908008 110.616008 118.04401 124.75201 129.31201 132.64801 142.02 148.728 159.288">Minesweeper Game</tspan></text>
</g>
<g clip-path="url(#clip_166)">
<text xml:space="preserve" transform="matrix(1 0 -0 1 0 792)" font-size="11.04" font-family="Helvetica,Bold" font-weight="bold"><tspan y="-286.9" x="166.15"> </tspan></text>
</g>
<g clip-path="url(#clip_167)">
<text xml:space="preserve" transform="matrix(1 0 -0 1 0 792)" font-size="11.04" font-family="Helvetica"><tspan y="-286.9" x="510.91 518.8257 525.05227 530.57229 533.68557 539.6803 545.90689 551.9016">Nov 2022</tspan></text>
</g>
<g clip-path="url(#clip_168)">
<text xml:space="preserve" transform="matrix(1 0 -0 1 0 792)" font-size="11.04" font-family="Helvetica,Bold" font-weight="bold"><tspan y="-286.9" x="558.22 561.33328 564.21469 567.32797">    </tspan></text>
</g>
<g clip-path="url(#clip_169)">
<text xml:space="preserve" transform="matrix(1 0 -0 1 0 792)" font-size="12" font-family="Helvetica,Bold" font-weight="bold"><tspan y="-286.9" x="570.22"> </tspan></text>
</g>
<g clip-path="url(#clip_170)">
</g>
<g clip-path="url(#clip_171)">
<text xml:space="preserve" transform="matrix(1 0 -0 1 0 792)" font-size="11.04" font-family="Times New Roman"><tspan y="-266.98" x="54.024">&#x25aa;</tspan></text>
</g>
<g clip-path="url(#clip_172)">
<text xml:space="preserve" transform="matrix(1 0 -0 1 0 792)" font-size="11.04" font-family="Arial"><tspan y="-266.98" x="57.864"> </tspan></text>
</g>
<g clip-path="url(#clip_173)">
<text xml:space="preserve" transform="matrix(1 0 -0 1 0 792)" font-size="11.04" font-family="Helvetica"><tspan y="-266.98" x="67.464 75.37968 81.60623 87.12623 89.52191 95.74847 101.74319 107.96974 113.96446 120.43391 126.66046 132.65518 138.88175 145.59407 147.98975 157.10878 163.33535 165.49919 171.72576 180.84479 186.83951 193.06607 196.17935 202.17407 208.1688 214.88112 220.87584 227.1024 233.57184 239.7984 245.79312 248.9064 251.30208 260.42115 262.8168 268.3368 274.56336 280.55809 287.2704 296.14656 298.5422 304.76878 310.7635 316.28349 324.19917 330.42573 336.42045 342.647 348.87358 352.47264 358.94209 364.9368 371.16337 380.2824 386.27714 392.98945 395.3851 401.37983">Designed and implemented an optimized Minesweeper game in </tspan></text>
</g>
<g clip-path="url(#clip_174)">
<text xml:space="preserve" transform="matrix(1 0 -0 1 0 792)" font-size="11.04" font-family="Helvetica,Bold" font-weight="bold"><tspan y="-266.98" x="408.62 416.04994 422.04466 425.6437 432.38917 439.0794">Python</tspan></text>
</g>
<g clip-path="url(#clip_175)">
<text xml:space="preserve" transform="matrix(1 0 -0 1 0 792)" font-size="11.04" font-family="Helvetica"><tspan y="-266.98" x="445.85"> </tspan></text>
</g>
<g clip-path="url(#clip_176)">
<text xml:space="preserve" transform="matrix(1 0 -0 1 0 792)" font-size="11.04" font-family="Helvetica"><tspan y="-266.98" x="452.57 458.56474 464.08473 466.48039 472.70695 478.70167 485.1711 491.39768 497.62425 500.0199 506.01463 511.5346">using object</tspan></text>
</g>
<g clip-path="url(#clip_177)">
<text xml:space="preserve" transform="matrix(1 0 -0 1 0 792)" font-size="11.04" font-family="Helvetica"><tspan y="-266.98" x="514.75">-</tspan></text>
</g>
<g clip-path="url(#clip_178)">
<text xml:space="preserve" transform="matrix(1 0 -0 1 0 792)" font-size="11.04" font-family="Helvetica"><tspan y="-266.98" x="518.35 524.57656 528.1756 530.5713 536.56607 542.7926 545.9059 551.90066 558.1272">oriented </tspan></text>
</g>
<g clip-path="url(#clip_179)">
</g>
<g clip-path="url(#clip_180)">
<text xml:space="preserve" transform="matrix(1 0 -0 1 0 792)" font-size="11.04" font-family="Helvetica"><tspan y="-248.95" x="67.464 73.69055 77.2896 83.51615 89.74271 93.09887 99.325428 108.444469 117.56351 119.95919 126.185749 132.41231 135.29375 141.52031 145.11934 147.51502 153.74158 159.26158 161.65726 167.88382 170.04767 176.27423 181.79424 184.90752 188.0208 191.37696 197.60352 203.12352 209.35009 211.74576 214.85904 217.02289 223.24945 229.47602 232.5893 234.75315 240.9797 244.09299 250.0877 253.20099 259.42756 264.70466 270.9312">programming principles, resulting in a user</tspan></text>
</g>
<g clip-path="url(#clip_181)">
<text xml:space="preserve" transform="matrix(1 0 -0 1 0 792)" font-size="11.04" font-family="Helvetica"><tspan y="-248.95" x="274.9">-</tspan></text>
</g>
<g clip-path="url(#clip_182)">
<text xml:space="preserve" transform="matrix(1 0 -0 1 0 792)" font-size="11.04" font-family="Helvetica"><tspan y="-248.95" x="278.26 281.60514 285.2042 287.59986 293.82643 299.82115 306.0477 308.44337 313.96336 317.07664 323.3032 329.2979 335.52449 338.4059 344.40065 347.51393 350.85905 353.2547 358.7747 361.17036 367.16508 373.39164 376.27308 379.38636 385.38108 391.60765 400.72669 406.95326 413.1798 415.34364 421.5702 427.09019 429.97163 436.19819 441.71818 447.7129 453.93946 457.5385 459.93418 466.16075 472.3873">friendly and efficient gameplay experienc</tspan></text>
</g>
<g clip-path="url(#clip_183)">
<text xml:space="preserve" transform="matrix(1 0 -0 1 0 792)" font-size="11.04" font-family="Helvetica"><tspan y="-248.95" x="478.01 484.25025">e.</tspan></text>
</g>
<g clip-path="url(#clip_184)">
<text xml:space="preserve" transform="matrix(1 0 -0 1 0 792)" font-size="11.04" font-family="Helvetica"><tspan y="-248.95" x="487.15"> </tspan></text>
</g>
<g clip-path="url(#clip_185)">
</g>
<g clip-path="url(#clip_186)">
<text xml:space="preserve" transform="matrix(1 0 -0 1 0 792)" font-size="11.04" font-family="Times New Roman"><tspan y="-231.19" x="54.024">&#x25aa;</tspan></text>
</g>
<g clip-path="url(#clip_187)">
<text xml:space="preserve" transform="matrix(1 0 -0 1 0 792)" font-size="11.04" font-family="Arial"><tspan y="-231.19" x="57.864"> </tspan></text>
</g>
<g clip-path="url(#clip_188)">
<text xml:space="preserve" transform="matrix(1 0 -0 1 0 792)" font-size="11.04" font-family="Helvetica"><tspan y="-231.19" x="67.464 73.69055 76.80383 79.68527 85.91183 91.43182 94.545108 97.65839 100.539829 106.76638 109.16206 112.0435 118.27006 124.26478 130.49134 133.60462 139.12462 145.35118 154.22734 157.34062 166.45966 172.68622 178.68094 184.9075 191.13407">https://github.com/manuel</tspan></text>
</g>
<g clip-path="url(#clip_189)">
<text xml:space="preserve" transform="matrix(1 0 -0 1 0 792)" font-size="11.04" font-family="Helvetica"><tspan y="-231.19" x="193.75">-</tspan></text>
</g>
<g clip-path="url(#clip_190)">
<text xml:space="preserve" transform="matrix(1 0 -0 1 0 792)" font-size="11.04" font-family="Helvetica"><tspan y="-231.19" x="197.11 203.33657 209.56313 214.84026 221.06682 227.29338 230.40666 239.28282 241.6785 247.90506 254.13162 259.6516 267.33546 273.562 279.55674 285.7833 292.00987">dev04/Minesweeper</tspan></text>
</g>
<g clip-path="url(#clip_191)">
<text xml:space="preserve" transform="matrix(1 0 -0 1 0 792)" font-size="11.04" font-family="Helvetica"><tspan y="-231.19" x="295.56"> </tspan></text>
</g>
<g clip-path="url(#clip_192)">
</g>
<g clip-path="url(#clip_193)">
<text xml:space="preserve" transform="matrix(1 0 -0 1 0 792)" font-size="11.04" font-family="Helvetica"><tspan y="-213.67" x="54.024"> </tspan></text>
</g>
<g clip-path="url(#clip_194)">
<text xml:space="preserve" transform="matrix(1 0 -0 1 0 792)" font-size="12" font-family="Helvetica,Bold" font-weight="bold"><tspan y="-200.47" x="54.024 61.944 68.423999 72.492 79.69199 87.119998 94.31999">Python </tspan></text>
</g>
<g clip-path="url(#clip_195)">
<text xml:space="preserve" transform="matrix(1 0 -0 1 0 792)" font-size="12" font-family="Helvetica,Bold" font-weight="bold"><tspan y="-200.47" x="97.968 107.80801 111.144008 118.368007">Mini</tspan></text>
</g>
<g clip-path="url(#clip_196)">
<text xml:space="preserve" transform="matrix(1 0 -0 1 0 792)" font-size="12" font-family="Helvetica,Bold" font-weight="bold"><tspan y="-200.47" x="121.73">-</tspan></text>
</g>
<g clip-path="url(#clip_197)">
<text xml:space="preserve" transform="matrix(1 0 -0 1 0 792)" font-size="12" font-family="Helvetica,Bold" font-weight="bold"><tspan y="-200.47" x="125.81 133.23799 136.57399 144.02599 148.58599 155.29398 159.85398">Library</tspan></text>
</g>
<g clip-path="url(#clip_198)">
<text xml:space="preserve" transform="matrix(1 0 -0 1 0 792)" font-size="11.04" font-family="Helvetica,Bold" font-weight="bold"><tspan y="-200.47" x="166.63"> </tspan></text>
</g>
<g clip-path="url(#clip_199)">
<text xml:space="preserve" transform="matrix(1 0 -0 1 0 792)" font-size="11.04" font-family="Helvetica"><tspan y="-200.47" x="512.83 521.4633 527.6899 530.80319 533.6846 539.91116 545.9059 552.13247">Out 2022</tspan></text>
</g>
<g clip-path="url(#clip_200)">
<text xml:space="preserve" transform="matrix(1 0 -0 1 0 792)" font-size="11.04" font-family="Helvetica,Bold" font-weight="bold"><tspan y="-200.47" x="558.22"> </tspan></text>
</g>
<g clip-path="url(#clip_201)">
<text xml:space="preserve" transform="matrix(1 0 -0 1 0 792)" font-size="11.04" font-family="Helvetica,Bold" font-weight="bold"><tspan y="-200.47" x="561.1"> </tspan></text>
</g>
<g clip-path="url(#clip_202)">
</g>
<g clip-path="url(#clip_203)">
<text xml:space="preserve" transform="matrix(1 0 -0 1 0 792)" font-size="11.04" font-family="Times New Roman"><tspan y="-180.31" x="54.024">&#x25aa;</tspan></text>
</g>
<g clip-path="url(#clip_204)">
<text xml:space="preserve" transform="matrix(1 0 -0 1 0 792)" font-size="11.04" font-family="Arial"><tspan y="-180.31" x="57.864"> </tspan></text>
</g>
<g clip-path="url(#clip_205)">
<text xml:space="preserve" transform="matrix(1 0 -0 1 0 792)" font-size="11.04" font-family="Helvetica"><tspan y="-180.31" x="67.464 75.37968 81.60623 87.12623 93.35278 95.74847 101.74319 107.96974 113.96446 120.19102 123.53614 129.7627">Developed a </tspan></text>
</g>
<g clip-path="url(#clip_206)">
<text xml:space="preserve" transform="matrix(1 0 -0 1 0 792)" font-size="11.04" font-family="Helvetica"><tspan y="-180.31" x="133.49 142.60904 145.00472 151.23128">mini</tspan></text>
</g>
<g clip-path="url(#clip_207)">
<text xml:space="preserve" transform="matrix(1 0 -0 1 0 792)" font-size="11.04" font-family="Helvetica"><tspan y="-180.31" x="153.41"> </tspan></text>
</g>
<g clip-path="url(#clip_208)">
<text xml:space="preserve" transform="matrix(1 0 -0 1 0 792)" font-size="11.04" font-family="Helvetica,Bold" font-weight="bold"><tspan y="-180.31" x="157.01 164.43991 170.43463 174.03366 180.7791 187.46933">Python</tspan></text>
</g>
<g clip-path="url(#clip_209)">
<text xml:space="preserve" transform="matrix(1 0 -0 1 0 792)" font-size="11.04" font-family="Helvetica"><tspan y="-180.31" x="194.23"> </tspan></text>
</g>
<g clip-path="url(#clip_210)">
<text xml:space="preserve" transform="matrix(1 0 -0 1 0 792)" font-size="11.04" font-family="Helvetica"><tspan y="-180.31" x="197.83 200.22568 202.62136 208.84792 212.44695 218.67351 222.27254 227.54967 231.13767 236.65767 242.65239 248.87895 254.39896 256.79463 262.3146 265.4279 267.82356 273.81828 280.04484 283.38996 289.38468 292.7298 296.07493 301.5949 307.58964 313.10963 319.33619 322.93525 329.1618 331.55747 335.14549 344.26454 350.25926 353.37254 359.36726 365.5938 371.82038 377.09748 380.6855 383.56694 389.7935 393.3815 398.9015 401.29716 410.4162 416.64277 419.03843 421.20225 424.54737">library consisting of several methods to simplify</tspan></text>
</g>
<g clip-path="url(#clip_211)">
<text xml:space="preserve" transform="matrix(1 0 -0 1 0 792)" font-size="11.04" font-family="Helvetica"><tspan y="-180.31" x="430.25"> </tspan></text>
</g>
<g clip-path="url(#clip_212)">
<text xml:space="preserve" transform="matrix(1 0 -0 1 0 792)" font-size="11.04" font-family="Helvetica"><tspan y="-180.31" x="433.85 439.84474 446.0713 452.29786 455.65403 461.88059 464.99388 467.38954 473.38426 479.6108">operations</tspan></text>
</g>
<g clip-path="url(#clip_213)">
<text xml:space="preserve" transform="matrix(1 0 -0 1 0 792)" font-size="11.04" font-family="Helvetica"><tspan y="-180.31" x="485.23 488.3433 491.9313 494.32698 503.20314 509.4297 513.02877 519.2553 524.7753 530.7701 534.35806 539.87808 545.8728 551.86758 558.0941">, improve code </tspan></text>
</g>
<g clip-path="url(#clip_214)">
</g>
<g clip-path="url(#clip_215)">
<text xml:space="preserve" transform="matrix(1 0 -0 1 0 792)" font-size="11.04" font-family="Helvetica"><tspan y="-162.53" x="67.464 73.45872 76.572 79.91712 82.312808 87.8328 90.228488 96.223209 102.44976 107.96976 113.48975 116.37119 119.484477 125.479198 131.70575 137.93231 141.0456 143.20944 149.436 154.95601 158.55504 164.54976 170.77632 176.29633 182.52289 185.40433 191.63089 195.22992 201.22464 207.4512 213.67777 218.9549 222.06818 224.46385 229.98386 232.37953 235.49282 241.01282 244.1261 247.23938 250.83841 257.06498 262.34208 268.56864 270.9643 274.07759 276.47325 282.46797 288.69453 291.8078 293.97163 300.19819 303.31147 309.30619 312.18763 315.78669 322.01325 328.2398 333.7598 339.75453 345.98109 348.37675">efficiency, and increase productivity, resulting in a reusable</tspan></text>
</g>
<g clip-path="url(#clip_216)">
<text xml:space="preserve" transform="matrix(1 0 -0 1 0 792)" font-size="11.04" font-family="Helvetica"><tspan y="-162.53" x="355.1"> </tspan></text>
</g>
<g clip-path="url(#clip_217)">
<text xml:space="preserve" transform="matrix(1 0 -0 1 0 792)" font-size="11.04" font-family="Helvetica"><tspan y="-162.53" x="357.98 363.5 369.72657 378.8456 384.84034 391.0669 397.0616 403.28819 409.2829 412.39619">components</tspan></text>
</g>
<g clip-path="url(#clip_218)">
<text xml:space="preserve" transform="matrix(1 0 -0 1 0 792)" font-size="11.04" font-family="Helvetica"><tspan y="-162.53" x="417.98"> </tspan></text>
</g>
<g clip-path="url(#clip_219)">
<text xml:space="preserve" transform="matrix(1 0 -0 1 0 792)" font-size="11.04" font-family="Helvetica"><tspan y="-162.53" x="420.89 424.0033 430.22987 433.82893 436.71037 439.82365 446.0502 449.16349 455.39006 458.74623 464.97279 468.08607 474.31263 477.6688 483.89537 486.29103 492.51759 498.03758 500.919">for future projects</tspan></text>
</g>
<g clip-path="url(#clip_220)">
<text xml:space="preserve" transform="matrix(1 0 -0 1 0 792)" font-size="11.04" font-family="Helvetica"><tspan y="-162.53" x="506.59">.</tspan></text>
</g>
<g clip-path="url(#clip_221)">
<text xml:space="preserve" transform="matrix(1 0 -0 1 0 792)" font-size="11.04" font-family="Helvetica,Bold" font-weight="bold"><tspan y="-162.53" x="509.47"> </tspan></text>
</g>
<g clip-path="url(#clip_222)">
</g>
<g clip-path="url(#clip_223)">
<text xml:space="preserve" transform="matrix(1 0 -0 1 0 792)" font-size="11.04" font-family="Times New Roman"><tspan y="-144.77" x="54.024">&#x25aa;</tspan></text>
</g>
<g clip-path="url(#clip_224)">
<text xml:space="preserve" transform="matrix(1 0 -0 1 0 792)" font-size="11.04" font-family="Arial"><tspan y="-144.77" x="57.864"> </tspan></text>
</g>
<g clip-path="url(#clip_225)">
<text xml:space="preserve" transform="matrix(1 0 -0 1 0 792)" font-size="11.04" font-family="Helvetica"><tspan y="-144.77" x="67.464 73.69055 76.80383 79.68527 85.91183 91.43182 94.545108 97.65839 100.539829 106.76638 109.16206 112.0435 118.27006 124.26478 130.49134 133.60462 139.12462 145.35118 154.22734 157.34062 166.45966 172.68622 178.68094 184.9075 191.13407">https://github.com/manuel</tspan></text>
</g>
<g clip-path="url(#clip_226)">
<text xml:space="preserve" transform="matrix(1 0 -0 1 0 792)" font-size="11.04" font-family="Helvetica"><tspan y="-144.77" x="193.75">-</tspan></text>
</g>
<g clip-path="url(#clip_227)">
<text xml:space="preserve" transform="matrix(1 0 -0 1 0 792)" font-size="11.04" font-family="Helvetica"><tspan y="-144.77" x="197.11 203.33657 209.56313 214.84026 221.06682 227.29338 230.17482 237.60474 243.12474 246.00618 252.23274 258.22746">dev04/Python</tspan></text>
</g>
<g clip-path="url(#clip_228)">
<text xml:space="preserve" transform="matrix(1 0 -0 1 0 792)" font-size="11.04" font-family="Helvetica"><tspan y="-144.77" x="264.58">-</tspan></text>
</g>
<g clip-path="url(#clip_229)">
<text xml:space="preserve" transform="matrix(1 0 -0 1 0 792)" font-size="11.04" font-family="Helvetica"><tspan y="-144.77" x="268.18 277.05616 279.4518 285.67839">Mini</tspan></text>
</g>
<g clip-path="url(#clip_230)">
<text xml:space="preserve" transform="matrix(1 0 -0 1 0 792)" font-size="11.04" font-family="Helvetica"><tspan y="-144.77" x="288.1">-</tspan></text>
</g>
<g clip-path="url(#clip_231)">
<text xml:space="preserve" transform="matrix(1 0 -0 1 0 792)" font-size="11.04" font-family="Helvetica"><tspan y="-144.77" x="291.72 297.94657 300.34223 306.5688 310.16786 316.3944 319.99348">Library</tspan></text>
</g>
<g clip-path="url(#clip_232)">
<text xml:space="preserve" transform="matrix(1 0 -0 1 0 792)" font-size="11.04" font-family="Helvetica"><tspan y="-144.77" x="325.56"> </tspan></text>
</g>
<g clip-path="url(#clip_233)">
</g>
<g clip-path="url(#clip_234)">
<text xml:space="preserve" transform="matrix(1 0 -0 1 0 792)" font-size="10.08" font-family="Helvetica"><tspan y="-127.97" x="54.024"> </tspan></text>
</g>
<g clip-path="url(#clip_235)">
</g>
<g clip-path="url(#clip_236)">
<text xml:space="preserve" transform="matrix(1 0 -0 1 0 792)" font-size="13.92" font-family="Helvetica,Bold" font-weight="bold"><tspan y="-108.29" x="54.024 63.86544 74.16624 84.995998 95.046237 103.676639 107.546398 119.26704">ABOUT ME</tspan></text>
</g>
<g clip-path="url(#clip_237)">
<text xml:space="preserve" transform="matrix(1 0 -0 1 0 792)" font-size="12.96" font-family="Helvetica"><tspan y="-108.29" x="128.69"> </tspan></text>
</g>
<g clip-path="url(#clip_238)">
<path transform="matrix(1,0,0,-1,0,792)" d="M52.584 99.408H559.654V101.568H52.584Z" fill="#6c6c6c" fill-rule="evenodd"/>
</g>
<g clip-path="url(#clip_239)">
<text xml:space="preserve" transform="matrix(1 0 -0 1 0 792)" font-size="6.96" font-family="Helvetica"><tspan y="-92.688" x="54.024"> </tspan></text>
</g>
<g clip-path="url(#clip_240)">
<text xml:space="preserve" transform="matrix(1 0 -0 1 0 792)" font-size="11.04" font-family="Times New Roman"><tspan y="-77.784" x="54.024">&#x25aa;</tspan></text>
</g>
<g clip-path="url(#clip_241)">
<text xml:space="preserve" transform="matrix(1 0 -0 1 0 792)" font-size="11.04" font-family="Arial"><tspan y="-77.784" x="57.864"> </tspan></text>
</g>
<g clip-path="url(#clip_242)">
<text xml:space="preserve" transform="matrix(1 0 -0 1 0 792)" font-size="11.04" font-family="Helvetica"><tspan y="-77.784" x="67.464 74.89391 81.12047 86.640468 92.16046 94.556148 100.550868 106.77742 112.77214 115.88542">Passionate</tspan></text>
</g>
<g clip-path="url(#clip_243)">
<text xml:space="preserve" transform="matrix(1 0 -0 1 0 792)" font-size="11.04" font-family="Helvetica"><tspan y="-77.784" x="122.21"> </tspan></text>
</g>
<g clip-path="url(#clip_244)">
<text xml:space="preserve" transform="matrix(1 0 -0 1 0 792)" font-size="11.04" font-family="Helvetica"><tspan y="-77.784" x="126.05 132.27657 138.50313 143.78026 150.00682 152.4025 158.39722 164.62378 170.85034">developer</tspan></text>
</g>
<g clip-path="url(#clip_245)">
<text xml:space="preserve" transform="matrix(1 0 -0 1 0 792)" font-size="11.04" font-family="Helvetica"><tspan y="-77.784" x="174.55"> </tspan></text>
</g>
<g clip-path="url(#clip_246)">
<text xml:space="preserve" transform="matrix(1 0 -0 1 0 792)" font-size="11.04" font-family="Helvetica"><tspan y="-77.784" x="178.63 186.54569 188.94136 191.8228 198.04936 202.12313 208.34969 212.42345 217.70058 223.92714 229.92186 236.14842 240.22219 246.2169 252.44347 257.96348 260.35914 263.9582 270.18476 274.2585 277.13996 283.36653 287.44029 289.83595 295.83067 302.05723 305.65629">with a keen desire to learn</tspan></text>
</g>
<g clip-path="url(#clip_247)">
<text xml:space="preserve" transform="matrix(1 0 -0 1 0 792)" font-size="11.04" font-family="Helvetica"><tspan y="-77.784" x="311.88 314.9933 319.06706 326.98274 333.2093 339.43586 343.26673 346.38 352.60658 356.20564 358.6013 364.12129 370.34785 375.86784 379.9416 382.1054 388.33198 392.40574 397.92573 404.15229 406.54795 408.71177 414.93833 420.93305 427.1596 430.75868 436.98524 440.0985 442.49418 448.01417 454.00889 458.08265 464.07737 470.30393 475.8239 478.21958 481.81864 488.0452 494.27177 503.14793 509.37449 515.601 518.7143">, who thrives in collaborative environments</tspan></text>
</g>
<g clip-path="url(#clip_248)">
<text xml:space="preserve" transform="matrix(1 0 -0 1 0 792)" font-size="11.04" font-family="Helvetica"><tspan y="-77.784" x="524.59"> </tspan></text>
</g>
<g clip-path="url(#clip_249)">
<text xml:space="preserve" transform="matrix(1 0 -0 1 0 792)" font-size="11.04" font-family="Helvetica"><tspan y="-77.784" x="528.67 536.5857 538.9814 541.8628 548.08938 551.9202 558.1468">with a </tspan></text>
</g>
<g clip-path="url(#clip_250)">
</g>
<g clip-path="url(#clip_251)">
<text xml:space="preserve" transform="matrix(1 0 -0 1 0 792)" font-size="11.04" font-family="Helvetica"><tspan y="-60.264" x="67.464 72.98399 76.097278 79.69632 85.922878 91.917598 98.14415 101.25743 107.25215 113.47871 115.87439 118.27007 120.66576 123.77904 129.29904 132.41233 135.29376 141.52033 144.40177 150.62833 154.22736 156.62303 162.8496 166.44863 168.8443 171.95758 174.35326 179.87326 186.09983 188.98126 195.20783 201.20255 207.42911 210.54239 219.66143 225.65615 231.8827 237.87743 244.10399 250.09871 253.21199 262.33106 268.55763 270.95329 274.06657 276.46223 282.68879 284.8526 291.07917 294.19245 297.07389 303.30046 308.57756 314.09754 319.61753 322.7308 325.8441 332.07066">strong ability to prioritize and manage multiple tasks to </tspan></text>
</g>
<g clip-path="url(#clip_252)">
<text xml:space="preserve" transform="matrix(1 0 -0 1 0 792)" font-size="11.04" font-family="Helvetica"><tspan y="-60.264" x="335.4 341.3947 347.62129 353.14128 359.36784 362.9669 368.9616 372.0749 375.18818 381.1829 387.40946 390.2909 396.51747 402.03746 408.264 410.42784 416.6544 422.17439 428.40095 437.2771 443.50367 449.73023 452.61167 455.72496 461.71968 464.83296">ensure the achievement of </tspan></text>
</g>
<g clip-path="url(#clip_253)">
<text xml:space="preserve" transform="matrix(1 0 -0 1 0 792)" font-size="11.04" font-family="Helvetica"><tspan y="-60.264" x="468.17 474.39659 477.99565 484.2222 486.38603 492.61259 498.13258 501.24586">project </tspan></text>
</g>
<g clip-path="url(#clip_254)">
<text xml:space="preserve" transform="matrix(1 0 -0 1 0 792)" font-size="11.04" font-family="Helvetica"><tspan y="-60.264" x="504.19 510.41658 516.4113 522.6379 525.03359">goals</tspan></text>
</g>
<g clip-path="url(#clip_255)">
<text xml:space="preserve" transform="matrix(1 0 -0 1 0 792)" font-size="11.04" font-family="Helvetica"><tspan y="-60.264" x="530.59">.</tspan></text>
</g>
<g clip-path="url(#clip_256)">
<text xml:space="preserve" transform="matrix(1 0 -0 1 0 792)" font-size="11.04" font-family="Helvetica"><tspan y="-60.264" x="533.47"> </tspan></text>
</g>
<g clip-path="url(#clip_257)">
</g>
</g>
</svg>
