<svg xmlns="http://www.w3.org/2000/svg" xmlns:xlink="http://www.w3.org/1999/xlink" version="1.1" width="612pt" height="792pt" viewBox="0 0 612 792">
<defs>
<clipPath id="clip_0">
<path transform="matrix(1,0,0,-1,0,792)" d="M.00000912 0H612V792H.00000912Z" fill-rule="evenodd"/>
</clipPath>
<clipPath id="clip_1">
<path transform="matrix(1,0,0,-1,0,792)" d="M.00000912 0H612V792H.00000912Z" fill-rule="evenodd"/>
</clipPath>
<clipPath id="clip_2">
<path transform="matrix(1,0,0,-1,0,792)" d="M.00000912 0H612V792H.00000912Z" fill-rule="evenodd"/>
</clipPath>
<clipPath id="clip_3">
<path transform="matrix(1,0,0,-1,0,792)" d="M.00000912 0H612V792H.00000912Z" fill-rule="evenodd"/>
</clipPath>
<clipPath id="clip_4">
<path transform="matrix(1,0,0,-1,0,792)" d="M.00000912 0H612V792H.00000912Z" fill-rule="evenodd"/>
</clipPath>
<clipPath id="clip_5">
<path transform="matrix(1,0,0,-1,0,792)" d="M.00000912 0H612V792H.00000912Z" fill-rule="evenodd"/>
</clipPath>
<clipPath id="clip_6">
<path transform="matrix(1,0,0,-1,0,792)" d="M.00000912 0H612V792H.00000912Z" fill-rule="evenodd"/>
</clipPath>
<clipPath id="clip_7">
<path transform="matrix(1,0,0,-1,0,792)" d="M.00000912 0H612V792H.00000912Z" fill-rule="evenodd"/>
</clipPath>
<clipPath id="clip_8">
<path transform="matrix(1,0,0,-1,0,792)" d="M.00000912 0H612V792H.00000912Z" fill-rule="evenodd"/>
</clipPath>
<clipPath id="clip_9">
<path transform="matrix(1,0,0,-1,0,792)" d="M.00000912 0H612V792H.00000912Z" fill-rule="evenodd"/>
</clipPath>
<clipPath id="clip_10">
<path transform="matrix(1,0,0,-1,0,792)" d="M.00000912 0H612V792H.00000912Z" fill-rule="evenodd"/>
</clipPath>
<clipPath id="clip_11">
<path transform="matrix(1,0,0,-1,0,792)" d="M.00000912 0H612V792H.00000912Z" fill-rule="evenodd"/>
</clipPath>
<clipPath id="clip_12">
<path transform="matrix(1,0,0,-1,0,792)" d="M.00000912 0H612V792H.00000912Z" fill-rule="evenodd"/>
</clipPath>
<clipPath id="clip_13">
<path transform="matrix(1,0,0,-1,0,792)" d="M.00000912 0H612V792H.00000912Z" fill-rule="evenodd"/>
</clipPath>
<clipPath id="clip_14">
<path transform="matrix(1,0,0,-1,0,792)" d="M.00000912 0H612V792H.00000912Z" fill-rule="evenodd"/>
</clipPath>
<clipPath id="clip_15">
<path transform="matrix(1,0,0,-1,0,792)" d="M.00000912 0H612V792H.00000912Z" fill-rule="evenodd"/>
</clipPath>
<clipPath id="clip_16">
<path transform="matrix(1,0,0,-1,0,792)" d="M.00000912 0H612V792H.00000912Z" fill-rule="evenodd"/>
</clipPath>
<clipPath id="clip_17">
<path transform="matrix(1,0,0,-1,0,792)" d="M.00000912 0H612V792H.00000912Z" fill-rule="evenodd"/>
</clipPath>
<clipPath id="clip_18">
<path transform="matrix(1,0,0,-1,0,792)" d="M.00000912 0H612V792H.00000912Z" fill-rule="evenodd"/>
</clipPath>
<clipPath id="clip_19">
<path transform="matrix(1,0,0,-1,0,792)" d="M.00000912 0H612V792H.00000912Z" fill-rule="evenodd"/>
</clipPath>
<clipPath id="clip_20">
<path transform="matrix(1,0,0,-1,0,792)" d="M.00000912 0H612V792H.00000912Z" fill-rule="evenodd"/>
</clipPath>
<clipPath id="clip_21">
<path transform="matrix(1,0,0,-1,0,792)" d="M.00000912 0H612V792H.00000912Z" fill-rule="evenodd"/>
</clipPath>
<clipPath id="clip_22">
<path transform="matrix(1,0,0,-1,0,792)" d="M.00000912 0H612V792H.00000912Z" fill-rule="evenodd"/>
</clipPath>
<clipPath id="clip_23">
<path transform="matrix(1,0,0,-1,0,792)" d="M.00000912 0H612V792H.00000912Z" fill-rule="evenodd"/>
</clipPath>
<clipPath id="clip_24">
<path transform="matrix(1,0,0,-1,0,792)" d="M.00000912 0H612V792H.00000912Z" fill-rule="evenodd"/>
</clipPath>
<clipPath id="clip_25">
<path transform="matrix(1,0,0,-1,0,792)" d="M.00000912 0H612V792H.00000912Z" fill-rule="evenodd"/>
</clipPath>
<clipPath id="clip_26">
<path transform="matrix(1,0,0,-1,0,792)" d="M.00000912 0H612V792H.00000912Z" fill-rule="evenodd"/>
</clipPath>
<clipPath id="clip_27">
<path transform="matrix(1,0,0,-1,0,792)" d="M.00000912 0H612V792H.00000912Z" fill-rule="evenodd"/>
</clipPath>
<clipPath id="clip_28">
<path transform="matrix(1,0,0,-1,0,792)" d="M.00000912 0H612V792H.00000912Z" fill-rule="evenodd"/>
</clipPath>
<clipPath id="clip_29">
<path transform="matrix(1,0,0,-1,0,792)" d="M.00000912 0H612V792H.00000912Z" fill-rule="evenodd"/>
</clipPath>
<clipPath id="clip_30">
<path transform="matrix(1,0,0,-1,0,792)" d="M.00000912 0H612V792H.00000912Z" fill-rule="evenodd"/>
</clipPath>
<clipPath id="clip_31">
<path transform="matrix(1,0,0,-1,0,792)" d="M.00000912 0H612V792H.00000912Z" fill-rule="evenodd"/>
</clipPath>
<clipPath id="clip_32">
<path transform="matrix(1,0,0,-1,0,792)" d="M.00000912 0H612V792H.00000912Z" fill-rule="evenodd"/>
</clipPath>
<clipPath id="clip_33">
<path transform="matrix(1,0,0,-1,0,792)" d="M.00000912 0H612V792H.00000912Z" fill-rule="evenodd"/>
</clipPath>
<clipPath id="clip_34">
<path transform="matrix(1,0,0,-1,0,792)" d="M.00000912 0H612V792H.00000912Z" fill-rule="evenodd"/>
</clipPath>
<clipPath id="clip_35">
<path transform="matrix(1,0,0,-1,0,792)" d="M.00000912 0H612V792H.00000912Z" fill-rule="evenodd"/>
</clipPath>
<clipPath id="clip_36">
<path transform="matrix(1,0,0,-1,0,792)" d="M.00000912 0H612V792H.00000912Z" fill-rule="evenodd"/>
</clipPath>
<clipPath id="clip_37">
<path transform="matrix(1,0,0,-1,0,792)" d="M.00000912 0H612V792H.00000912Z" fill-rule="evenodd"/>
</clipPath>
<clipPath id="clip_38">
<path transform="matrix(1,0,0,-1,0,792)" d="M.00000912 0H612V792H.00000912Z" fill-rule="evenodd"/>
</clipPath>
<clipPath id="clip_39">
<path transform="matrix(1,0,0,-1,0,792)" d="M.00000912 0H612V792H.00000912Z" fill-rule="evenodd"/>
</clipPath>
<clipPath id="clip_40">
<path transform="matrix(1,0,0,-1,0,792)" d="M.00000912 0H612V792H.00000912Z" fill-rule="evenodd"/>
</clipPath>
<clipPath id="clip_41">
<path transform="matrix(1,0,0,-1,0,792)" d="M.00000912 0H612V792H.00000912Z" fill-rule="evenodd"/>
</clipPath>
<clipPath id="clip_42">
<path transform="matrix(1,0,0,-1,0,792)" d="M.00000912 0H612V792H.00000912Z" fill-rule="evenodd"/>
</clipPath>
<clipPath id="clip_43">
<path transform="matrix(1,0,0,-1,0,792)" d="M.00000912 0H612V792H.00000912Z" fill-rule="evenodd"/>
</clipPath>
<clipPath id="clip_44">
<path transform="matrix(1,0,0,-1,0,792)" d="M.00000912 0H612V792H.00000912Z" fill-rule="evenodd"/>
</clipPath>
<clipPath id="clip_45">
<path transform="matrix(1,0,0,-1,0,792)" d="M.00000912 0H612V792H.00000912Z" fill-rule="evenodd"/>
</clipPath>
<clipPath id="clip_46">
<path transform="matrix(1,0,0,-1,0,792)" d="M.00000912 0H612V792H.00000912Z" fill-rule="evenodd"/>
</clipPath>
<clipPath id="clip_47">
<path transform="matrix(1,0,0,-1,0,792)" d="M.00000912 0H612V792H.00000912Z" fill-rule="evenodd"/>
</clipPath>
<clipPath id="clip_48">
<path transform="matrix(1,0,0,-1,0,792)" d="M.00000912 0H612V792H.00000912Z" fill-rule="evenodd"/>
</clipPath>
<clipPath id="clip_49">
<path transform="matrix(1,0,0,-1,0,792)" d="M.00000912 0H612V792H.00000912Z" fill-rule="evenodd"/>
</clipPath>
<clipPath id="clip_50">
<path transform="matrix(1,0,0,-1,0,792)" d="M.00000912 0H612V792H.00000912Z" fill-rule="evenodd"/>
</clipPath>
<clipPath id="clip_51">
<path transform="matrix(1,0,0,-1,0,792)" d="M.00000912 0H612V792H.00000912Z" fill-rule="evenodd"/>
</clipPath>
<clipPath id="clip_52">
<path transform="matrix(1,0,0,-1,0,792)" d="M.00000912 0H612V792H.00000912Z" fill-rule="evenodd"/>
</clipPath>
<clipPath id="clip_53">
<path transform="matrix(1,0,0,-1,0,792)" d="M.00000912 0H612V792H.00000912Z" fill-rule="evenodd"/>
</clipPath>
<clipPath id="clip_54">
<path transform="matrix(1,0,0,-1,0,792)" d="M.00000912 0H612V792H.00000912Z" fill-rule="evenodd"/>
</clipPath>
<clipPath id="clip_55">
<path transform="matrix(1,0,0,-1,0,792)" d="M.00000912 0H612V792H.00000912Z" fill-rule="evenodd"/>
</clipPath>
<clipPath id="clip_56">
<path transform="matrix(1,0,0,-1,0,792)" d="M.00000912 0H612V792H.00000912Z" fill-rule="evenodd"/>
</clipPath>
<clipPath id="clip_57">
<path transform="matrix(1,0,0,-1,0,792)" d="M.00000912 0H612V792H.00000912Z" fill-rule="evenodd"/>
</clipPath>
<clipPath id="clip_58">
<path transform="matrix(1,0,0,-1,0,792)" d="M.00000912 0H612V792H.00000912Z" fill-rule="evenodd"/>
</clipPath>
<clipPath id="clip_59">
<path transform="matrix(1,0,0,-1,0,792)" d="M.00000912 0H612V792H.00000912Z" fill-rule="evenodd"/>
</clipPath>
<clipPath id="clip_60">
<path transform="matrix(1,0,0,-1,0,792)" d="M.00000912 0H612V792H.00000912Z" fill-rule="evenodd"/>
</clipPath>
<clipPath id="clip_61">
<path transform="matrix(1,0,0,-1,0,792)" d="M.00000912 0H612V792H.00000912Z" fill-rule="evenodd"/>
</clipPath>
<clipPath id="clip_62">
<path transform="matrix(1,0,0,-1,0,792)" d="M.00000912 0H612V792H.00000912Z" fill-rule="evenodd"/>
</clipPath>
<clipPath id="clip_63">
<path transform="matrix(1,0,0,-1,0,792)" d="M.00000912 0H612V792H.00000912Z" fill-rule="evenodd"/>
</clipPath>
<clipPath id="clip_64">
<path transform="matrix(1,0,0,-1,0,792)" d="M.00000912 0H612V792H.00000912Z" fill-rule="evenodd"/>
</clipPath>
<clipPath id="clip_65">
<path transform="matrix(1,0,0,-1,0,792)" d="M.00000912 0H612V792H.00000912Z" fill-rule="evenodd"/>
</clipPath>
<clipPath id="clip_66">
<path transform="matrix(1,0,0,-1,0,792)" d="M.00000912 0H612V792H.00000912Z" fill-rule="evenodd"/>
</clipPath>
<clipPath id="clip_67">
<path transform="matrix(1,0,0,-1,0,792)" d="M.00000912 0H612V792H.00000912Z" fill-rule="evenodd"/>
</clipPath>
<clipPath id="clip_68">
<path transform="matrix(1,0,0,-1,0,792)" d="M.00000912 0H612V792H.00000912Z" fill-rule="evenodd"/>
</clipPath>
<clipPath id="clip_69">
<path transform="matrix(1,0,0,-1,0,792)" d="M.00000912 0H612V792H.00000912Z" fill-rule="evenodd"/>
</clipPath>
<clipPath id="clip_70">
<path transform="matrix(1,0,0,-1,0,792)" d="M.00000912 0H612V792H.00000912Z" fill-rule="evenodd"/>
</clipPath>
<clipPath id="clip_71">
<path transform="matrix(1,0,0,-1,0,792)" d="M.00000912 0H612V792H.00000912Z" fill-rule="evenodd"/>
</clipPath>
<clipPath id="clip_72">
<path transform="matrix(1,0,0,-1,0,792)" d="M.00000912 0H612V792H.00000912Z" fill-rule="evenodd"/>
</clipPath>
<clipPath id="clip_73">
<path transform="matrix(1,0,0,-1,0,792)" d="M.00000912 0H612V792H.00000912Z" fill-rule="evenodd"/>
</clipPath>
<clipPath id="clip_74">
<path transform="matrix(1,0,0,-1,0,792)" d="M.00000912 0H612V792H.00000912Z" fill-rule="evenodd"/>
</clipPath>
<clipPath id="clip_75">
<path transform="matrix(1,0,0,-1,0,792)" d="M.00000912 0H612V792H.00000912Z" fill-rule="evenodd"/>
</clipPath>
<clipPath id="clip_76">
<path transform="matrix(1,0,0,-1,0,792)" d="M.00000912 0H612V792H.00000912Z" fill-rule="evenodd"/>
</clipPath>
<clipPath id="clip_77">
<path transform="matrix(1,0,0,-1,0,792)" d="M.00000912 0H612V792H.00000912Z" fill-rule="evenodd"/>
</clipPath>
<clipPath id="clip_78">
<path transform="matrix(1,0,0,-1,0,792)" d="M.00000912 0H612V792H.00000912Z" fill-rule="evenodd"/>
</clipPath>
<clipPath id="clip_79">
<path transform="matrix(1,0,0,-1,0,792)" d="M.00000912 0H612V792H.00000912Z" fill-rule="evenodd"/>
</clipPath>
<clipPath id="clip_80">
<path transform="matrix(1,0,0,-1,0,792)" d="M.00000912 0H612V792H.00000912Z" fill-rule="evenodd"/>
</clipPath>
<clipPath id="clip_81">
<path transform="matrix(1,0,0,-1,0,792)" d="M.00000912 0H612V792H.00000912Z" fill-rule="evenodd"/>
</clipPath>
<clipPath id="clip_82">
<path transform="matrix(1,0,0,-1,0,792)" d="M.00000912 0H612V792H.00000912Z" fill-rule="evenodd"/>
</clipPath>
<clipPath id="clip_83">
<path transform="matrix(1,0,0,-1,0,792)" d="M.00000912 0H612V792H.00000912Z" fill-rule="evenodd"/>
</clipPath>
<clipPath id="clip_84">
<path transform="matrix(1,0,0,-1,0,792)" d="M.00000912 0H612V792H.00000912Z" fill-rule="evenodd"/>
</clipPath>
<clipPath id="clip_85">
<path transform="matrix(1,0,0,-1,0,792)" d="M.00000912 0H612V792H.00000912Z" fill-rule="evenodd"/>
</clipPath>
<clipPath id="clip_86">
<path transform="matrix(1,0,0,-1,0,792)" d="M.00000912 0H612V792H.00000912Z" fill-rule="evenodd"/>
</clipPath>
<clipPath id="clip_87">
<path transform="matrix(1,0,0,-1,0,792)" d="M.00000912 0H612V792H.00000912Z" fill-rule="evenodd"/>
</clipPath>
<clipPath id="clip_88">
<path transform="matrix(1,0,0,-1,0,792)" d="M.00000912 0H612V792H.00000912Z" fill-rule="evenodd"/>
</clipPath>
<clipPath id="clip_89">
<path transform="matrix(1,0,0,-1,0,792)" d="M.00000912 0H612V792H.00000912Z" fill-rule="evenodd"/>
</clipPath>
<clipPath id="clip_90">
<path transform="matrix(1,0,0,-1,0,792)" d="M.00000912 0H612V792H.00000912Z" fill-rule="evenodd"/>
</clipPath>
<clipPath id="clip_91">
<path transform="matrix(1,0,0,-1,0,792)" d="M.00000912 0H612V792H.00000912Z" fill-rule="evenodd"/>
</clipPath>
<clipPath id="clip_92">
<path transform="matrix(1,0,0,-1,0,792)" d="M.00000912 0H612V792H.00000912Z" fill-rule="evenodd"/>
</clipPath>
<clipPath id="clip_93">
<path transform="matrix(1,0,0,-1,0,792)" d="M.00000912 0H612V792H.00000912Z" fill-rule="evenodd"/>
</clipPath>
<clipPath id="clip_94">
<path transform="matrix(1,0,0,-1,0,792)" d="M.00000912 0H612V792H.00000912Z" fill-rule="evenodd"/>
</clipPath>
<clipPath id="clip_95">
<path transform="matrix(1,0,0,-1,0,792)" d="M.00000912 0H612V792H.00000912Z" fill-rule="evenodd"/>
</clipPath>
<clipPath id="clip_96">
<path transform="matrix(1,0,0,-1,0,792)" d="M.00000912 0H612V792H.00000912Z" fill-rule="evenodd"/>
</clipPath>
<clipPath id="clip_97">
<path transform="matrix(1,0,0,-1,0,792)" d="M.00000912 0H612V792H.00000912Z" fill-rule="evenodd"/>
</clipPath>
<clipPath id="clip_98">
<path transform="matrix(1,0,0,-1,0,792)" d="M.00000912 0H612V792H.00000912Z" fill-rule="evenodd"/>
</clipPath>
<clipPath id="clip_99">
<path transform="matrix(1,0,0,-1,0,792)" d="M.00000912 0H612V792H.00000912Z" fill-rule="evenodd"/>
</clipPath>
<clipPath id="clip_100">
<path transform="matrix(1,0,0,-1,0,792)" d="M.00000912 0H612V792H.00000912Z" fill-rule="evenodd"/>
</clipPath>
<clipPath id="clip_101">
<path transform="matrix(1,0,0,-1,0,792)" d="M.00000912 0H612V792H.00000912Z" fill-rule="evenodd"/>
</clipPath>
<clipPath id="clip_102">
<path transform="matrix(1,0,0,-1,0,792)" d="M.00000912 0H612V792H.00000912Z" fill-rule="evenodd"/>
</clipPath>
<clipPath id="clip_103">
<path transform="matrix(1,0,0,-1,0,792)" d="M.00000912 0H612V792H.00000912Z" fill-rule="evenodd"/>
</clipPath>
<clipPath id="clip_104">
<path transform="matrix(1,0,0,-1,0,792)" d="M.00000912 0H612V792H.00000912Z" fill-rule="evenodd"/>
</clipPath>
<clipPath id="clip_105">
<path transform="matrix(1,0,0,-1,0,792)" d="M.00000912 0H612V792H.00000912Z" fill-rule="evenodd"/>
</clipPath>
<clipPath id="clip_106">
<path transform="matrix(1,0,0,-1,0,792)" d="M.00000912 0H612V792H.00000912Z" fill-rule="evenodd"/>
</clipPath>
<clipPath id="clip_107">
<path transform="matrix(1,0,0,-1,0,792)" d="M.00000912 0H612V792H.00000912Z" fill-rule="evenodd"/>
</clipPath>
<clipPath id="clip_108">
<path transform="matrix(1,0,0,-1,0,792)" d="M.00000912 0H612V792H.00000912Z" fill-rule="evenodd"/>
</clipPath>
<clipPath id="clip_109">
<path transform="matrix(1,0,0,-1,0,792)" d="M.00000912 0H612V792H.00000912Z" fill-rule="evenodd"/>
</clipPath>
<clipPath id="clip_110">
<path transform="matrix(1,0,0,-1,0,792)" d="M.00000912 0H612V792H.00000912Z" fill-rule="evenodd"/>
</clipPath>
<clipPath id="clip_111">
<path transform="matrix(1,0,0,-1,0,792)" d="M.00000912 0H612V792H.00000912Z" fill-rule="evenodd"/>
</clipPath>
<clipPath id="clip_112">
<path transform="matrix(1,0,0,-1,0,792)" d="M.00000912 0H612V792H.00000912Z" fill-rule="evenodd"/>
</clipPath>
<clipPath id="clip_113">
<path transform="matrix(1,0,0,-1,0,792)" d="M.00000912 0H612V792H.00000912Z" fill-rule="evenodd"/>
</clipPath>
<clipPath id="clip_114">
<path transform="matrix(1,0,0,-1,0,792)" d="M.00000912 0H612V792H.00000912Z" fill-rule="evenodd"/>
</clipPath>
<clipPath id="clip_115">
<path transform="matrix(1,0,0,-1,0,792)" d="M.00000912 0H612V792H.00000912Z" fill-rule="evenodd"/>
</clipPath>
<clipPath id="clip_116">
<path transform="matrix(1,0,0,-1,0,792)" d="M.00000912 0H612V792H.00000912Z" fill-rule="evenodd"/>
</clipPath>
<clipPath id="clip_117">
<path transform="matrix(1,0,0,-1,0,792)" d="M.00000912 0H612V792H.00000912Z" fill-rule="evenodd"/>
</clipPath>
<clipPath id="clip_118">
<path transform="matrix(1,0,0,-1,0,792)" d="M.00000912 0H612V792H.00000912Z" fill-rule="evenodd"/>
</clipPath>
<clipPath id="clip_119">
<path transform="matrix(1,0,0,-1,0,792)" d="M.00000912 0H612V792H.00000912Z" fill-rule="evenodd"/>
</clipPath>
<clipPath id="clip_120">
<path transform="matrix(1,0,0,-1,0,792)" d="M.00000912 0H612V792H.00000912Z" fill-rule="evenodd"/>
</clipPath>
<clipPath id="clip_121">
<path transform="matrix(1,0,0,-1,0,792)" d="M.00000912 0H612V792H.00000912Z" fill-rule="evenodd"/>
</clipPath>
<clipPath id="clip_122">
<path transform="matrix(1,0,0,-1,0,792)" d="M.00000912 0H612V792H.00000912Z" fill-rule="evenodd"/>
</clipPath>
<clipPath id="clip_123">
<path transform="matrix(1,0,0,-1,0,792)" d="M.00000912 0H612V792H.00000912Z" fill-rule="evenodd"/>
</clipPath>
<clipPath id="clip_124">
<path transform="matrix(1,0,0,-1,0,792)" d="M.00000912 0H612V792H.00000912Z" fill-rule="evenodd"/>
</clipPath>
<clipPath id="clip_125">
<path transform="matrix(1,0,0,-1,0,792)" d="M.00000912 0H612V792H.00000912Z" fill-rule="evenodd"/>
</clipPath>
<clipPath id="clip_126">
<path transform="matrix(1,0,0,-1,0,792)" d="M.00000912 0H612V792H.00000912Z" fill-rule="evenodd"/>
</clipPath>
<clipPath id="clip_127">
<path transform="matrix(1,0,0,-1,0,792)" d="M.00000912 0H612V792H.00000912Z" fill-rule="evenodd"/>
</clipPath>
<clipPath id="clip_128">
<path transform="matrix(1,0,0,-1,0,792)" d="M.00000912 0H612V792H.00000912Z" fill-rule="evenodd"/>
</clipPath>
<clipPath id="clip_129">
<path transform="matrix(1,0,0,-1,0,792)" d="M.00000912 0H612V792H.00000912Z" fill-rule="evenodd"/>
</clipPath>
<clipPath id="clip_130">
<path transform="matrix(1,0,0,-1,0,792)" d="M.00000912 0H612V792H.00000912Z" fill-rule="evenodd"/>
</clipPath>
<clipPath id="clip_131">
<path transform="matrix(1,0,0,-1,0,792)" d="M.00000912 0H612V792H.00000912Z" fill-rule="evenodd"/>
</clipPath>
<clipPath id="clip_132">
<path transform="matrix(1,0,0,-1,0,792)" d="M.00000912 0H612V792H.00000912Z" fill-rule="evenodd"/>
</clipPath>
<clipPath id="clip_133">
<path transform="matrix(1,0,0,-1,0,792)" d="M.00000912 0H612V792H.00000912Z" fill-rule="evenodd"/>
</clipPath>
<clipPath id="clip_134">
<path transform="matrix(1,0,0,-1,0,792)" d="M.00000912 0H612V792H.00000912Z" fill-rule="evenodd"/>
</clipPath>
<clipPath id="clip_135">
<path transform="matrix(1,0,0,-1,0,792)" d="M.00000912 0H612V792H.00000912Z" fill-rule="evenodd"/>
</clipPath>
<clipPath id="clip_136">
<path transform="matrix(1,0,0,-1,0,792)" d="M.00000912 0H612V792H.00000912Z" fill-rule="evenodd"/>
</clipPath>
<clipPath id="clip_137">
<path transform="matrix(1,0,0,-1,0,792)" d="M.00000912 0H612V792H.00000912Z" fill-rule="evenodd"/>
</clipPath>
<clipPath id="clip_138">
<path transform="matrix(1,0,0,-1,0,792)" d="M.00000912 0H612V792H.00000912Z" fill-rule="evenodd"/>
</clipPath>
<clipPath id="clip_139">
<path transform="matrix(1,0,0,-1,0,792)" d="M.00000912 0H612V792H.00000912Z" fill-rule="evenodd"/>
</clipPath>
<clipPath id="clip_140">
<path transform="matrix(1,0,0,-1,0,792)" d="M.00000912 0H612V792H.00000912Z" fill-rule="evenodd"/>
</clipPath>
<clipPath id="clip_141">
<path transform="matrix(1,0,0,-1,0,792)" d="M.00000912 0H612V792H.00000912Z" fill-rule="evenodd"/>
</clipPath>
<clipPath id="clip_142">
<path transform="matrix(1,0,0,-1,0,792)" d="M.00000912 0H612V792H.00000912Z" fill-rule="evenodd"/>
</clipPath>
<clipPath id="clip_143">
<path transform="matrix(1,0,0,-1,0,792)" d="M.00000912 0H612V792H.00000912Z" fill-rule="evenodd"/>
</clipPath>
<clipPath id="clip_144">
<path transform="matrix(1,0,0,-1,0,792)" d="M.00000912 0H612V792H.00000912Z" fill-rule="evenodd"/>
</clipPath>
<clipPath id="clip_145">
<path transform="matrix(1,0,0,-1,0,792)" d="M.00000912 0H612V792H.00000912Z" fill-rule="evenodd"/>
</clipPath>
<clipPath id="clip_146">
<path transform="matrix(1,0,0,-1,0,792)" d="M.00000912 0H612V792H.00000912Z" fill-rule="evenodd"/>
</clipPath>
<clipPath id="clip_147">
<path transform="matrix(1,0,0,-1,0,792)" d="M.00000912 0H612V792H.00000912Z" fill-rule="evenodd"/>
</clipPath>
<clipPath id="clip_148">
<path transform="matrix(1,0,0,-1,0,792)" d="M.00000912 0H612V792H.00000912Z" fill-rule="evenodd"/>
</clipPath>
<clipPath id="clip_149">
<path transform="matrix(1,0,0,-1,0,792)" d="M.00000912 0H612V792H.00000912Z" fill-rule="evenodd"/>
</clipPath>
<clipPath id="clip_150">
<path transform="matrix(1,0,0,-1,0,792)" d="M.00000912 0H612V792H.00000912Z" fill-rule="evenodd"/>
</clipPath>
<clipPath id="clip_151">
<path transform="matrix(1,0,0,-1,0,792)" d="M.00000912 0H612V792H.00000912Z" fill-rule="evenodd"/>
</clipPath>
<clipPath id="clip_152">
<path transform="matrix(1,0,0,-1,0,792)" d="M.00000912 0H612V792H.00000912Z" fill-rule="evenodd"/>
</clipPath>
<clipPath id="clip_153">
<path transform="matrix(1,0,0,-1,0,792)" d="M.00000912 0H612V792H.00000912Z" fill-rule="evenodd"/>
</clipPath>
<clipPath id="clip_154">
<path transform="matrix(1,0,0,-1,0,792)" d="M.00000912 0H612V792H.00000912Z" fill-rule="evenodd"/>
</clipPath>
<clipPath id="clip_155">
<path transform="matrix(1,0,0,-1,0,792)" d="M.00000912 0H612V792H.00000912Z" fill-rule="evenodd"/>
</clipPath>
<clipPath id="clip_156">
<path transform="matrix(1,0,0,-1,0,792)" d="M.00000912 0H612V792H.00000912Z" fill-rule="evenodd"/>
</clipPath>
<clipPath id="clip_157">
<path transform="matrix(1,0,0,-1,0,792)" d="M.00000912 0H612V792H.00000912Z" fill-rule="evenodd"/>
</clipPath>
<clipPath id="clip_158">
<path transform="matrix(1,0,0,-1,0,792)" d="M.00000912 0H612V792H.00000912Z" fill-rule="evenodd"/>
</clipPath>
<clipPath id="clip_159">
<path transform="matrix(1,0,0,-1,0,792)" d="M.00000912 0H612V792H.00000912Z" fill-rule="evenodd"/>
</clipPath>
<clipPath id="clip_160">
<path transform="matrix(1,0,0,-1,0,792)" d="M.00000912 0H612V792H.00000912Z" fill-rule="evenodd"/>
</clipPath>
<clipPath id="clip_161">
<path transform="matrix(1,0,0,-1,0,792)" d="M.00000912 0H612V792H.00000912Z" fill-rule="evenodd"/>
</clipPath>
<clipPath id="clip_162">
<path transform="matrix(1,0,0,-1,0,792)" d="M.00000912 0H612V792H.00000912Z" fill-rule="evenodd"/>
</clipPath>
<clipPath id="clip_163">
<path transform="matrix(1,0,0,-1,0,792)" d="M.00000912 0H612V792H.00000912Z" fill-rule="evenodd"/>
</clipPath>
<clipPath id="clip_164">
<path transform="matrix(1,0,0,-1,0,792)" d="M.00000912 0H612V792H.00000912Z" fill-rule="evenodd"/>
</clipPath>
<clipPath id="clip_165">
<path transform="matrix(1,0,0,-1,0,792)" d="M.00000912 0H612V792H.00000912Z" fill-rule="evenodd"/>
</clipPath>
<clipPath id="clip_166">
<path transform="matrix(1,0,0,-1,0,792)" d="M.00000912 0H612V792H.00000912Z" fill-rule="evenodd"/>
</clipPath>
<clipPath id="clip_167">
<path transform="matrix(1,0,0,-1,0,792)" d="M.00000912 0H612V792H.00000912Z" fill-rule="evenodd"/>
</clipPath>
<clipPath id="clip_168">
<path transform="matrix(1,0,0,-1,0,792)" d="M.00000912 0H612V792H.00000912Z" fill-rule="evenodd"/>
</clipPath>
<clipPath id="clip_169">
<path transform="matrix(1,0,0,-1,0,792)" d="M.00000912 0H612V792H.00000912Z" fill-rule="evenodd"/>
</clipPath>
<clipPath id="clip_170">
<path transform="matrix(1,0,0,-1,0,792)" d="M.00000912 0H612V792H.00000912Z" fill-rule="evenodd"/>
</clipPath>
<clipPath id="clip_171">
<path transform="matrix(1,0,0,-1,0,792)" d="M.00000912 0H612V792H.00000912Z" fill-rule="evenodd"/>
</clipPath>
<clipPath id="clip_172">
<path transform="matrix(1,0,0,-1,0,792)" d="M.00000912 0H612V792H.00000912Z" fill-rule="evenodd"/>
</clipPath>
<clipPath id="clip_173">
<path transform="matrix(1,0,0,-1,0,792)" d="M.00000912 0H612V792H.00000912Z" fill-rule="evenodd"/>
</clipPath>
<clipPath id="clip_174">
<path transform="matrix(1,0,0,-1,0,792)" d="M.00000912 0H612V792H.00000912Z" fill-rule="evenodd"/>
</clipPath>
<clipPath id="clip_175">
<path transform="matrix(1,0,0,-1,0,792)" d="M.00000912 0H612V792H.00000912Z" fill-rule="evenodd"/>
</clipPath>
<clipPath id="clip_176">
<path transform="matrix(1,0,0,-1,0,792)" d="M.00000912 0H612V792H.00000912Z" fill-rule="evenodd"/>
</clipPath>
<clipPath id="clip_177">
<path transform="matrix(1,0,0,-1,0,792)" d="M.00000912 0H612V792H.00000912Z" fill-rule="evenodd"/>
</clipPath>
<clipPath id="clip_178">
<path transform="matrix(1,0,0,-1,0,792)" d="M.00000912 0H612V792H.00000912Z" fill-rule="evenodd"/>
</clipPath>
<clipPath id="clip_179">
<path transform="matrix(1,0,0,-1,0,792)" d="M.00000912 0H612V792H.00000912Z" fill-rule="evenodd"/>
</clipPath>
<clipPath id="clip_180">
<path transform="matrix(1,0,0,-1,0,792)" d="M.00000912 0H612V792H.00000912Z" fill-rule="evenodd"/>
</clipPath>
<clipPath id="clip_181">
<path transform="matrix(1,0,0,-1,0,792)" d="M.00000912 0H612V792H.00000912Z" fill-rule="evenodd"/>
</clipPath>
<clipPath id="clip_182">
<path transform="matrix(1,0,0,-1,0,792)" d="M.00000912 0H612V792H.00000912Z" fill-rule="evenodd"/>
</clipPath>
<clipPath id="clip_183">
<path transform="matrix(1,0,0,-1,0,792)" d="M.00000912 0H612V792H.00000912Z" fill-rule="evenodd"/>
</clipPath>
<clipPath id="clip_184">
<path transform="matrix(1,0,0,-1,0,792)" d="M.00000912 0H612V792H.00000912Z" fill-rule="evenodd"/>
</clipPath>
<clipPath id="clip_185">
<path transform="matrix(1,0,0,-1,0,792)" d="M.00000912 0H612V792H.00000912Z" fill-rule="evenodd"/>
</clipPath>
<clipPath id="clip_186">
<path transform="matrix(1,0,0,-1,0,792)" d="M.00000912 0H612V792H.00000912Z" fill-rule="evenodd"/>
</clipPath>
<clipPath id="clip_187">
<path transform="matrix(1,0,0,-1,0,792)" d="M.00000912 0H612V792H.00000912Z" fill-rule="evenodd"/>
</clipPath>
<clipPath id="clip_188">
<path transform="matrix(1,0,0,-1,0,792)" d="M.00000912 0H612V792H.00000912Z" fill-rule="evenodd"/>
</clipPath>
<clipPath id="clip_189">
<path transform="matrix(1,0,0,-1,0,792)" d="M.00000912 0H612V792H.00000912Z" fill-rule="evenodd"/>
</clipPath>
<clipPath id="clip_190">
<path transform="matrix(1,0,0,-1,0,792)" d="M.00000912 0H612V792H.00000912Z" fill-rule="evenodd"/>
</clipPath>
<clipPath id="clip_191">
<path transform="matrix(1,0,0,-1,0,792)" d="M.00000912 0H612V792H.00000912Z" fill-rule="evenodd"/>
</clipPath>
<clipPath id="clip_192">
<path transform="matrix(1,0,0,-1,0,792)" d="M.00000912 0H612V792H.00000912Z" fill-rule="evenodd"/>
</clipPath>
<clipPath id="clip_193">
<path transform="matrix(1,0,0,-1,0,792)" d="M.00000912 0H612V792H.00000912Z" fill-rule="evenodd"/>
</clipPath>
<clipPath id="clip_194">
<path transform="matrix(1,0,0,-1,0,792)" d="M.00000912 0H612V792H.00000912Z" fill-rule="evenodd"/>
</clipPath>
<clipPath id="clip_195">
<path transform="matrix(1,0,0,-1,0,792)" d="M.00000912 0H612V792H.00000912Z" fill-rule="evenodd"/>
</clipPath>
<clipPath id="clip_196">
<path transform="matrix(1,0,0,-1,0,792)" d="M.00000912 0H612V792H.00000912Z" fill-rule="evenodd"/>
</clipPath>
<clipPath id="clip_197">
<path transform="matrix(1,0,0,-1,0,792)" d="M.00000912 0H612V792H.00000912Z" fill-rule="evenodd"/>
</clipPath>
<clipPath id="clip_198">
<path transform="matrix(1,0,0,-1,0,792)" d="M.00000912 0H612V792H.00000912Z" fill-rule="evenodd"/>
</clipPath>
<clipPath id="clip_199">
<path transform="matrix(1,0,0,-1,0,792)" d="M.00000912 0H612V792H.00000912Z" fill-rule="evenodd"/>
</clipPath>
<clipPath id="clip_200">
<path transform="matrix(1,0,0,-1,0,792)" d="M.00000912 0H612V792H.00000912Z" fill-rule="evenodd"/>
</clipPath>
<clipPath id="clip_201">
<path transform="matrix(1,0,0,-1,0,792)" d="M.00000912 0H612V792H.00000912Z" fill-rule="evenodd"/>
</clipPath>
<clipPath id="clip_202">
<path transform="matrix(1,0,0,-1,0,792)" d="M.00000912 0H612V792H.00000912Z" fill-rule="evenodd"/>
</clipPath>
<clipPath id="clip_203">
<path transform="matrix(1,0,0,-1,0,792)" d="M.00000912 0H612V792H.00000912Z" fill-rule="evenodd"/>
</clipPath>
<clipPath id="clip_204">
<path transform="matrix(1,0,0,-1,0,792)" d="M.00000912 0H612V792H.00000912Z" fill-rule="evenodd"/>
</clipPath>
<clipPath id="clip_205">
<path transform="matrix(1,0,0,-1,0,792)" d="M.00000912 0H612V792H.00000912Z" fill-rule="evenodd"/>
</clipPath>
<clipPath id="clip_206">
<path transform="matrix(1,0,0,-1,0,792)" d="M.00000912 0H612V792H.00000912Z" fill-rule="evenodd"/>
</clipPath>
<clipPath id="clip_207">
<path transform="matrix(1,0,0,-1,0,792)" d="M.00000912 0H612V792H.00000912Z" fill-rule="evenodd"/>
</clipPath>
<clipPath id="clip_208">
<path transform="matrix(1,0,0,-1,0,792)" d="M.00000912 0H612V792H.00000912Z" fill-rule="evenodd"/>
</clipPath>
<clipPath id="clip_209">
<path transform="matrix(1,0,0,-1,0,792)" d="M.00000912 0H612V792H.00000912Z" fill-rule="evenodd"/>
</clipPath>
<clipPath id="clip_210">
<path transform="matrix(1,0,0,-1,0,792)" d="M.00000912 0H612V792H.00000912Z" fill-rule="evenodd"/>
</clipPath>
<clipPath id="clip_211">
<path transform="matrix(1,0,0,-1,0,792)" d="M.00000912 0H612V792H.00000912Z" fill-rule="evenodd"/>
</clipPath>
<clipPath id="clip_212">
<path transform="matrix(1,0,0,-1,0,792)" d="M.00000912 0H612V792H.00000912Z" fill-rule="evenodd"/>
</clipPath>
<clipPath id="clip_213">
<path transform="matrix(1,0,0,-1,0,792)" d="M.00000912 0H612V792H.00000912Z" fill-rule="evenodd"/>
</clipPath>
<clipPath id="clip_214">
<path transform="matrix(1,0,0,-1,0,792)" d="M.00000912 0H612V792H.00000912Z" fill-rule="evenodd"/>
</clipPath>
<clipPath id="clip_215">
<path transform="matrix(1,0,0,-1,0,792)" d="M.00000912 0H612V792H.00000912Z" fill-rule="evenodd"/>
</clipPath>
<clipPath id="clip_216">
<path transform="matrix(1,0,0,-1,0,792)" d="M.00000912 0H612V792H.00000912Z" fill-rule="evenodd"/>
</clipPath>
<clipPath id="clip_217">
<path transform="matrix(1,0,0,-1,0,792)" d="M.00000912 0H612V792H.00000912Z" fill-rule="evenodd"/>
</clipPath>
<clipPath id="clip_218">
<path transform="matrix(1,0,0,-1,0,792)" d="M.00000912 0H612V792H.00000912Z" fill-rule="evenodd"/>
</clipPath>
<clipPath id="clip_219">
<path transform="matrix(1,0,0,-1,0,792)" d="M.00000912 0H612V792H.00000912Z" fill-rule="evenodd"/>
</clipPath>
<clipPath id="clip_220">
<path transform="matrix(1,0,0,-1,0,792)" d="M.00000912 0H612V792H.00000912Z" fill-rule="evenodd"/>
</clipPath>
<clipPath id="clip_221">
<path transform="matrix(1,0,0,-1,0,792)" d="M.00000912 0H612V792H.00000912Z" fill-rule="evenodd"/>
</clipPath>
<clipPath id="clip_222">
<path transform="matrix(1,0,0,-1,0,792)" d="M.00000912 0H612V792H.00000912Z" fill-rule="evenodd"/>
</clipPath>
</defs>
<g>
<g id="layer_1" data-name="Artifact">
<g clip-path="url(#clip_0)">
<text xml:space="preserve" transform="matrix(1 0 -0 1 0 792)" font-size="10.08" font-family="Times New Roman"><tspan y="-746.86" x="54.024"> </tspan></text>
</g>
<g clip-path="url(#clip_1)">
</g>
</g>
<g id="layer_1" data-name="Artifact">
<g clip-path="url(#clip_2)">
<text xml:space="preserve" transform="matrix(1 0 -0 1 0 792)" font-size="10.08" font-family="Times New Roman"><tspan y="-38.184" x="54.024"> </tspan></text>
</g>
<g clip-path="url(#clip_3)">
</g>
</g>
<g id="layer_1" data-name="P">
<g clip-path="url(#clip_4)">
<text xml:space="preserve" transform="matrix(1 0 -0 1 0 792)" font-size="24.96" font-family="Helvetica,Bold" font-weight="bold"><tspan y="-721.42" x="215.11 235.97657 249.85433 265.22969 280.5551 294.43287 301.37174 308.36054 329.00248 342.88023 352.58967 360.90135 367.8402 383.21556">Manuel Martins</tspan></text>
</g>
<g clip-path="url(#clip_5)">
<text xml:space="preserve" transform="matrix(1 0 -0 1 0 792)" font-size="17.04" font-family="Helvetica,Bold" font-weight="bold"><tspan y="-721.42" x="397.1"> </tspan></text>
</g>
<g clip-path="url(#clip_6)">
</g>
</g>
<g id="layer_1" data-name="P">
<g clip-path="url(#clip_7)">
<text xml:space="preserve" transform="matrix(1 0 -0 1 0 792)" font-size="11.04" font-family="Helvetica"><tspan y="-696.7" x="163.75 172.86904 179.0956 185.32216 191.31688 197.54344 199.93912">manuel.</tspan></text>
</g>
<g clip-path="url(#clip_8)">
<text xml:space="preserve" transform="matrix(1 0 -0 1 0 792)" font-size="11.04" font-family="Helvetica"><tspan y="-696.7" x="202.87 209.09656 215.32312 220.60025 226.82682">dev04</tspan></text>
</g>
<g clip-path="url(#clip_9)">
<text xml:space="preserve" transform="matrix(1 0 -0 1 0 792)" font-size="11.04" font-family="Helvetica"><tspan y="-696.7" x="232.9 244.17183 250.39839 259.27458 265.50114 267.8968 270.29246 273.40574 278.92573 285.15229">@gmail.com</tspan></text>
</g>
<g clip-path="url(#clip_10)">
<text xml:space="preserve" transform="matrix(1 0 -0 1 0 792)" font-size="11.04" font-family="Helvetica"><tspan y="-696.7" x="294.36"> </tspan></text>
</g>
<g clip-path="url(#clip_11)">
<text xml:space="preserve" transform="matrix(1 0 -0 1 0 792)" font-size="11.04" font-family="Helvetica"><tspan y="-696.7" x="297.48"> </tspan></text>
</g>
<g clip-path="url(#clip_12)">
<text xml:space="preserve" transform="matrix(1 0 -0 1 0 792)" font-size="11.04" font-family="Helvetica"><tspan y="-696.7" x="300.6 303.24043">| </tspan></text>
</g>
<g clip-path="url(#clip_13)">
<text xml:space="preserve" transform="matrix(1 0 -0 1 0 792)" font-size="11.04" font-family="Helvetica"><tspan y="-696.7" x="306.36"> </tspan></text>
</g>
<g clip-path="url(#clip_14)">
<text xml:space="preserve" transform="matrix(1 0 -0 1 0 792)" font-size="11.04" font-family="Helvetica"><tspan y="-696.7" x="309.48 311.87568 314.27134 320.4979 325.775 332.00157 338.22813 340.39195 346.6185 349.73179 355.00889 361.23545 370.3545 373.46778 375.86344 382.09">linkedin.com/in/</tspan></text>
</g>
<g clip-path="url(#clip_15)">
<text xml:space="preserve" transform="matrix(1 0 -0 1 0 792)" font-size="11.04" font-family="Helvetica"><tspan y="-696.7" x="385.34 394.21617 400.44273 406.43745 412.664 418.89057">manuel</tspan></text>
</g>
<g clip-path="url(#clip_16)">
<text xml:space="preserve" transform="matrix(1 0 -0 1 0 792)" font-size="11.04" font-family="Helvetica"><tspan y="-696.7" x="421.37">-</tspan></text>
</g>
<g clip-path="url(#clip_17)">
<text xml:space="preserve" transform="matrix(1 0 -0 1 0 792)" font-size="11.04" font-family="Helvetica"><tspan y="-696.7" x="424.97 430.96473 437.19129">dev</tspan></text>
</g>
<g clip-path="url(#clip_18)">
<text xml:space="preserve" transform="matrix(1 0 -0 1 0 792)" font-size="11.04" font-family="Helvetica"><tspan y="-696.7" x="442.73"> </tspan></text>
</g>
<g clip-path="url(#clip_19)">
<text xml:space="preserve" transform="matrix(1 0 -0 1 0 792)" font-size="11.04" font-family="Helvetica"><tspan y="-696.7" x="445.85 448.49043">| </tspan></text>
</g>
<g clip-path="url(#clip_20)">
<text xml:space="preserve" transform="matrix(1 0 -0 1 0 792)" font-size="11.04" font-family="Helvetica"><tspan y="-696.7" x="451.61"> </tspan></text>
</g>
</g>
<g id="layer_1" data-name="P">
<g clip-path="url(#clip_21)">
<text xml:space="preserve" transform="matrix(1 0 -0 1 0 792)" font-size="11.04" font-family="Helvetica"><tspan y="-677.74" x="182.95 190.86568 198.78136 206.69704 209.81032 218.92935 225.15592 231.38248 237.3772 243.60376 245.99944 251.51944 257.51417 263.74073 269.73545 272.84873 278.3687 284.59529 293.71434 296.8276 299.46617">www.manuelcode.com | </tspan></text>
</g>
<g clip-path="url(#clip_22)">
<text xml:space="preserve" transform="matrix(1 0 -0 1 0 792)" font-size="11.04" font-family="Helvetica"><tspan y="-677.74" x="302.76">g</tspan></text>
</g>
<g clip-path="url(#clip_23)">
<text xml:space="preserve" transform="matrix(1 0 -0 1 0 792)" font-size="11.04" font-family="Helvetica"><tspan y="-677.74" x="309 311.39567 314.2771 320.50367 326.49839 332.72496 335.83824 341.11534 347.3419 356.46095 359.57423 368.69328 374.688 380.91456 386.90928 393.13584">ithub.com/manuel</tspan></text>
</g>
<g clip-path="url(#clip_24)">
<text xml:space="preserve" transform="matrix(1 0 -0 1 0 792)" font-size="11.04" font-family="Helvetica"><tspan y="-677.74" x="395.66">-</tspan></text>
</g>
<g clip-path="url(#clip_25)">
<text xml:space="preserve" transform="matrix(1 0 -0 1 0 792)" font-size="11.04" font-family="Helvetica"><tspan y="-677.74" x="399.26 405.48658 411.71315 416.99024 422.98497">dev04</tspan></text>
</g>
<g clip-path="url(#clip_26)">
<text xml:space="preserve" transform="matrix(1 0 -0 1 0 792)" font-size="11.04" font-family="Helvetica"><tspan y="-677.74" x="429.05"> </tspan></text>
</g>
</g>
<g id="layer_1" data-name="P">
<g clip-path="url(#clip_27)">
<text xml:space="preserve" transform="matrix(1 0 -0 1 0 792)" font-size="6.96" font-family="Helvetica"><tspan y="-662.35" x="54.024"> </tspan></text>
</g>
</g>
<g id="layer_1" data-name="P">
<g clip-path="url(#clip_28)">
<text xml:space="preserve" transform="matrix(1 0 -0 1 0 792)" font-size="13.92" font-family="Helvetica,Bold" font-weight="bold"><tspan y="-646.99" x="54.024 63.36432 73.41456 83.50656 93.5568 103.6488 112.042568 116.1072 126.93696">EDUCATION</tspan></text>
</g>
<g clip-path="url(#clip_29)">
<text xml:space="preserve" transform="matrix(1 0 -0 1 0 792)" font-size="12.96" font-family="Helvetica,Bold" font-weight="bold"><tspan y="-646.99" x="137.33"> </tspan></text>
</g>
<g clip-path="url(#clip_30)">
<path transform="matrix(1,0,0,-1,0,792)" d="M52.584 638.11H559.654V640.26998H52.584Z" fill="#6c6c6c" fill-rule="evenodd"/>
</g>
</g>
<g id="layer_1" data-name="P">
<g clip-path="url(#clip_31)">
<text xml:space="preserve" transform="matrix(1 0 -0 1 0 792)" font-size="6.96" font-family="Helvetica,Bold" font-weight="bold"><tspan y="-631.63" x="54.024"> </tspan></text>
</g>
<g clip-path="url(#clip_32)">
</g>
</g>
<g id="layer_1" data-name="P">
<g clip-path="url(#clip_33)">
<text xml:space="preserve" transform="matrix(1 0 -0 1 0 792)" font-size="12" font-family="Helvetica,Bold" font-weight="bold"><tspan y="-616.03" x="54.024 57.144 64.343997 71.051998 75.119998 78.45599 82.548 89.74799 93.815998 101.243999 104.579998 112.523998 119.72399 127.15199 133.85999 138.41999 141.75598 149.20798 153.76798 157.10398 164.79598 171.50397 178.21196 185.41196 188.74796 195.25196 202.67995 206.01595 210.10794 213.22794 221.14794 228.57593">Instituto Superior T&#x00e9;cnico (IST)</tspan></text>
</g>
<g clip-path="url(#clip_34)">
<text xml:space="preserve" transform="matrix(1 0 -0 1 0 792)" font-size="11.04" font-family="Helvetica,Bold" font-weight="bold"><tspan y="-616.03" x="232.66"> </tspan></text>
</g>
<g clip-path="url(#clip_35)">
<text xml:space="preserve" transform="matrix(1 0 -0 1 0 792)" font-size="11.04" font-family="Helvetica"><tspan y="-616.03" x="496.75 502.97657 508.97129">202</tspan></text>
</g>
<g clip-path="url(#clip_36)">
<text xml:space="preserve" transform="matrix(1 0 -0 1 0 792)" font-size="11.04" font-family="Helvetica"><tspan y="-616.03" x="515.23">2</tspan></text>
</g>
<g clip-path="url(#clip_37)">
<text xml:space="preserve" transform="matrix(1 0 -0 1 0 792)" font-size="11.04" font-family="Helvetica"><tspan y="-616.03" x="521.47"> </tspan></text>
</g>
<g clip-path="url(#clip_38)">
<text xml:space="preserve" transform="matrix(1 0 -0 1 0 792)" font-size="11.04" font-family="Helvetica"><tspan y="-616.03" x="524.35">&#x2013;</tspan></text>
</g>
<g clip-path="url(#clip_39)">
<text xml:space="preserve" transform="matrix(1 0 -0 1 0 792)" font-size="11.04" font-family="Helvetica"><tspan y="-616.03" x="530.59"> </tspan></text>
</g>
<g clip-path="url(#clip_40)">
<text xml:space="preserve" transform="matrix(1 0 -0 1 0 792)" font-size="11.04" font-family="Helvetica"><tspan y="-616.03" x="533.47 539.69656 545.6913">202</tspan></text>
</g>
<g clip-path="url(#clip_41)">
<text xml:space="preserve" transform="matrix(1 0 -0 1 0 792)" font-size="11.04" font-family="Helvetica"><tspan y="-616.03" x="551.98">5</tspan></text>
</g>
<g clip-path="url(#clip_42)">
<text xml:space="preserve" transform="matrix(1 0 -0 1 0 792)" font-size="11.04" font-family="Helvetica,Bold" font-weight="bold"><tspan y="-616.03" x="558.22 561.1014 564.21469 567.32797">    </tspan></text>
</g>
<g clip-path="url(#clip_43)">
<text xml:space="preserve" transform="matrix(1 0 -0 1 0 792)" font-size="11.04" font-family="Helvetica,Bold" font-weight="bold"><tspan y="-616.03" x="570.22"> </tspan></text>
</g>
<g clip-path="url(#clip_44)">
</g>
</g>
<g id="layer_1" data-name="P">
<g clip-path="url(#clip_45)">
<text xml:space="preserve" transform="matrix(1 0 -0 1 0 792)" font-size="12" font-family="Helvetica,Italic" font-style="italic"><tspan y="-599.95" x="54.024 61.944 68.652 74.652 81.36001 88.068019 90.73202 97.40402 101.496028 104.16003 110.16003 113.496028 122.16003 128.83203 135.56403 139.40402 146.11202 152.82 156.156 158.58 165.288 168.624 177.288 183.99599 194.064 200.77199 207.47998 210.81598 217.31998 221.38799 224.72399 232.66799 238.66799 241.06798 247.77597 254.48397 260.48396 267.19197 270.52796 277.25996 283.96797 290.67597 293.79597 301.71595 308.42396 315.13197 317.53196 324.23997 330.94798 337.65599 341.72398 344.12397 350.83198">Bachelor&#x2019;s Degree in Computer Science and Engineering</tspan></text>
</g>
<g clip-path="url(#clip_46)">
<text xml:space="preserve" transform="matrix(1 0 -0 1 0 792)" font-size="11.04" font-family="Helvetica,Italic" font-style="italic"><tspan y="-599.95" x="358.22"> </tspan></text>
</g>
<g clip-path="url(#clip_47)">
<text xml:space="preserve" transform="matrix(1 0 -0 1 0 792)" font-size="11.04" font-family="Helvetica,Italic" font-style="italic"><tspan y="-599.95" x="558.22"> </tspan></text>
</g>
<g clip-path="url(#clip_48)">
</g>
</g>
<g id="layer_1" data-name="P">
<g clip-path="url(#clip_49)">
<text xml:space="preserve" transform="matrix(1 0 -0 1 0 792)" font-size="11.04" font-family="Calibri"><tspan y="-580.25" x="54.024">&#x25aa;</tspan></text>
</g>
<g clip-path="url(#clip_50)">
<text xml:space="preserve" transform="matrix(1 0 -0 1 0 792)" font-size="11.04" font-family="Arial"><tspan y="-580.25" x="57.864"> </tspan></text>
</g>
<g clip-path="url(#clip_51)">
<text xml:space="preserve" transform="matrix(1 0 -0 1 0 792)" font-size="11.04" font-family="Helvetica"><tspan y="-580.25" x="67.464 76.097278 79.69632 85.922878 91.917598 98.14415 101.25743">Grade: </tspan></text>
</g>
<g clip-path="url(#clip_52)">
<text xml:space="preserve" transform="matrix(1 0 -0 1 0 792)" font-size="11.04" font-family="Helvetica,Bold" font-weight="bold"><tspan y="-580.25" x="104.21 110.436557 116.66311 119.54455 125.53927">17/20</tspan></text>
</g>
<g clip-path="url(#clip_53)">
<text xml:space="preserve" transform="matrix(1 0 -0 1 0 792)" font-size="11.04" font-family="Helvetica"><tspan y="-580.25" x="131.81"> </tspan></text>
</g>
<g clip-path="url(#clip_54)">
<text xml:space="preserve" transform="matrix(1 0 -0 1 0 792)" font-size="11.04" font-family="Helvetica"><tspan y="-580.25" x="134.93 138.52902 144.04903 150.27559 153.87462 157.47365 163.46837 169.69493 172.80821">(current)</tspan></text>
</g>
<g clip-path="url(#clip_55)">
<text xml:space="preserve" transform="matrix(1 0 -0 1 0 792)" font-size="11.04" font-family="Helvetica"><tspan y="-580.25" x="176.23"> </tspan></text>
</g>
<g clip-path="url(#clip_56)">
</g>
</g>
<g id="layer_1" data-name="P">
<g clip-path="url(#clip_57)">
<text xml:space="preserve" transform="matrix(1 0 -0 1 0 792)" font-size="11.04" font-family="Calibri"><tspan y="-562.01" x="54.024">&#x25aa;</tspan></text>
</g>
<g clip-path="url(#clip_58)">
<text xml:space="preserve" transform="matrix(1 0 -0 1 0 792)" font-size="11.04" font-family="Arial"><tspan y="-562.01" x="57.864"> </tspan></text>
</g>
<g clip-path="url(#clip_59)">
<text xml:space="preserve" transform="matrix(1 0 -0 1 0 792)" font-size="11.04" font-family="Helvetica"><tspan y="-562.01" x="67.464 75.37968 81.60623 85.20528 88.80432 91.200008 96.72 102.946559 105.34224 111.568798 120.687839 123.80112 131.7168 134.11248 136.99391 143.22048 146.33376 155.20992 161.43648 163.83216 170.05872 173.65775 176.53919 179.65247 185.87903 191.15616 197.38272 202.90273 205.78417 212.01073 218.00545 221.11873 228.54865 230.7125 236.93906 243.16562 246.76465 249.16033 252.04177 258.2683 267.38737 272.90736 275.7888 283.21873 286.332 294.01585 300.2424 303.35569 309.3504 312.23185 319.66178 322.77507 326.3741 332.60069 338.12068 341.0021 347.22868 350.82774 357.0543 362.57429">Curriculum with major focus on Algorithms &#x0026; Data Structures,</tspan></text>
</g>
<g clip-path="url(#clip_60)">
<text xml:space="preserve" transform="matrix(1 0 -0 1 0 792)" font-size="11.04" font-family="Helvetica"><tspan y="-562.01" x="365.9"> </tspan></text>
</g>
<g clip-path="url(#clip_61)">
<text xml:space="preserve" transform="matrix(1 0 -0 1 0 792)" font-size="11.04" font-family="Helvetica"><tspan y="-562.01" x="369.02 376.44993 380.04899 383.16227 385.32609 388.6712 391.06687 396.58686 398.75068 404.97724 407.3729 410.48619 413.3676 419.59419 422.47563 428.70219 431.09785 433.4935 435.88917 442.11573 448.11045 454.337 459.857 465.8517">Artificial Intelligence,</tspan></text>
</g>
<g clip-path="url(#clip_62)">
<text xml:space="preserve" transform="matrix(1 0 -0 1 0 792)" font-size="11.04" font-family="Helvetica"><tspan y="-562.01" x="469.13"> </tspan></text>
</g>
<g clip-path="url(#clip_63)">
<text xml:space="preserve" transform="matrix(1 0 -0 1 0 792)" font-size="11.04" font-family="Helvetica"><tspan y="-562.01" x="472.25 479.93385 486.1604 489.04185 495.2684 501.26313 507.4897 513.0097 519.23629 524.5134 527.6267 530.74 539.1414 547.7747">Databases, OOP</tspan></text>
</g>
<g clip-path="url(#clip_64)">
<text xml:space="preserve" transform="matrix(1 0 -0 1 0 792)" font-size="11.04" font-family="Helvetica"><tspan y="-562.01" x="555.1 558.22">, </tspan></text>
</g>
<g clip-path="url(#clip_65)">
</g>
<g clip-path="url(#clip_66)">
<text xml:space="preserve" transform="matrix(1 0 -0 1 0 792)" font-size="11.04" font-family="Helvetica"><tspan y="-544.25" x="67.464 76.34016 82.56671 88.08671 94.31326 96.70895 102.9355 109.162059 112.043498 118.27005 124.26477 130.49134 134.09037 140.31693 142.7126 148.70732 154.93389 158.04717">Machine Learning, </tspan></text>
</g>
<g clip-path="url(#clip_67)">
<text xml:space="preserve" transform="matrix(1 0 -0 1 0 792)" font-size="11.04" font-family="Helvetica"><tspan y="-544.25" x="161.35 169.03386 175.26042 178.3737 186.28939 192.51595 196.11498 201.63498">Networks</tspan></text>
</g>
<g clip-path="url(#clip_68)">
<text xml:space="preserve" transform="matrix(1 0 -0 1 0 792)" font-size="11.04" font-family="Helvetica"><tspan y="-544.25" x="206.95 210.06328 213.17656 221.09224 227.3188 236.19496 242.42153 244.8172 247.21288 253.43944 257.03849">, Compilers</tspan></text>
</g>
<g clip-path="url(#clip_69)">
<text xml:space="preserve" transform="matrix(1 0 -0 1 0 792)" font-size="11.04" font-family="Helvetica"><tspan y="-544.25" x="262.66"> </tspan></text>
</g>
<g clip-path="url(#clip_70)">
<text xml:space="preserve" transform="matrix(1 0 -0 1 0 792)" font-size="11.04" font-family="Helvetica"><tspan y="-544.25" x="265.78 271.77473 278.00129 283.996 287.10929 295.02497 297.42063 302.9406 306.0539 309.65296 312.0486 318.27519 324.50175 327.38319 333.60975 339.60447 342.71775 350.14768 355.66767 361.18766 364.0691 370.29566 379.4147 384.9347">and Distributed Systems.</tspan></text>
</g>
<g clip-path="url(#clip_71)">
<text xml:space="preserve" transform="matrix(1 0 -0 1 0 792)" font-size="11.04" font-family="Helvetica,Bold" font-weight="bold"><tspan y="-544.25" x="387.98"> </tspan></text>
</g>
<g clip-path="url(#clip_72)">
</g>
</g>
<g id="layer_1" data-name="P">
<g clip-path="url(#clip_73)">
<text xml:space="preserve" transform="matrix(1 0 -0 1 0 792)" font-size="11.04" font-family="Calibri"><tspan y="-526.73" x="54.024">&#x25aa;</tspan></text>
</g>
<g clip-path="url(#clip_74)">
<text xml:space="preserve" transform="matrix(1 0 -0 1 0 792)" font-size="11.04" font-family="Arial"><tspan y="-526.73" x="57.864"> </tspan></text>
</g>
<g clip-path="url(#clip_75)">
<text xml:space="preserve" transform="matrix(1 0 -0 1 0 792)" font-size="11.04" font-family="Helvetica"><tspan y="-526.73" x="67.464 73.69055 79.68527 85.91183 91.90655 98.1331 104.12782 110.35438 116.58093 121.85805 124.97133">Languages: </tspan></text>
</g>
<g clip-path="url(#clip_76)">
<text xml:space="preserve" transform="matrix(1 0 -0 1 0 792)" font-size="11.04" font-family="Helvetica,Bold" font-weight="bold"><tspan y="-526.73" x="128.21 135.63993 141.63465 145.23368 151.97911 158.66934">Python</tspan></text>
</g>
<g clip-path="url(#clip_77)">
<text xml:space="preserve" transform="matrix(1 0 -0 1 0 792)" font-size="11.04" font-family="Helvetica"><tspan y="-526.73" x="165.43 168.55002">, </tspan></text>
</g>
<g clip-path="url(#clip_78)">
<text xml:space="preserve" transform="matrix(1 0 -0 1 0 792)" font-size="11.04" font-family="Helvetica,Bold" font-weight="bold"><tspan y="-526.73" x="171.67 178.86808 183.16263 189.90807 192.7895 199.53495">Prolog</tspan></text>
</g>
<g clip-path="url(#clip_79)">
<text xml:space="preserve" transform="matrix(1 0 -0 1 0 792)" font-size="11.04" font-family="Helvetica"><tspan y="-526.73" x="206.23 209.35002">, </tspan></text>
</g>
<g clip-path="url(#clip_80)">
<text xml:space="preserve" transform="matrix(1 0 -0 1 0 792)" font-size="11.04" font-family="Helvetica,Bold" font-weight="bold"><tspan y="-526.73" x="212.47">C</tspan></text>
</g>
<g clip-path="url(#clip_81)">
<text xml:space="preserve" transform="matrix(1 0 -0 1 0 792)" font-size="11.04" font-family="Helvetica"><tspan y="-526.73" x="220.39 223.51003">, </tspan></text>
</g>
<g clip-path="url(#clip_82)">
<text xml:space="preserve" transform="matrix(1 0 -0 1 0 792)" font-size="11.04" font-family="Helvetica,Bold" font-weight="bold"><tspan y="-526.73" x="226.66 234.57569 241.02304 247.5256">C++.</tspan></text>
</g>
<g clip-path="url(#clip_83)">
<text xml:space="preserve" transform="matrix(1 0 -0 1 0 792)" font-size="11.04" font-family="Helvetica,Bold" font-weight="bold"><tspan y="-526.73" x="250.42"> </tspan></text>
</g>
<g clip-path="url(#clip_84)">
</g>
</g>
<g id="layer_1" data-name="P">
<g clip-path="url(#clip_85)">
<text xml:space="preserve" transform="matrix(1 0 -0 1 0 792)" font-size="11.04" font-family="Helvetica"><tspan y="-508.73" x="54.024"> </tspan></text>
</g>
<g clip-path="url(#clip_86)">
</g>
</g>
<g id="layer_1" data-name="P">
<g clip-path="url(#clip_87)">
<text xml:space="preserve" transform="matrix(1 0 -0 1 0 792)" font-size="13.92" font-family="Helvetica,Bold" font-weight="bold"><tspan y="-488.3" x="54.024 63.36432 73.41456 84.244319 91.92816 101.26848 111.31872 119.754238">PROJECTS</tspan></text>
</g>
<g clip-path="url(#clip_88)">
<text xml:space="preserve" transform="matrix(1 0 -0 1 0 792)" font-size="12.96" font-family="Helvetica,Bold" font-weight="bold"><tspan y="-488.3" x="129.41"> </tspan></text>
</g>
<g clip-path="url(#clip_89)">
<path transform="matrix(1,0,0,-1,0,792)" d="M52.584 479.42H559.654V481.58003H52.584Z" fill="#6c6c6c" fill-rule="evenodd"/>
</g>
</g>
<g id="layer_1" data-name="P">
<g clip-path="url(#clip_90)">
<text xml:space="preserve" transform="matrix(1 0 -0 1 0 792)" font-size="6.96" font-family="Helvetica,Bold" font-weight="bold"><tspan y="-472.94" x="54.024"> </tspan></text>
</g>
<g clip-path="url(#clip_91)">
</g>
</g>
<g id="layer_1" data-name="P">
<g clip-path="url(#clip_92)">
<text xml:space="preserve" transform="matrix(1 0 -0 1 0 792)" font-size="12" font-family="Helvetica,Bold" font-weight="bold"><tspan y="-457.34" x="54.024 63.864 67.2 74.423999 81.131999 87.840007 97.176 103.908008 110.616008 118.04401 124.75201 129.31201 132.64801 142.02 148.728 159.288">Minesweeper Game</tspan></text>
</g>
<g clip-path="url(#clip_93)">
<text xml:space="preserve" transform="matrix(1 0 -0 1 0 792)" font-size="11.04" font-family="Helvetica,Bold" font-weight="bold"><tspan y="-457.34" x="166.15"> </tspan></text>
</g>
<g clip-path="url(#clip_94)">
<text xml:space="preserve" transform="matrix(1 0 -0 1 0 792)" font-size="11.04" font-family="Helvetica"><tspan y="-457.34" x="510.91 518.8257 525.05227 530.57229 533.68557 539.6803 545.90689">Nov 202</tspan></text>
</g>
<g clip-path="url(#clip_95)">
<text xml:space="preserve" transform="matrix(1 0 -0 1 0 792)" font-size="11.04" font-family="Helvetica"><tspan y="-457.34" x="551.98">2</tspan></text>
</g>
<g clip-path="url(#clip_96)">
<text xml:space="preserve" transform="matrix(1 0 -0 1 0 792)" font-size="11.04" font-family="Helvetica,Bold" font-weight="bold"><tspan y="-457.34" x="558.22 561.33328 564.21469 567.32797">    </tspan></text>
</g>
<g clip-path="url(#clip_97)">
<text xml:space="preserve" transform="matrix(1 0 -0 1 0 792)" font-size="12" font-family="Helvetica,Bold" font-weight="bold"><tspan y="-457.34" x="570.22"> </tspan></text>
</g>
<g clip-path="url(#clip_98)">
</g>
</g>
<g id="layer_1" data-name="P">
<g clip-path="url(#clip_99)">
<text xml:space="preserve" transform="matrix(1 0 -0 1 0 792)" font-size="11.04" font-family="Calibri"><tspan y="-437.42" x="54.024">&#x25aa;</tspan></text>
</g>
<g clip-path="url(#clip_100)">
<text xml:space="preserve" transform="matrix(1 0 -0 1 0 792)" font-size="11.04" font-family="Arial"><tspan y="-437.42" x="57.864"> </tspan></text>
</g>
<g clip-path="url(#clip_101)">
<text xml:space="preserve" transform="matrix(1 0 -0 1 0 792)" font-size="11.04" font-family="Helvetica"><tspan y="-437.42" x="67.464 75.37968 81.60623 87.12623 89.52191 95.74847 101.74319 107.96974 113.96446 120.43391 126.66046 132.65518 138.88175 145.59407 147.98975 157.10878 163.33535 165.49919 171.72576 180.84479 186.83951 193.06607 196.17935 202.17407 208.1688 214.88112 220.87584 227.1024 233.57184 239.7984 245.79312 248.9064 251.30208 260.42115 262.8168 268.3368 274.56336 280.55809 287.2704 296.14656 298.5422 304.76878 310.7635 316.28349 324.19917 330.42573 336.42045 342.647 348.87358 352.47264 358.94209 364.9368 371.16337 380.2824 386.27714 392.98945 395.3851 401.37983">Designed and implemented an optimized Minesweeper game in </tspan></text>
</g>
<g clip-path="url(#clip_102)">
<text xml:space="preserve" transform="matrix(1 0 -0 1 0 792)" font-size="11.04" font-family="Helvetica,Bold" font-weight="bold"><tspan y="-437.42" x="408.62 416.04994 422.04466 425.6437 432.38917 439.0794">Python</tspan></text>
</g>
<g clip-path="url(#clip_103)">
<text xml:space="preserve" transform="matrix(1 0 -0 1 0 792)" font-size="11.04" font-family="Helvetica"><tspan y="-437.42" x="445.85"> </tspan></text>
</g>
<g clip-path="url(#clip_104)">
<text xml:space="preserve" transform="matrix(1 0 -0 1 0 792)" font-size="11.04" font-family="Helvetica"><tspan y="-437.42" x="452.57 458.56474 464.08473 466.48039 472.70695 478.70167 485.1711 491.39768 497.62425 500.0199 506.01463 511.5346">using object</tspan></text>
</g>
<g clip-path="url(#clip_105)">
<text xml:space="preserve" transform="matrix(1 0 -0 1 0 792)" font-size="11.04" font-family="Helvetica"><tspan y="-437.42" x="514.75">-</tspan></text>
</g>
<g clip-path="url(#clip_106)">
<text xml:space="preserve" transform="matrix(1 0 -0 1 0 792)" font-size="11.04" font-family="Helvetica"><tspan y="-437.42" x="518.35 524.57656 528.1756 530.5713 536.56607 542.7926 545.9059 551.90066 558.1272">oriented </tspan></text>
</g>
<g clip-path="url(#clip_107)">
</g>
<g clip-path="url(#clip_108)">
<text xml:space="preserve" transform="matrix(1 0 -0 1 0 792)" font-size="11.04" font-family="Helvetica"><tspan y="-419.18" x="67.464 73.69055 77.2896 83.51615 89.74271 93.09887 99.325428 108.444469 117.56351 119.95919 126.185749 132.41231 135.29375 141.52031 145.11934 147.51502 153.74158 159.26158 161.65726 167.88382 170.04767 176.27423 181.79424 184.90752 188.0208 191.37696 197.60352 203.12352 209.35009 211.74576 214.85904 217.02289 223.24945 229.47602 232.5893 234.75315 240.9797 243.86115 250.0877 253.20099 259.42756 264.70466 270.9312">programming principles, resulting in a user</tspan></text>
</g>
<g clip-path="url(#clip_109)">
<text xml:space="preserve" transform="matrix(1 0 -0 1 0 792)" font-size="11.04" font-family="Helvetica"><tspan y="-419.18" x="274.9">-</tspan></text>
</g>
<g clip-path="url(#clip_110)">
<text xml:space="preserve" transform="matrix(1 0 -0 1 0 792)" font-size="11.04" font-family="Helvetica"><tspan y="-419.18" x="278.26 281.60514 285.2042 287.59986 293.82643 299.82115 306.0477 308.21153 313.7315 316.8448 323.07136 329.06608 335.29264 338.17408 344.1688 347.28208 350.6272 353.02287 358.54286 360.9385 366.93324 373.1598 376.04124 379.1545 385.14924 391.3758 400.49485 406.7214 412.94798 415.1118 421.33836 426.85835 429.73979 435.96635 441.48634 447.48106 453.7076 457.30668 459.70234 465.9289 472.15547">friendly and efficient gameplay experienc</tspan></text>
</g>
<g clip-path="url(#clip_111)">
<text xml:space="preserve" transform="matrix(1 0 -0 1 0 792)" font-size="11.04" font-family="Helvetica"><tspan y="-419.18" x="477.77 484.01023">e.</tspan></text>
</g>
<g clip-path="url(#clip_112)">
<text xml:space="preserve" transform="matrix(1 0 -0 1 0 792)" font-size="11.04" font-family="Helvetica"><tspan y="-419.18" x="486.91"> </tspan></text>
</g>
<g clip-path="url(#clip_113)">
</g>
</g>
<g id="layer_1" data-name="P">
<g clip-path="url(#clip_114)">
<text xml:space="preserve" transform="matrix(1 0 -0 1 0 792)" font-size="11.04" font-family="Calibri"><tspan y="-401.64" x="54.024">&#x25aa;</tspan></text>
</g>
<g clip-path="url(#clip_115)">
<text xml:space="preserve" transform="matrix(1 0 -0 1 0 792)" font-size="11.04" font-family="Arial"><tspan y="-401.64" x="57.864"> </tspan></text>
</g>
<g clip-path="url(#clip_116)">
<text xml:space="preserve" transform="matrix(1 0 -0 1 0 792)" font-size="11.04" font-family="Helvetica"><tspan y="-401.64" x="67.464 73.69055 76.80383 79.68527 85.91183 91.43182 94.545108 97.65839 100.539829 106.76638 109.16206 112.0435 118.27006 124.26478 130.49134 133.60462 139.12462 145.35118 154.22734 157.34062 166.45966 172.68622 178.68094 184.9075 191.13407">https://github.com/manuel</tspan></text>
</g>
<g clip-path="url(#clip_117)">
<text xml:space="preserve" transform="matrix(1 0 -0 1 0 792)" font-size="11.04" font-family="Helvetica"><tspan y="-401.64" x="193.75">-</tspan></text>
</g>
<g clip-path="url(#clip_118)">
<text xml:space="preserve" transform="matrix(1 0 -0 1 0 792)" font-size="11.04" font-family="Helvetica"><tspan y="-401.64" x="197.11 203.33657 209.56313 214.84026 221.06682 227.29338 230.40666 239.28282 241.6785 247.90506 254.13162 259.6516 267.33546 273.562 279.55674 285.7833 292.00987">dev04/Minesweeper</tspan></text>
</g>
<g clip-path="url(#clip_119)">
<text xml:space="preserve" transform="matrix(1 0 -0 1 0 792)" font-size="11.04" font-family="Helvetica"><tspan y="-401.64" x="295.56"> </tspan></text>
</g>
<g clip-path="url(#clip_120)">
</g>
</g>
<g id="layer_1" data-name="P">
<g clip-path="url(#clip_121)">
<text xml:space="preserve" transform="matrix(1 0 -0 1 0 792)" font-size="11.04" font-family="Helvetica"><tspan y="-383.64" x="54.024"> </tspan></text>
</g>
<g clip-path="url(#clip_122)">
</g>
</g>
<g id="layer_1" data-name="P">
<g clip-path="url(#clip_123)">
<text xml:space="preserve" transform="matrix(1 0 -0 1 0 792)" font-size="12" font-family="Helvetica,Bold" font-weight="bold"><tspan y="-365.4" x="54.024 61.944 68.652 75.852 82.560009 89.98801 97.188 100.524 107.256 110.591999 118.535999 125.243999 131.952 136.512 143.21999 150.41999 157.12798">Schedule Searcher</tspan></text>
</g>
<g clip-path="url(#clip_124)">
<text xml:space="preserve" transform="matrix(1 0 -0 1 0 792)" font-size="11.04" font-family="Helvetica,Bold" font-weight="bold"><tspan y="-365.4" x="162.07"> </tspan></text>
</g>
<g clip-path="url(#clip_125)">
<text xml:space="preserve" transform="matrix(1 0 -0 1 0 792)" font-size="11.04" font-family="Helvetica"><tspan y="-365.4" x="512.83 518.35006 524.5766 530.80319 533.6846 539.91116 545.9059 552.13247">Jan 2023</tspan></text>
</g>
<g clip-path="url(#clip_126)">
<text xml:space="preserve" transform="matrix(1 0 -0 1 0 792)" font-size="11.04" font-family="Helvetica,Bold" font-weight="bold"><tspan y="-365.4" x="558.22 561.33328 564.44656 567.32797">    </tspan></text>
</g>
<g clip-path="url(#clip_127)">
<text xml:space="preserve" transform="matrix(1 0 -0 1 0 792)" font-size="11.04" font-family="Helvetica,Bold" font-weight="bold"><tspan y="-365.4" x="570.22"> </tspan></text>
</g>
<g clip-path="url(#clip_128)">
</g>
</g>
<g id="layer_1" data-name="P">
<g clip-path="url(#clip_129)">
<text xml:space="preserve" transform="matrix(1 0 -0 1 0 792)" font-size="11.04" font-family="Calibri"><tspan y="-345.48" x="54.024">&#x25aa;</tspan></text>
</g>
<g clip-path="url(#clip_130)">
<text xml:space="preserve" transform="matrix(1 0 -0 1 0 792)" font-size="11.04" font-family="Arial"><tspan y="-345.48" x="57.864"> </tspan></text>
</g>
<g clip-path="url(#clip_131)">
<text xml:space="preserve" transform="matrix(1 0 -0 1 0 792)" font-size="11.04" font-family="Helvetica"><tspan y="-345.48" x="67.464 75.37968 78.49296 80.88864 83.284328 85.68001 91.200008 97.42656 103.653118">Utilized </tspan></text>
</g>
<g clip-path="url(#clip_132)">
<text xml:space="preserve" transform="matrix(1 0 -0 1 0 792)" font-size="11.04" font-family="Helvetica,Bold" font-weight="bold"><tspan y="-345.48" x="110.69 118.11992 122.41448 129.15993 132.04137 138.7868">Prolog</tspan></text>
</g>
<g clip-path="url(#clip_133)">
<text xml:space="preserve" transform="matrix(1 0 -0 1 0 792)" font-size="11.04" font-family="Helvetica"><tspan y="-345.48" x="145.49"> </tspan></text>
</g>
<g clip-path="url(#clip_134)">
<text xml:space="preserve" transform="matrix(1 0 -0 1 0 792)" font-size="11.04" font-family="Helvetica"><tspan y="-345.48" x="152.45 155.56328 161.78984 168.73401 174.25402 177.61017 183.83673 190.0633 192.94474 199.1713 206.11547 212.34203 219.05435 224.57436 230.09436 236.08908 242.31565 248.31037 254.53693 256.9326 259.32826 265.5548 271.78138 278.72554 284.00263 289.5226 295.0426 298.15589 304.1506 313.26966 320.2138 323.3271 329.55366 333.1527 340.09687 346.32344 352.55 354.94566 360.22276 366.4493 370.04838 375.56837 377.96403 381.0773 386.5973 393.54145 399.06144 401.4571 407.68367 413.20365 418.72364 422.0798 428.30638 434.53294 443.65199 449.17198 452.28526 459.2294 464.5065 470.73307 476.95964 482.4796 484.64344 490.87 497.09657 500.69563 503.09129 509.086 515.31259 522.2567 527.5339 533.76046 537.3595 539.7552 545.74996 551.9765 557.4965">to create a scheduling system for university classrooms, considering various </tspan></text>
</g>
<g clip-path="url(#clip_135)">
</g>
<g clip-path="url(#clip_136)">
<text xml:space="preserve" transform="matrix(1 0 -0 1 0 792)" font-size="11.04" font-family="Helvetica"><tspan y="-327.46" x="67.464 72.98399 79.21055 85.4371 90.9571 94.07038 97.426548 103.6531 106.04878 112.27534 115.38862 120.66573 125.21422 130.73423 136.96079 142.23792 148.46448 152.77008 158.99665 164.51665 169.06513 172.66416 178.65888 184.88544 194.00447 198.55295 204.07295 210.06768 216.29424 222.5208 228.0408 230.43648 233.31792 238.83792 243.3864 249.38112 255.60768 261.6024 266.15089 272.37745 277.65455 283.8811 286.27677 288.67243 294.899 301.12556 303.28938 309.2841 313.83259 316.94587 319.34153 328.46058 334.68714 339.23564 344.7556 347.15129 353.146 356.25929 361.77928 364.89256 369.44105 373.0401 379.26667 384.54377 390.77033 393.166 396.27928 398.67494 404.66966 410.8962 415.4447 417.84037 423.83509 428.38359 434.3783 440.60487 445.15336 451.14808 454.26136 457.37464 459.7703 465.29029 467.68595 473.68067 479.90724 483.0205 487.3261 493.55268 499.5474 505.77397 510.32246 516.3172 522.54379 525.65707 528.05276 537.1718 539.5675 545.0875 551.0823 557.30886">constraints such as room capacity and available time slots, resulting in an efficient and optimized </tspan></text>
</g>
<g clip-path="url(#clip_137)">
</g>
<g clip-path="url(#clip_138)">
<text xml:space="preserve" transform="matrix(1 0 -0 1 0 792)" font-size="11.04" font-family="Helvetica"><tspan y="-309.7" x="67.464 73.69055 76.086238 78.48192 84.70847 90.22847 96.22319 99.33647 101.732158 107.95871 113.95343 117.06671 123.06143 126.17471 129.288 134.808 137.20368 143.43024 148.95024 154.47025 157.8264 164.05297 170.27953 179.39856 182.51184 186.11087 192.10559 197.6256 203.62032 209.84688 213.4459 218.96591 225.19248">allocation of classroom resources</tspan></text>
</g>
<g clip-path="url(#clip_139)">
<text xml:space="preserve" transform="matrix(1 0 -0 1 0 792)" font-size="11.04" font-family="Helvetica"><tspan y="-309.7" x="230.74"> </tspan></text>
</g>
<g clip-path="url(#clip_140)">
</g>
</g>
<g id="layer_1" data-name="P">
<g clip-path="url(#clip_141)">
<text xml:space="preserve" transform="matrix(1 0 -0 1 0 792)" font-size="11.04" font-family="Calibri"><tspan y="-291.94" x="54.024">&#x25aa;</tspan></text>
</g>
<g clip-path="url(#clip_142)">
<text xml:space="preserve" transform="matrix(1 0 -0 1 0 792)" font-size="11.04" font-family="Arial"><tspan y="-291.94" x="57.864"> </tspan></text>
</g>
<g clip-path="url(#clip_143)">
<text xml:space="preserve" transform="matrix(1 0 -0 1 0 792)" font-size="11.04" font-family="Helvetica"><tspan y="-291.94" x="67.464 73.69055 76.80383 79.68527 85.91183 91.43182 94.545108 97.65839 100.539829 106.76638 109.16206 112.0435 118.27006 124.26478 130.49134 133.60462 139.12462 145.35118 154.22734 157.34062 166.45966 172.68622 178.68094 184.9075 191.13407">https://github.com/manuel</tspan></text>
</g>
<g clip-path="url(#clip_144)">
<text xml:space="preserve" transform="matrix(1 0 -0 1 0 792)" font-size="11.04" font-family="Helvetica"><tspan y="-291.94" x="193.75">-</tspan></text>
</g>
<g clip-path="url(#clip_145)">
<text xml:space="preserve" transform="matrix(1 0 -0 1 0 792)" font-size="11.04" font-family="Helvetica"><tspan y="-291.94" x="197.11 203.35024 209.59047">dev</tspan></text>
</g>
<g clip-path="url(#clip_146)">
<text xml:space="preserve" transform="matrix(1 0 -0 1 0 792)" font-size="11.04" font-family="Helvetica"><tspan y="-291.94" x="214.87 221.09656 227.32312 230.20456 237.63448 242.9116 249.13817 255.13289 261.35945 267.586 269.98167">04/Schedule</tspan></text>
</g>
<g clip-path="url(#clip_147)">
<text xml:space="preserve" transform="matrix(1 0 -0 1 0 792)" font-size="11.04" font-family="Helvetica"><tspan y="-291.94" x="276.34">-</tspan></text>
</g>
<g clip-path="url(#clip_148)">
<text xml:space="preserve" transform="matrix(1 0 -0 1 0 792)" font-size="11.04" font-family="Helvetica"><tspan y="-291.94" x="279.7 287.12995 293.12467 299.35124 302.9503 308.47029 314.69685 320.9234">Searcher</tspan></text>
</g>
<g clip-path="url(#clip_149)">
<text xml:space="preserve" transform="matrix(1 0 -0 1 0 792)" font-size="11.04" font-family="Helvetica"><tspan y="-291.94" x="324.36"> </tspan></text>
</g>
<g clip-path="url(#clip_150)">
</g>
</g>
<g id="layer_1" data-name="P">
<g clip-path="url(#clip_151)">
<text xml:space="preserve" transform="matrix(1 0 -0 1 0 792)" font-size="11.04" font-family="Helvetica"><tspan y="-274.18" x="54.024"> </tspan></text>
</g>
<g clip-path="url(#clip_152)">
<text xml:space="preserve" transform="matrix(1 0 -0 1 0 792)" font-size="11.04" font-family="Helvetica"><tspan y="-274.18" x="57.144"> </tspan></text>
</g>
</g>
<g id="layer_1" data-name="P">
<g clip-path="url(#clip_153)">
<text xml:space="preserve" transform="matrix(1 0 -0 1 0 792)" font-size="12" font-family="Helvetica,Bold" font-weight="bold"><tspan y="-260.98" x="54.024 61.944 68.423999 72.492 79.69199 87.119998 94.31999">Python </tspan></text>
</g>
<g clip-path="url(#clip_154)">
<text xml:space="preserve" transform="matrix(1 0 -0 1 0 792)" font-size="12" font-family="Helvetica,Bold" font-weight="bold"><tspan y="-260.98" x="97.968 107.80801 111.144008 118.368007">Mini</tspan></text>
</g>
<g clip-path="url(#clip_155)">
<text xml:space="preserve" transform="matrix(1 0 -0 1 0 792)" font-size="12" font-family="Helvetica,Bold" font-weight="bold"><tspan y="-260.98" x="121.73">-</tspan></text>
</g>
<g clip-path="url(#clip_156)">
<text xml:space="preserve" transform="matrix(1 0 -0 1 0 792)" font-size="12" font-family="Helvetica,Bold" font-weight="bold"><tspan y="-260.98" x="125.81 133.23799 136.57399 144.02599 148.58599 155.29398 159.85398">Library</tspan></text>
</g>
<g clip-path="url(#clip_157)">
<text xml:space="preserve" transform="matrix(1 0 -0 1 0 792)" font-size="11.04" font-family="Helvetica,Bold" font-weight="bold"><tspan y="-260.98" x="166.63"> </tspan></text>
</g>
<g clip-path="url(#clip_158)">
<text xml:space="preserve" transform="matrix(1 0 -0 1 0 792)" font-size="11.04" font-family="Helvetica"><tspan y="-260.98" x="512.83 521.4633 527.6899 530.80319 533.6846 539.91116 545.9059 552.13247">Out 2022</tspan></text>
</g>
<g clip-path="url(#clip_159)">
<text xml:space="preserve" transform="matrix(1 0 -0 1 0 792)" font-size="11.04" font-family="Helvetica,Bold" font-weight="bold"><tspan y="-260.98" x="558.22"> </tspan></text>
</g>
<g clip-path="url(#clip_160)">
<text xml:space="preserve" transform="matrix(1 0 -0 1 0 792)" font-size="11.04" font-family="Helvetica,Bold" font-weight="bold"><tspan y="-260.98" x="561.1"> </tspan></text>
</g>
<g clip-path="url(#clip_161)">
</g>
</g>
<g id="layer_1" data-name="P">
<g clip-path="url(#clip_162)">
<text xml:space="preserve" transform="matrix(1 0 -0 1 0 792)" font-size="11.04" font-family="Calibri"><tspan y="-241.03" x="54.024">&#x25aa;</tspan></text>
</g>
<g clip-path="url(#clip_163)">
<text xml:space="preserve" transform="matrix(1 0 -0 1 0 792)" font-size="11.04" font-family="Arial"><tspan y="-241.03" x="57.864"> </tspan></text>
</g>
<g clip-path="url(#clip_164)">
<text xml:space="preserve" transform="matrix(1 0 -0 1 0 792)" font-size="11.04" font-family="Helvetica"><tspan y="-241.03" x="67.464 75.37968 81.60623 87.12623 93.35278 95.74847 101.74319 107.96974 113.96446 120.19102 123.53614 129.7627">Developed a </tspan></text>
</g>
<g clip-path="url(#clip_165)">
<text xml:space="preserve" transform="matrix(1 0 -0 1 0 792)" font-size="11.04" font-family="Helvetica"><tspan y="-241.03" x="133.49 142.60904 145.00472 151.23128">mini</tspan></text>
</g>
<g clip-path="url(#clip_166)">
<text xml:space="preserve" transform="matrix(1 0 -0 1 0 792)" font-size="11.04" font-family="Helvetica"><tspan y="-241.03" x="153.41"> </tspan></text>
</g>
<g clip-path="url(#clip_167)">
<text xml:space="preserve" transform="matrix(1 0 -0 1 0 792)" font-size="11.04" font-family="Helvetica,Bold" font-weight="bold"><tspan y="-241.03" x="157.01 164.43991 170.43463 174.03366 180.7791 187.46933">Python</tspan></text>
</g>
<g clip-path="url(#clip_168)">
<text xml:space="preserve" transform="matrix(1 0 -0 1 0 792)" font-size="11.04" font-family="Helvetica"><tspan y="-241.03" x="194.23"> </tspan></text>
</g>
<g clip-path="url(#clip_169)">
<text xml:space="preserve" transform="matrix(1 0 -0 1 0 792)" font-size="11.04" font-family="Helvetica"><tspan y="-241.03" x="197.83 200.22568 202.62136 208.84792 212.44695 218.67351 222.27254 227.54967 231.13767 236.65767 242.65239 248.87895 254.39896 256.79463 262.3146 265.4279 267.82356 273.81828 280.04484 283.38996 289.38468 292.7298 296.07493 301.5949 307.58964 313.10963 319.33619 322.93525 329.1618 331.55747 335.14549 344.26454 350.25926 353.37254 359.36726 365.5938 371.82038 377.09748 380.6855 383.56694 389.7935 393.3815 398.9015 401.29716 410.4162 416.64277 419.03843 421.20225 424.54737">library consisting of several methods to simplify</tspan></text>
</g>
<g clip-path="url(#clip_170)">
<text xml:space="preserve" transform="matrix(1 0 -0 1 0 792)" font-size="11.04" font-family="Helvetica"><tspan y="-241.03" x="430.25"> </tspan></text>
</g>
<g clip-path="url(#clip_171)">
<text xml:space="preserve" transform="matrix(1 0 -0 1 0 792)" font-size="11.04" font-family="Helvetica"><tspan y="-241.03" x="433.85 439.84474 446.0713 452.29786 455.65403 461.88059 464.99388 467.38954 473.38426 479.6108">operations</tspan></text>
</g>
<g clip-path="url(#clip_172)">
<text xml:space="preserve" transform="matrix(1 0 -0 1 0 792)" font-size="11.04" font-family="Helvetica"><tspan y="-241.03" x="485.23 488.3433 491.9313 494.32698 503.20314 509.4297 513.02877 519.2553 524.7753 530.7701 534.35806 539.87808 545.8728 551.86758 558.0941">, improve code </tspan></text>
</g>
<g clip-path="url(#clip_173)">
</g>
<g clip-path="url(#clip_174)">
<text xml:space="preserve" transform="matrix(1 0 -0 1 0 792)" font-size="11.04" font-family="Helvetica"><tspan y="-222.79" x="67.464 73.45872 76.572 79.91712 82.312808 87.8328 90.228488 96.223209 102.44976 107.96976 113.48975 116.37119 119.484477 125.479198 131.70575 137.93231 141.0456 143.20944 149.436 154.95601 158.55504 164.54976 170.77632 176.29633 182.52289 185.40433 191.63089 195.22992 201.22464 207.4512 213.67777 218.9549 222.06818 224.46385 229.98386 232.37953 235.49282 241.01282 244.1261 247.23938 250.83841 256.83314 262.35313 268.57969 270.97535 274.08863 276.25245 282.479 288.70558 291.81886 293.98268 300.20924 303.3225 309.31724 312.19868 315.79774 322.0243 328.25086 333.77085 339.76557 345.99214 348.3878">efficiency, and increase productivity, resulting in a reusable</tspan></text>
</g>
<g clip-path="url(#clip_175)">
<text xml:space="preserve" transform="matrix(1 0 -0 1 0 792)" font-size="11.04" font-family="Helvetica"><tspan y="-222.79" x="354.86"> </tspan></text>
</g>
<g clip-path="url(#clip_176)">
<text xml:space="preserve" transform="matrix(1 0 -0 1 0 792)" font-size="11.04" font-family="Helvetica"><tspan y="-222.79" x="357.98 363.5 369.72657 378.8456 384.84034 390.83506 397.0616 403.05635 409.2829 412.39619">components</tspan></text>
</g>
<g clip-path="url(#clip_177)">
<text xml:space="preserve" transform="matrix(1 0 -0 1 0 792)" font-size="11.04" font-family="Helvetica"><tspan y="-222.79" x="417.98"> </tspan></text>
</g>
<g clip-path="url(#clip_178)">
<text xml:space="preserve" transform="matrix(1 0 -0 1 0 792)" font-size="11.04" font-family="Helvetica"><tspan y="-222.79" x="420.89 424.0033 430.22987 433.82893 436.71037 439.82365 446.0502 448.93165 455.1582 458.75727 464.98384 467.86528 474.09184 477.6909 483.91746 486.3131 492.53968 497.81678 500.93006">for future projects</tspan></text>
</g>
<g clip-path="url(#clip_179)">
<text xml:space="preserve" transform="matrix(1 0 -0 1 0 792)" font-size="11.04" font-family="Helvetica"><tspan y="-222.79" x="506.59">.</tspan></text>
</g>
<g clip-path="url(#clip_180)">
<text xml:space="preserve" transform="matrix(1 0 -0 1 0 792)" font-size="11.04" font-family="Helvetica,Bold" font-weight="bold"><tspan y="-222.79" x="509.47"> </tspan></text>
</g>
<g clip-path="url(#clip_181)">
</g>
</g>
<g id="layer_1" data-name="P">
<g clip-path="url(#clip_182)">
<text xml:space="preserve" transform="matrix(1 0 -0 1 0 792)" font-size="11.04" font-family="Calibri"><tspan y="-205.03" x="54.024">&#x25aa;</tspan></text>
</g>
<g clip-path="url(#clip_183)">
<text xml:space="preserve" transform="matrix(1 0 -0 1 0 792)" font-size="11.04" font-family="Arial"><tspan y="-205.03" x="57.864"> </tspan></text>
</g>
<g clip-path="url(#clip_184)">
<text xml:space="preserve" transform="matrix(1 0 -0 1 0 792)" font-size="11.04" font-family="Helvetica"><tspan y="-205.03" x="67.464 73.69055 76.80383 79.68527 85.91183 91.43182 94.545108 97.65839 100.539829 106.76638 109.16206 112.0435 118.27006 124.26478 130.49134 133.60462 139.12462 145.35118 154.22734 157.34062 166.45966 172.68622 178.68094 184.9075 191.13407">https://github.com/manuel</tspan></text>
</g>
<g clip-path="url(#clip_185)">
<text xml:space="preserve" transform="matrix(1 0 -0 1 0 792)" font-size="11.04" font-family="Helvetica"><tspan y="-205.03" x="193.75">-</tspan></text>
</g>
<g clip-path="url(#clip_186)">
<text xml:space="preserve" transform="matrix(1 0 -0 1 0 792)" font-size="11.04" font-family="Helvetica"><tspan y="-205.03" x="197.11 203.33657 209.56313 214.84026 221.06682 227.29338 230.17482 237.60474 243.12474 246.00618 252.23274 258.22746">dev04/Python</tspan></text>
</g>
<g clip-path="url(#clip_187)">
<text xml:space="preserve" transform="matrix(1 0 -0 1 0 792)" font-size="11.04" font-family="Helvetica"><tspan y="-205.03" x="264.58">-</tspan></text>
</g>
<g clip-path="url(#clip_188)">
<text xml:space="preserve" transform="matrix(1 0 -0 1 0 792)" font-size="11.04" font-family="Helvetica"><tspan y="-205.03" x="268.18 277.05616 279.4518 285.67839">Mini</tspan></text>
</g>
<g clip-path="url(#clip_189)">
<text xml:space="preserve" transform="matrix(1 0 -0 1 0 792)" font-size="11.04" font-family="Helvetica"><tspan y="-205.03" x="288.1">-</tspan></text>
</g>
<g clip-path="url(#clip_190)">
<text xml:space="preserve" transform="matrix(1 0 -0 1 0 792)" font-size="11.04" font-family="Helvetica"><tspan y="-205.03" x="291.72 297.94657 300.34223 306.5688 310.16786 316.3944 319.99348">Library</tspan></text>
</g>
<g clip-path="url(#clip_191)">
<text xml:space="preserve" transform="matrix(1 0 -0 1 0 792)" font-size="11.04" font-family="Helvetica"><tspan y="-205.03" x="325.56"> </tspan></text>
</g>
<g clip-path="url(#clip_192)">
</g>
</g>
<g id="layer_1" data-name="P">
<g clip-path="url(#clip_193)">
<text xml:space="preserve" transform="matrix(1 0 -0 1 0 792)" font-size="7.92" font-family="Helvetica"><tspan y="-189.91" x="54.024"> </tspan></text>
</g>
<g clip-path="url(#clip_194)">
</g>
</g>
<g id="layer_1" data-name="P">
<g clip-path="url(#clip_195)">
<text xml:space="preserve" transform="matrix(1 0 -0 1 0 792)" font-size="7.92" font-family="Helvetica"><tspan y="-176.95" x="54.024"> </tspan></text>
</g>
<g clip-path="url(#clip_196)">
</g>
</g>
<g id="layer_1" data-name="P">
<g clip-path="url(#clip_197)">
<text xml:space="preserve" transform="matrix(1 0 -0 1 0 792)" font-size="13.92" font-family="Helvetica,Bold" font-weight="bold"><tspan y="-158.93" x="54.024 63.86544 74.16624 84.995998 95.046237 103.676639 107.546398 119.26704">ABOUT ME</tspan></text>
</g>
<g clip-path="url(#clip_198)">
<text xml:space="preserve" transform="matrix(1 0 -0 1 0 792)" font-size="12.96" font-family="Helvetica"><tspan y="-158.93" x="128.69"> </tspan></text>
</g>
<g clip-path="url(#clip_199)">
<path transform="matrix(1,0,0,-1,0,792)" d="M52.584 150.05H559.654V152.21H52.584Z" fill="#6c6c6c" fill-rule="evenodd"/>
</g>
</g>
<g id="layer_1" data-name="P">
<g clip-path="url(#clip_200)">
<text xml:space="preserve" transform="matrix(1 0 -0 1 0 792)" font-size="6.96" font-family="Helvetica"><tspan y="-143.33" x="54.024"> </tspan></text>
</g>
</g>
<g id="layer_1" data-name="P">
<g clip-path="url(#clip_201)">
<text xml:space="preserve" transform="matrix(1 0 -0 1 0 792)" font-size="11.04" font-family="Calibri"><tspan y="-128.45" x="54.024">&#x25aa;</tspan></text>
</g>
<g clip-path="url(#clip_202)">
<text xml:space="preserve" transform="matrix(1 0 -0 1 0 792)" font-size="11.04" font-family="Arial"><tspan y="-128.45" x="57.864"> </tspan></text>
</g>
<g clip-path="url(#clip_203)">
<text xml:space="preserve" transform="matrix(1 0 -0 1 0 792)" font-size="11.04" font-family="Helvetica"><tspan y="-128.45" x="67.464 74.89391 81.12047 84.00191 90.22846 96.45502 101.97501 104.138858 110.36541 115.88541 118.99869 121.39437 126.91437">Enthusiastic </tspan></text>
</g>
<g clip-path="url(#clip_204)">
<text xml:space="preserve" transform="matrix(1 0 -0 1 0 792)" font-size="11.04" font-family="Helvetica"><tspan y="-128.45" x="130.85 137.07657 143.30313 148.58026 154.80683 157.2025 163.19722 169.42378 175.65035">developer</tspan></text>
</g>
<g clip-path="url(#clip_205)">
<text xml:space="preserve" transform="matrix(1 0 -0 1 0 792)" font-size="11.04" font-family="Helvetica"><tspan y="-128.45" x="179.35"> </tspan></text>
</g>
<g clip-path="url(#clip_206)">
<text xml:space="preserve" transform="matrix(1 0 -0 1 0 792)" font-size="11.04" font-family="Helvetica"><tspan y="-128.45" x="183.43 191.34568 193.74135 196.85463 202.84935 206.92311 213.14968 216.98056 223.20713 229.43369 234.95369 237.34937 240.46265 242.85832 248.13545 254.36202 258.43577 264.43049 267.54377 270.65705 273.0527 275.93415 282.1607 288.15544 294.382 298.45576 304.45048 310.4452 316.67176 320.7455 328.6612 331.05686 333.4525 335.84819 338.24385 344.4704 350.69697 356.69169 362.91825 368.43824 373.95823 378.03199 380.91343 387.13999 391.21376 393.6094 399.60414 405.8307 409.42976 415.6563 418.53776 422.6115 430.5272 436.75376 442.74848 446.82225 449.93553 456.16209 459.76115 462.1568 467.4339 473.66047 479.18046 483.2542 485.64988 491.87644 495.9502 501.2273 507.45387 509.84953 512.24526 518.4718 524.46658 530.6931 534.2922 540.51876 543.632 546.0277 551.3049 557.53146">with a positive attitude and willingness to learn, who thrives in collaborative </tspan></text>
</g>
<g clip-path="url(#clip_207)">
</g>
<g clip-path="url(#clip_208)">
<text xml:space="preserve" transform="matrix(1 0 -0 1 0 792)" font-size="11.04" font-family="Helvetica"><tspan y="-110.69" x="67.464 73.69055 79.91711 85.4371 87.83279 91.43183 97.42655 103.65311 112.77215 118.76687 124.99342 128.1067">environments</tspan></text>
</g>
<g clip-path="url(#clip_209)">
<text xml:space="preserve" transform="matrix(1 0 -0 1 0 792)" font-size="11.04" font-family="Helvetica"><tspan y="-110.69" x="133.73"> </tspan></text>
</g>
<g clip-path="url(#clip_210)">
<text xml:space="preserve" transform="matrix(1 0 -0 1 0 792)" font-size="11.04" font-family="Helvetica"><tspan y="-110.69" x="137.57 145.48569 147.88137 150.99465 157.2212 160.8092 167.03577 170.86666 176.38666 179.49994 183.09897 189.09369 195.32025 201.54682 205.13481 211.36138 217.58794 219.98361 222.37929 224.77497 227.88825 233.40825 237.23914 240.12058 246.34714 250.17803 256.40458 260.00364 262.3993 268.62586 272.2249 274.62059 277.73387 280.12953 285.40663 291.63319 295.46406 301.45878 307.4535 313.68006 317.51094 326.62998 332.85655 338.85127 345.07783 351.07255 357.2991 361.12998 370.24903 376.4756 378.87126 381.98454 384.14836 390.3749 392.77058 398.99714 402.828 405.70945 411.936 417.456 422.97599 428.49598 432.32685 435.20829 441.43486 445.26573 454.38478 460.61134 466.60606 469.71934">with a strong ability to prioritize and manage multiple tasks to meet </tspan></text>
</g>
<g clip-path="url(#clip_211)">
<text xml:space="preserve" transform="matrix(1 0 -0 1 0 792)" font-size="11.04" font-family="Helvetica"><tspan y="-110.69" x="474.17 480.39659 483.99565 490.2222 492.38603 498.61259 504.13258 507.24586 510.83387 517.0604 523.0552 529.28176 535.5083 537.904 540.2997 546.29446 552.2892 558.041">project deadlines </tspan></text>
</g>
<g clip-path="url(#clip_212)">
</g>
<g clip-path="url(#clip_213)">
<text xml:space="preserve" transform="matrix(1 0 -0 1 0 792)" font-size="11.04" font-family="Helvetica"><tspan y="-92.928" x="67.464 73.69055 79.68527 85.91183 89.02511 95.01983 101.24638 107.47294 109.86862 115.14574">and goals.</tspan></text>
</g>
<g clip-path="url(#clip_214)">
<text xml:space="preserve" transform="matrix(1 0 -0 1 0 792)" font-size="11.04" font-family="Helvetica"><tspan y="-92.928" x="118.13"> </tspan></text>
</g>
<g clip-path="url(#clip_215)">
</g>
</g>
<g id="layer_1" data-name="P">
<g clip-path="url(#clip_216)">
<text xml:space="preserve" transform="matrix(1 0 -0 1 0 792)" font-size="11.04" font-family="Calibri"><tspan y="-75.144" x="54.024">&#x25aa;</tspan></text>
</g>
<g clip-path="url(#clip_217)">
<text xml:space="preserve" transform="matrix(1 0 -0 1 0 792)" font-size="11.04" font-family="Arial"><tspan y="-75.144" x="57.864"> </tspan></text>
</g>
<g clip-path="url(#clip_218)">
<text xml:space="preserve" transform="matrix(1 0 -0 1 0 792)" font-size="11.04" font-family="Helvetica"><tspan y="-75.144" x="67.464 74.89391 80.41391 86.40863 92.635189 96.23423 98.62991 104.85647 111.08302 116.36014 122.58669 128.5814 132.4123 134.80797 141.03453 144.86542 152.54927 158.77584 162.37487 167.89487 170.29055 176.5171 182.51183 186.34272 192.33744 198.564 202.39488 208.62145 211.9776 218.20417 224.19889 230.42545 234.25634 240.4829 243.83905 250.06562 252.46129 258.68785 264.20783 267.08927 272.60926 276.44013 278.8358 285.06236 288.65037 294.87693 300.15403 306.38059 312.3753 318.60188 327.72093 330.11659 335.63658 339.46745 344.98744 351.214 354.09544 357.2087 359.60438 365.5991 371.82566 377.34565 380.45893 384.2898 389.5669 395.79347 401.78819 404.90147 408.50053 410.89619 417.12275 423.3493 426.4626 428.6264 434.85298 440.8477 444.67857 447.79185 453.78657 457.61744 460.7307 466.72544 472.952 482.07106 485.90193 491.89665 495.00993 498.1232 504.34977 507.70594 510.8192 516.33926 520.1701 523.0515 529.2781 532.87716 539.1037 545.09848 551.0932 557.31979">Experienced in working on group projects in academic settings, contributing to team efforts through </tspan></text>
</g>
<g clip-path="url(#clip_219)">
</g>
<g clip-path="url(#clip_220)">
<text xml:space="preserve" transform="matrix(1 0 -0 1 0 792)" font-size="11.04" font-family="Helvetica"><tspan y="-57.384" x="67.464 73.69055 79.21055 82.32383 84.71951 90.23951 96.23423 99.34751 105.34223 111.56879 115.16783 118.28111 120.676799 126.19679 128.59247 134.81903 140.81375 143.92704 146.32271 152.31743 158.54399 161.65727 164.77056 167.16623 173.16095 179.38751 185.38224 188.49552 194.49024 200.7168 206.71152 212.93808 216.53711 222.76367 225.87696 228.0408 234.26737 240.49393 243.37537 246.48865 252.48337 258.70994 264.70466 267.81794 273.33793 279.33265 285.5592 291.0792 294.19248 297.79154 304.0181 309.2952 312.17665 314.5723 320.0923 326.31886 329.2003 332.5454 338.54014 344.53486 350.7614 356.75614 362.9827 368.5027 374.02268">active participation, idea generation, and constructive feedback.</tspan></text>
</g>
<g clip-path="url(#clip_221)">
<text xml:space="preserve" transform="matrix(1 0 -0 1 0 792)" font-size="11.04" font-family="Helvetica"><tspan y="-57.384" x="377.42"> </tspan></text>
</g>
<g clip-path="url(#clip_222)">
</g>
</g>
</g>
</svg>
